SplineFontDB: 3.2
FontName: Laudosia-Regular
FullName: Laudosia Regular
FamilyName: Laudosia
Weight: Regular
Copyright: Copyright 2025 Loudcoypu\nCopyright 2022 The Noto Project Authors
Version: 4.0702
ItalicAngle: 0
UnderlinePosition: -125
UnderlineWidth: 50
Ascent: 800
Descent: 224
InvalidEm: 0
sfntRevision: 0x000411f9
LayerCount: 2
Layer: 0 1 "Back" 1
Layer: 1 1 "Fore" 0
XUID: [1021 422 1772429344 22364]
StyleMap: 0x0040
FSType: 0
OS2Version: 4
OS2_WeightWidthSlopeOnly: 0
OS2_UseTypoMetrics: 1
CreationTime: 1633362791
ModificationTime: 1746641373
PfmFamily: 17
TTFWeight: 400
TTFWidth: 5
LineGap: 0
VLineGap: 0
Panose: 2 11 5 2 4 5 4 2 2 4
OS2TypoAscent: 1069
OS2TypoAOffset: 0
OS2TypoDescent: -293
OS2TypoDOffset: 0
OS2TypoLinegap: 0
OS2WinAscent: 1124
OS2WinAOffset: 0
OS2WinDescent: 395
OS2WinDOffset: 0
HheadAscent: 1069
HheadAOffset: 0
HheadDescent: -293
HheadDOffset: 0
OS2SubXSize: 650
OS2SubYSize: 600
OS2SubXOff: 0
OS2SubYOff: 75
OS2SupXSize: 650
OS2SupYSize: 600
OS2SupXOff: 0
OS2SupYOff: 350
OS2StrikeYSize: 50
OS2StrikeYPos: 322
OS2CapHeight: 714
OS2XHeight: 536
OS2Vendor: 'LOCO'
OS2CodePages: 0000019f.00000000
OS2UnicodeRanges: e00002ff.4000201f.08000029.00100000
Lookup: 4 0 0 "'ccmp' Glyph Composition/Decomposition lookup 50" { "'ccmp' Glyph Composition/Decomposition lookup 50 subtable"  } ['ccmp' ('DFLT' <'dflt' > 'bopo' <'dflt' > 'cyrl' <'MKD ' 'SRB ' 'dflt' > 'dev2' <'MAR ' 'NEP ' 'SAN ' 'SAT ' 'dflt' > 'grek' <'APPH' 'IPPH' 'dflt' > 'latn' <'APPH' 'CAT ' 'IPPH' 'MAH ' 'MOL ' 'NAV ' 'ROM ' 'dflt' > ) ]
Lookup: 1 0 0 "'aalt' Access All Alternates lookup 0" { "'aalt' Access All Alternates lookup 0 subtable"  } ['aalt' ('DFLT' <'dflt' > 'cyrl' <'MKD ' 'SRB ' 'dflt' > 'dev2' <'MAR ' 'NEP ' 'SAN ' 'SAT ' 'dflt' > 'deva' <'MAR ' 'NEP ' 'SAN ' 'dflt' > 'grek' <'APPH' 'IPPH' 'dflt' > 'latn' <'APPH' 'CAT ' 'IPPH' 'MAH ' 'MOL ' 'NAV ' 'ROM ' 'dflt' > ) ]

StartChar: .notdef
Encoding: 1114112 -1 0
Width: 600
VWidth: 1000
GlyphClass: 1
Flags: W
LayerCount: 2
Fore
SplineSet
94 0 m 1,0,-1
 94 714 l 1,1,-1
 505 714 l 1,2,-1
 505 0 l 1,3,-1
 94 0 l 1,0,-1
145 51 m 1,4,-1
 454 51 l 1,5,-1
 454 663 l 1,6,-1
 145 663 l 1,7,-1
 145 51 l 1,4,-1
EndSplineSet
EndChar

StartChar: exclamation
Encoding: 33 33 4
Width: 269
VWidth: 1000
GlyphClass: 1
Flags: W
LayerCount: 2
Fore
SplineSet
163 201 m 1,0,-1
 106 201 l 1,1,-1
 81 714 l 1,2,-1
 188 714 l 1,3,-1
 163 201 l 1,0,-1
72 54 m 0,4,5
 72 91 72 91 90 106 c 128,-1,6
 108 121 108 121 134 121 c 0,7,8
 159 121 159 121 177.5 106 c 128,-1,9
 196 91 196 91 196 54 c 0,10,11
 196 18 196 18 177.5 2 c 128,-1,12
 159 -14 159 -14 134 -14 c 0,13,14
 108 -14 108 -14 90 2 c 128,-1,15
 72 18 72 18 72 54 c 0,4,5
EndSplineSet
Substitution2: "'smcp' Lowercase to Small Capitals lookup 39 subtable" exclamation.sc
Substitution2: "'c2sc' Capitals to Small Capitals lookup 38 subtable" exclamation.sc
Substitution2: "'aalt' Access All Alternates lookup 0 subtable" exclamation.sc
EndChar

StartChar: quot
Encoding: 34 34 5
Width: 408
VWidth: 1000
GlyphClass: 1
Flags: W
LayerCount: 2
Fore
SplineSet
160 714 m 1,0,-1
 140 456 l 1,1,-1
 85 456 l 1,2,-1
 65 714 l 1,3,-1
 160 714 l 1,0,-1
343 714 m 1,4,-1
 323 456 l 1,5,-1
 268 456 l 1,6,-1
 248 714 l 1,7,-1
 343 714 l 1,4,-1
EndSplineSet
EndChar

StartChar: number
Encoding: 35 35 6
Width: 646
VWidth: 1000
GlyphClass: 1
Flags: W
LayerCount: 2
Fore
SplineSet
480 436 m 1,0,-1
 449 276 l 1,1,-1
 586 276 l 1,2,-1
 586 209 l 1,3,-1
 436 209 l 1,4,-1
 395 0 l 1,5,-1
 324 0 l 1,6,-1
 365 209 l 1,7,-1
 222 209 l 1,8,-1
 183 0 l 1,9,-1
 113 0 l 1,10,-1
 151 209 l 1,11,-1
 25 209 l 1,12,-1
 25 276 l 1,13,-1
 164 276 l 1,14,-1
 196 436 l 1,15,-1
 62 436 l 1,16,-1
 62 502 l 1,17,-1
 208 502 l 1,18,-1
 248 714 l 1,19,-1
 320 714 l 1,20,-1
 280 502 l 1,21,-1
 424 502 l 1,22,-1
 464 714 l 1,23,-1
 533 714 l 1,24,-1
 493 502 l 1,25,-1
 620 502 l 1,26,-1
 620 436 l 1,27,-1
 480 436 l 1,0,-1
235 276 m 1,28,-1
 378 276 l 1,29,-1
 409 436 l 1,30,-1
 266 436 l 1,31,-1
 235 276 l 1,28,-1
EndSplineSet
EndChar

StartChar: dollar
Encoding: 36 36 7
Width: 572
VWidth: 1000
GlyphClass: 1
Flags: W
LayerCount: 2
Fore
SplineSet
253 49 m 1,0,1
 198 50 198 50 146 58.5 c 128,-1,2
 94 67 94 67 62 82 c 1,3,-1
 62 167 l 1,4,5
 96 151 96 151 149 139 c 128,-1,6
 202 127 202 127 253 126 c 1,7,-1
 253 328 l 1,8,9
 187 346 187 346 145 369.5 c 128,-1,10
 103 393 103 393 82.5 427 c 128,-1,11
 62 461 62 461 62 508 c 0,12,13
 62 557 62 557 85.5 592 c 128,-1,14
 109 627 109 627 152 647.5 c 128,-1,15
 195 668 195 668 253 671 c 1,16,-1
 253 759 l 1,17,-1
 317 759 l 1,18,-1
 317 672 l 1,19,20
 370 671 370 671 413.5 660.5 c 128,-1,21
 457 650 457 650 493 635 c 1,22,-1
 466 561 l 1,23,24
 434 574 434 574 395.5 583.5 c 128,-1,25
 357 593 357 593 317 596 c 1,26,-1
 317 395 l 1,27,28
 383 376 383 376 427 354.5 c 128,-1,29
 471 333 471 333 493.5 301.5 c 128,-1,30
 516 270 516 270 516 220 c 0,31,32
 516 150 516 150 464 106.5 c 128,-1,33
 412 63 412 63 317 53 c 1,34,-1
 317 -58 l 1,35,-1
 253 -58 l 1,36,-1
 253 49 l 1,0,1
317 131 m 1,37,38
 376 137 376 137 403 158.5 c 128,-1,39
 430 180 430 180 430 214 c 0,40,41
 430 239 430 239 420 255.5 c 128,-1,42
 410 272 410 272 385.5 284 c 128,-1,43
 361 296 361 296 317 307 c 1,44,-1
 317 131 l 1,37,38
253 594 m 1,45,46
 217 592 217 592 194 581.5 c 128,-1,47
 171 571 171 571 159.5 554 c 128,-1,48
 148 537 148 537 148 515 c 0,49,50
 148 489 148 489 157.5 470.5 c 128,-1,51
 167 452 167 452 190 439.5 c 128,-1,52
 213 427 213 427 253 417 c 1,53,-1
 253 594 l 1,45,46
EndSplineSet
EndChar

StartChar: percent
Encoding: 37 37 8
Width: 831
VWidth: 1000
GlyphClass: 1
Flags: W
LayerCount: 2
Fore
SplineSet
195 724 m 0,0,1
 269 724 269 724 307 665.5 c 128,-1,2
 345 607 345 607 345 501 c 256,3,4
 345 395 345 395 308.5 335.5 c 128,-1,5
 272 276 272 276 195 276 c 0,6,7
 124 276 124 276 86.5 335.5 c 128,-1,8
 49 395 49 395 49 501 c 256,9,10
 49 607 49 607 84 665.5 c 128,-1,11
 119 724 119 724 195 724 c 0,0,1
195 662 m 0,12,13
 157 662 157 662 139.5 621.5 c 128,-1,14
 122 581 122 581 122 501 c 256,15,16
 122 421 122 421 139.5 380 c 128,-1,17
 157 339 157 339 195 339 c 0,18,19
 234 339 234 339 253 379.5 c 128,-1,20
 272 420 272 420 272 501 c 0,21,22
 272 581 272 581 253 621.5 c 128,-1,23
 234 662 234 662 195 662 c 0,12,13
652 714 m 1,24,-1
 256 0 l 1,25,-1
 179 0 l 1,26,-1
 575 714 l 1,27,-1
 652 714 l 1,24,-1
632 438 m 0,28,29
 705 438 705 438 743.5 379.5 c 128,-1,30
 782 321 782 321 782 215 c 256,31,32
 782 109 782 109 745.5 49.5 c 128,-1,33
 709 -10 709 -10 632 -10 c 0,34,35
 561 -10 561 -10 523.5 49.5 c 128,-1,36
 486 109 486 109 486 215 c 256,37,38
 486 321 486 321 521 379.5 c 128,-1,39
 556 438 556 438 632 438 c 0,28,29
632 375 m 0,40,41
 594 375 594 375 576.5 335 c 128,-1,42
 559 295 559 295 559 215 c 0,43,44
 559 134 559 134 576.5 93.5 c 128,-1,45
 594 53 594 53 632 53 c 0,46,47
 671 53 671 53 690 93 c 128,-1,48
 709 133 709 133 709 215 c 0,49,50
 709 295 709 295 690 335 c 128,-1,51
 671 375 671 375 632 375 c 0,40,41
EndSplineSet
EndChar

StartChar: amp
Encoding: 38 38 9
Width: 732
VWidth: 1000
GlyphClass: 1
Flags: W
LayerCount: 2
Fore
SplineSet
304 725 m 0,0,1
 358 725 358 725 396.5 706.5 c 128,-1,2
 435 688 435 688 456 654 c 128,-1,3
 477 620 477 620 477 571 c 0,4,5
 477 508 477 508 436.5 464 c 128,-1,6
 396 420 396 420 334 384 c 1,7,-1
 527 198 l 1,8,9
 553 229 553 229 569.5 269.5 c 128,-1,10
 586 310 586 310 597 357 c 1,11,-1
 686 357 l 1,12,13
 670 293 670 293 646 238 c 128,-1,14
 622 183 622 183 584 142 c 1,15,-1
 730 0 l 1,16,-1
 611 0 l 1,17,-1
 524 84 l 1,18,19
 493 56 493 56 457 35 c 128,-1,20
 421 14 421 14 377.5 2 c 128,-1,21
 334 -10 334 -10 278 -10 c 0,22,23
 209 -10 209 -10 158.5 12.5 c 128,-1,24
 108 35 108 35 80.5 79 c 128,-1,25
 53 123 53 123 53 186 c 0,26,27
 53 237 53 237 71.5 274 c 128,-1,28
 90 311 90 311 125 340 c 128,-1,29
 160 369 160 369 207 396 c 1,30,31
 186 420 186 420 166 446 c 128,-1,32
 146 472 146 472 133 502.5 c 128,-1,33
 120 533 120 533 120 569 c 0,34,35
 120 618 120 618 142 653 c 128,-1,36
 164 688 164 688 205.5 706.5 c 128,-1,37
 247 725 247 725 304 725 c 0,0,1
260 341 m 1,38,39
 224 320 224 320 198.5 298.5 c 128,-1,40
 173 277 173 277 159 251 c 128,-1,41
 145 225 145 225 145 189 c 0,42,43
 145 134 145 134 182 101 c 128,-1,44
 219 68 219 68 281 68 c 0,45,46
 345 68 345 68 391 89 c 128,-1,47
 437 110 437 110 468 139 c 1,48,-1
 260 341 l 1,38,39
301 653 m 0,49,50
 259 653 259 653 232.5 631 c 128,-1,51
 206 609 206 609 206 570 c 0,52,53
 206 534 206 534 225 503.5 c 128,-1,54
 244 473 244 473 280 436 c 1,55,56
 339 470 339 470 364.5 500.5 c 128,-1,57
 390 531 390 531 390 571 c 0,58,59
 390 607 390 607 366 630 c 128,-1,60
 342 653 342 653 301 653 c 0,49,50
EndSplineSet
Substitution2: "'smcp' Lowercase to Small Capitals lookup 39 subtable" amp.sc
Substitution2: "'c2sc' Capitals to Small Capitals lookup 38 subtable" amp.sc
Substitution2: "'aalt' Access All Alternates lookup 0 subtable" amp.sc
EndChar

StartChar: apos
Encoding: 39 39 10
Width: 225
VWidth: 1000
GlyphClass: 1
Flags: W
LayerCount: 2
Fore
SplineSet
160 714 m 1,0,-1
 140 456 l 1,1,-1
 85 456 l 1,2,-1
 65 714 l 1,3,-1
 160 714 l 1,0,-1
EndSplineSet
EndChar

StartChar: leftparenthesis
Encoding: 40 40 11
Width: 300
VWidth: 1000
GlyphClass: 1
Flags: W
LayerCount: 2
Fore
SplineSet
40 274 m 0,0,1
 40 356 40 356 55.5 434 c 128,-1,2
 71 512 71 512 104 583 c 128,-1,3
 137 654 137 654 187 714 c 1,4,-1
 270 714 l 1,5,6
 200 620 200 620 164.5 507 c 128,-1,7
 129 394 129 394 129 275 c 0,8,9
 129 198 129 198 145 122 c 128,-1,10
 161 46 161 46 192 -24.5 c 128,-1,11
 223 -95 223 -95 269 -158 c 1,12,-1
 187 -158 l 1,13,14
 137 -99 137 -99 104 -29.5 c 128,-1,15
 71 40 71 40 55.5 117 c 128,-1,16
 40 194 40 194 40 274 c 0,0,1
EndSplineSet
Substitution2: "'smcp' Lowercase to Small Capitals lookup 39 subtable" leftparenthesis.sc
Substitution2: "'c2sc' Capitals to Small Capitals lookup 38 subtable" leftparenthesis.sc
Substitution2: "'sups' Superscript lookup 25 subtable" superscriptleftparenthesis
Substitution2: "'sinf' Scientific Inferiors lookup 24 subtable" subscriptleftparenthesis
Substitution2: "'subs' Subscript lookup 23 subtable" subscriptleftparenthesis
AlternateSubs2: "'aalt' Access All Alternates lookup 1 subtable" subscriptleftparenthesis superscriptleftparenthesis leftparenthesis.sc
EndChar

StartChar: rightparenthesis
Encoding: 41 41 12
Width: 300
VWidth: 1000
GlyphClass: 1
Flags: W
LayerCount: 2
Fore
SplineSet
260 274 m 0,0,1
 260 194 260 194 244.5 117 c 128,-1,2
 229 40 229 40 196.5 -29.5 c 128,-1,3
 164 -99 164 -99 113 -158 c 1,4,-1
 31 -158 l 1,5,6
 77 -95 77 -95 108 -24.5 c 128,-1,7
 139 46 139 46 155 122 c 128,-1,8
 171 198 171 198 171 275 c 0,9,10
 171 354 171 354 155 431 c 128,-1,11
 139 508 139 508 108 580 c 128,-1,12
 77 652 77 652 30 714 c 1,13,-1
 113 714 l 1,14,15
 164 654 164 654 196.5 583 c 128,-1,16
 229 512 229 512 244.5 434 c 128,-1,17
 260 356 260 356 260 274 c 0,0,1
EndSplineSet
Substitution2: "'smcp' Lowercase to Small Capitals lookup 39 subtable" rightparenthesis.sc
Substitution2: "'c2sc' Capitals to Small Capitals lookup 38 subtable" rightparenthesis.sc
Substitution2: "'sups' Superscript lookup 25 subtable" superscriptrightparenthesis
Substitution2: "'sinf' Scientific Inferiors lookup 24 subtable" subscriptrightparenthesis
Substitution2: "'subs' Subscript lookup 23 subtable" subscriptrightparenthesis
AlternateSubs2: "'aalt' Access All Alternates lookup 1 subtable" subscriptrightparenthesis superscriptrightparenthesis rightparenthesis.sc
EndChar

StartChar: asterisk
Encoding: 42 42 13
Width: 551
VWidth: 1000
GlyphClass: 1
Flags: W
LayerCount: 2
Fore
SplineSet
322 760 m 1,0,-1
 302 568 l 1,1,-1
 494 622 l 1,2,-1
 508 530 l 1,3,-1
 324 515 l 1,4,-1
 443 357 l 1,5,-1
 357 310 l 1,6,-1
 272 485 l 1,7,-1
 195 310 l 1,8,-1
 106 357 l 1,9,-1
 223 515 l 1,10,-1
 41 530 l 1,11,-1
 55 622 l 1,12,-1
 245 568 l 1,13,-1
 224 760 l 1,14,-1
 322 760 l 1,0,-1
EndSplineSet
EndChar

StartChar: plus
Encoding: 43 43 14
Width: 572
VWidth: 1000
GlyphClass: 1
Flags: W
LayerCount: 2
Fore
SplineSet
321 388 m 1,0,-1
 520 388 l 1,1,-1
 520 317 l 1,2,-1
 321 317 l 1,3,-1
 321 111 l 1,4,-1
 249 111 l 1,5,-1
 249 317 l 1,6,-1
 50 317 l 1,7,-1
 50 388 l 1,8,-1
 249 388 l 1,9,-1
 249 595 l 1,10,-1
 321 595 l 1,11,-1
 321 388 l 1,0,-1
EndSplineSet
Substitution2: "'sups' Superscript lookup 25 subtable" superscriptplus
Substitution2: "'sinf' Scientific Inferiors lookup 24 subtable" subscriptplus
Substitution2: "'subs' Subscript lookup 23 subtable" subscriptplus
AlternateSubs2: "'aalt' Access All Alternates lookup 1 subtable" subscriptplus superscriptplus
EndChar

StartChar: comma
Encoding: 44 44 15
Width: 268
VWidth: 1000
GlyphClass: 1
Flags: W
LayerCount: 2
Fore
SplineSet
192 105 m 1,0,1
 183 70 183 70 169 29 c 128,-1,2
 155 -12 155 -12 138.5 -52.5 c 128,-1,3
 122 -93 122 -93 106 -129 c 1,4,-1
 41 -129 l 1,5,6
 51 -91 51 -91 60.5 -47.5 c 128,-1,7
 70 -4 70 -4 78 38.5 c 128,-1,8
 86 81 86 81 91 116 c 1,9,-1
 185 116 l 1,10,-1
 192 105 l 1,0,1
EndSplineSet
EndChar

StartChar: hyphenminus
Encoding: 45 45 16
Width: 322
VWidth: 1000
GlyphClass: 1
Flags: W
LayerCount: 2
Fore
SplineSet
40 229 m 1,0,-1
 40 307 l 1,1,-1
 282 307 l 1,2,-1
 282 229 l 1,3,-1
 40 229 l 1,0,-1
EndSplineSet
EndChar

StartChar: fullstop
Encoding: 46 46 17
Width: 268
VWidth: 1000
GlyphClass: 1
Flags: W
LayerCount: 2
Fore
SplineSet
72 54 m 0,0,1
 72 91 72 91 90 106 c 128,-1,2
 108 121 108 121 133 121 c 0,3,4
 159 121 159 121 177.5 106 c 128,-1,5
 196 91 196 91 196 54 c 0,6,7
 196 18 196 18 177.5 2 c 128,-1,8
 159 -14 159 -14 133 -14 c 0,9,10
 108 -14 108 -14 90 2 c 128,-1,11
 72 18 72 18 72 54 c 0,0,1
EndSplineSet
EndChar

StartChar: solidus
Encoding: 47 47 18
Width: 372
VWidth: 1000
GlyphClass: 1
Flags: W
LayerCount: 2
Fore
SplineSet
362 714 m 1,0,-1
 96 0 l 1,1,-1
 10 0 l 1,2,-1
 276 714 l 1,3,-1
 362 714 l 1,0,-1
EndSplineSet
Substitution2: "'frac' Diagonal Fractions lookup 28 subtable" fractionslash
Substitution2: "'aalt' Access All Alternates lookup 0 subtable" fractionslash
EndChar

StartChar: digitzero
Encoding: 48 48 19
Width: 572
VWidth: 1000
GlyphClass: 1
Flags: W
LayerCount: 2
Fore
SplineSet
523 358 m 0,0,1
 523 271 523 271 510 203 c 128,-1,2
 497 135 497 135 468.5 87.5 c 128,-1,3
 440 40 440 40 394.5 15 c 128,-1,4
 349 -10 349 -10 285 -10 c 0,5,6
 205 -10 205 -10 152.5 34 c 128,-1,7
 100 78 100 78 74.5 160.5 c 128,-1,8
 49 243 49 243 49 358 c 0,9,10
 49 474 49 474 72.5 556 c 128,-1,11
 96 638 96 638 148 681.5 c 128,-1,12
 200 725 200 725 285 725 c 0,13,14
 365 725 365 725 418 681.5 c 128,-1,15
 471 638 471 638 497 556 c 128,-1,16
 523 474 523 474 523 358 c 0,0,1
137 358 m 256,17,18
 137 260 137 260 151.5 195 c 128,-1,19
 166 130 166 130 198.5 97.5 c 128,-1,20
 231 65 231 65 285 65 c 256,21,22
 339 65 339 65 371.5 97 c 128,-1,23
 404 129 404 129 419 194.5 c 128,-1,24
 434 260 434 260 434 358 c 256,25,26
 434 456 434 456 419 520.5 c 128,-1,27
 404 585 404 585 371.5 617.5 c 128,-1,28
 339 650 339 650 285 650 c 256,29,30
 231 650 231 650 198.5 617.5 c 128,-1,31
 166 585 166 585 151.5 520.5 c 128,-1,32
 137 456 137 456 137 358 c 256,17,18
EndSplineSet
Substitution2: "'zero' Slashed Zero lookup 43 subtable" digitzero.slash
Substitution2: "'case' Case-Sensitive Forms lookup 40 subtable" digitzero.lf
Substitution2: "'onum' Oldstyle Figures lookup 37 subtable" digitzero.tosf
Substitution2: "'pnum' Proportional Numbers lookup 35 subtable" digitzero.lf
Substitution2: "'frac' Diagonal Fractions lookup 29 subtable" digitzero.numr
Substitution2: "'dnom' Denominators lookup 27 subtable" digitzero.dnom
Substitution2: "'numr' Numerators lookup 26 subtable" digitzero.numr
Substitution2: "'sups' Superscript lookup 25 subtable" superscriptzero
Substitution2: "'sinf' Scientific Inferiors lookup 24 subtable" subscriptzero
Substitution2: "'subs' Subscript lookup 23 subtable" subscriptzero
AlternateSubs2: "'aalt' Access All Alternates lookup 1 subtable" subscriptzero superscriptzero digitzero.numr digitzero.dnom digitzero.lf digitzero.tosf digitzero.slash
EndChar

StartChar: digitone
Encoding: 49 49 20
Width: 572
VWidth: 1000
GlyphClass: 1
Flags: W
LayerCount: 2
Fore
SplineSet
355 0 m 1,0,-1
 269 0 l 1,1,-1
 269 499 l 2,2,3
 269 528 269 528 269.5 548 c 128,-1,4
 270 568 270 568 271 585.5 c 128,-1,5
 272 603 272 603 273 622 c 1,6,7
 257 606 257 606 244 595 c 128,-1,8
 231 584 231 584 211 567 c 2,9,-1
 135 505 l 1,10,-1
 89 564 l 1,11,-1
 282 714 l 1,12,-1
 355 714 l 1,13,-1
 355 0 l 1,0,-1
EndSplineSet
Substitution2: "'case' Case-Sensitive Forms lookup 40 subtable" digitone.lf
Substitution2: "'onum' Oldstyle Figures lookup 37 subtable" digitone.tosf
Substitution2: "'pnum' Proportional Numbers lookup 35 subtable" digitone.lf
Substitution2: "'frac' Diagonal Fractions lookup 29 subtable" digitone.numr
Substitution2: "'dnom' Denominators lookup 27 subtable" digitone.dnom
Substitution2: "'numr' Numerators lookup 26 subtable" digitone.numr
Substitution2: "'sups' Superscript lookup 25 subtable" superscriptone
Substitution2: "'sinf' Scientific Inferiors lookup 24 subtable" subscriptone
Substitution2: "'subs' Subscript lookup 23 subtable" subscriptone
AlternateSubs2: "'aalt' Access All Alternates lookup 1 subtable" subscriptone superscriptone digitone.numr digitone.dnom digitone.lf digitone.tosf
EndChar

StartChar: digittwo
Encoding: 50 50 21
Width: 572
VWidth: 1000
GlyphClass: 1
Flags: W
LayerCount: 2
Fore
SplineSet
520 0 m 1,0,-1
 48 0 l 1,1,-1
 48 73 l 1,2,-1
 235 262 l 2,3,4
 289 316 289 316 326 358 c 128,-1,5
 363 400 363 400 382 440.5 c 128,-1,6
 401 481 401 481 401 529 c 0,7,8
 401 588 401 588 366 618.5 c 128,-1,9
 331 649 331 649 275 649 c 0,10,11
 223 649 223 649 183.5 631 c 128,-1,12
 144 613 144 613 103 581 c 1,13,-1
 56 640 l 1,14,15
 84 664 84 664 117.5 683 c 128,-1,16
 151 702 151 702 190.5 713 c 128,-1,17
 230 724 230 724 275 724 c 0,18,19
 342 724 342 724 390 701 c 128,-1,20
 438 678 438 678 464.5 635.5 c 128,-1,21
 491 593 491 593 491 534 c 0,22,23
 491 478 491 478 468 429 c 128,-1,24
 445 380 445 380 404 332.5 c 128,-1,25
 363 285 363 285 308 231 c 2,26,-1
 159 84 l 1,27,-1
 159 80 l 1,28,-1
 520 80 l 1,29,-1
 520 0 l 1,0,-1
EndSplineSet
Substitution2: "'case' Case-Sensitive Forms lookup 40 subtable" digittwo.lf
Substitution2: "'onum' Oldstyle Figures lookup 37 subtable" digittwo.tosf
Substitution2: "'pnum' Proportional Numbers lookup 35 subtable" digittwo.lf
Substitution2: "'frac' Diagonal Fractions lookup 29 subtable" digittwo.numr
Substitution2: "'dnom' Denominators lookup 27 subtable" digittwo.dnom
Substitution2: "'numr' Numerators lookup 26 subtable" digittwo.numr
Substitution2: "'sups' Superscript lookup 25 subtable" superscripttwo
Substitution2: "'sinf' Scientific Inferiors lookup 24 subtable" subscripttwo
Substitution2: "'subs' Subscript lookup 23 subtable" subscripttwo
AlternateSubs2: "'aalt' Access All Alternates lookup 1 subtable" subscripttwo superscripttwo digittwo.numr digittwo.dnom digittwo.lf digittwo.tosf
EndChar

StartChar: digitthree
Encoding: 51 51 22
Width: 572
VWidth: 1000
GlyphClass: 1
Flags: W
LayerCount: 2
Fore
SplineSet
493 547 m 0,0,1
 493 499 493 499 475 464 c 128,-1,2
 457 429 457 429 423.5 407 c 128,-1,3
 390 385 390 385 345 376 c 1,4,-1
 345 372 l 1,5,6
 431 362 431 362 473 318 c 128,-1,7
 515 274 515 274 515 203 c 0,8,9
 515 141 515 141 486 92.5 c 128,-1,10
 457 44 457 44 396.5 17 c 128,-1,11
 336 -10 336 -10 241 -10 c 0,12,13
 185 -10 185 -10 137 -1.5 c 128,-1,14
 89 7 89 7 45 29 c 1,15,-1
 45 111 l 1,16,17
 90 89 90 89 142 76.5 c 128,-1,18
 194 64 194 64 242 64 c 0,19,20
 338 64 338 64 380.5 101.5 c 128,-1,21
 423 139 423 139 423 205 c 0,22,23
 423 250 423 250 399.5 277.5 c 128,-1,24
 376 305 376 305 331 318 c 128,-1,25
 286 331 286 331 223 331 c 2,26,-1
 154 331 l 1,27,-1
 154 406 l 1,28,-1
 224 406 l 2,29,30
 283 406 283 406 322.5 423 c 128,-1,31
 362 440 362 440 382.5 470.5 c 128,-1,32
 403 501 403 501 403 541 c 0,33,34
 403 593 403 593 368 621.5 c 128,-1,35
 333 650 333 650 273 650 c 0,36,37
 235 650 235 650 204 642.5 c 128,-1,38
 173 635 173 635 146.5 621.5 c 128,-1,39
 120 608 120 608 93 590 c 1,40,-1
 49 650 l 1,41,42
 87 680 87 680 143.5 702 c 128,-1,43
 200 724 200 724 272 724 c 0,44,45
 384 724 384 724 438.5 674 c 128,-1,46
 493 624 493 624 493 547 c 0,0,1
EndSplineSet
Substitution2: "'case' Case-Sensitive Forms lookup 40 subtable" digitthree.lf
Substitution2: "'onum' Oldstyle Figures lookup 37 subtable" digitthree.tosf
Substitution2: "'pnum' Proportional Numbers lookup 35 subtable" digitthree.lf
Substitution2: "'frac' Diagonal Fractions lookup 29 subtable" digitthree.numr
Substitution2: "'dnom' Denominators lookup 27 subtable" digitthree.dnom
Substitution2: "'numr' Numerators lookup 26 subtable" digitthree.numr
Substitution2: "'sups' Superscript lookup 25 subtable" superscriptthree
Substitution2: "'sinf' Scientific Inferiors lookup 24 subtable" subscriptthree
Substitution2: "'subs' Subscript lookup 23 subtable" subscriptthree
AlternateSubs2: "'aalt' Access All Alternates lookup 1 subtable" subscriptthree superscriptthree digitthree.numr digitthree.dnom digitthree.lf digitthree.tosf
EndChar

StartChar: digitfour
Encoding: 52 52 23
Width: 572
VWidth: 1000
GlyphClass: 1
Flags: W
LayerCount: 2
Fore
SplineSet
552 162 m 1,0,-1
 448 162 l 1,1,-1
 448 0 l 1,2,-1
 363 0 l 1,3,-1
 363 162 l 1,4,-1
 21 162 l 1,5,-1
 21 237 l 1,6,-1
 357 718 l 1,7,-1
 448 718 l 1,8,-1
 448 241 l 1,9,-1
 552 241 l 1,10,-1
 552 162 l 1,0,-1
363 466 m 2,11,12
 363 492 363 492 363.5 513.5 c 128,-1,13
 364 535 364 535 365 554 c 128,-1,14
 366 573 366 573 366.5 590.5 c 128,-1,15
 367 608 367 608 368 624 c 1,16,-1
 364 624 l 1,17,18
 356 605 356 605 344 583 c 128,-1,19
 332 561 332 561 321 546 c 2,20,-1
 107 241 l 1,21,-1
 363 241 l 1,22,-1
 363 466 l 2,11,12
EndSplineSet
Substitution2: "'case' Case-Sensitive Forms lookup 40 subtable" digitfour.lf
Substitution2: "'onum' Oldstyle Figures lookup 37 subtable" digitfour.tosf
Substitution2: "'pnum' Proportional Numbers lookup 35 subtable" digitfour.lf
Substitution2: "'frac' Diagonal Fractions lookup 29 subtable" digitfour.numr
Substitution2: "'dnom' Denominators lookup 27 subtable" digitfour.dnom
Substitution2: "'numr' Numerators lookup 26 subtable" digitfour.numr
Substitution2: "'sups' Superscript lookup 25 subtable" superscriptfour
Substitution2: "'sinf' Scientific Inferiors lookup 24 subtable" subscriptfour
Substitution2: "'subs' Subscript lookup 23 subtable" subscriptfour
AlternateSubs2: "'aalt' Access All Alternates lookup 1 subtable" subscriptfour superscriptfour digitfour.numr digitfour.dnom digitfour.lf digitfour.tosf
EndChar

StartChar: digitfive
Encoding: 53 53 24
Width: 572
VWidth: 1000
GlyphClass: 1
Flags: W
LayerCount: 2
Fore
SplineSet
275 438 m 0,0,1
 348 438 348 438 402 413 c 128,-1,2
 456 388 456 388 485.5 341.5 c 128,-1,3
 515 295 515 295 515 228 c 0,4,5
 515 154 515 154 483 100.5 c 128,-1,6
 451 47 451 47 391.5 18.5 c 128,-1,7
 332 -10 332 -10 248 -10 c 0,8,9
 193 -10 193 -10 144.5 0 c 128,-1,10
 96 10 96 10 63 29 c 1,11,-1
 63 112 l 1,12,13
 99 90 99 90 150.5 77.5 c 128,-1,14
 202 65 202 65 249 65 c 0,15,16
 302 65 302 65 341.5 81.5 c 128,-1,17
 381 98 381 98 403 132.5 c 128,-1,18
 425 167 425 167 425 219 c 0,19,20
 425 289 425 289 382 326.5 c 128,-1,21
 339 364 339 364 246 364 c 0,22,23
 218 364 218 364 182 359 c 128,-1,24
 146 354 146 354 124 349 c 1,25,-1
 80 377 l 1,26,-1
 107 714 l 1,27,-1
 465 714 l 1,28,-1
 465 634 l 1,29,-1
 182 634 l 1,30,-1
 165 427 l 1,31,32
 182 430 182 430 211 434 c 128,-1,33
 240 438 240 438 275 438 c 0,0,1
EndSplineSet
Substitution2: "'case' Case-Sensitive Forms lookup 40 subtable" digitfive.lf
Substitution2: "'onum' Oldstyle Figures lookup 37 subtable" digitfive.tosf
Substitution2: "'pnum' Proportional Numbers lookup 35 subtable" digitfive.lf
Substitution2: "'frac' Diagonal Fractions lookup 29 subtable" digitfive.numr
Substitution2: "'dnom' Denominators lookup 27 subtable" digitfive.dnom
Substitution2: "'numr' Numerators lookup 26 subtable" digitfive.numr
Substitution2: "'sups' Superscript lookup 25 subtable" superscriptfive
Substitution2: "'sinf' Scientific Inferiors lookup 24 subtable" subscriptfive
Substitution2: "'subs' Subscript lookup 23 subtable" subscriptfive
AlternateSubs2: "'aalt' Access All Alternates lookup 1 subtable" subscriptfive superscriptfive digitfive.numr digitfive.dnom digitfive.lf digitfive.tosf
EndChar

StartChar: digitsix
Encoding: 54 54 25
Width: 572
VWidth: 1000
GlyphClass: 1
Flags: W
LayerCount: 2
Fore
SplineSet
55 305 m 0,0,1
 55 367 55 367 63.5 427 c 128,-1,2
 72 487 72 487 93 540.5 c 128,-1,3
 114 594 114 594 151 635.5 c 128,-1,4
 188 677 188 677 244.5 700.5 c 128,-1,5
 301 724 301 724 382 724 c 0,6,7
 403 724 403 724 428.5 722 c 128,-1,8
 454 720 454 720 470 715 c 1,9,-1
 470 640 l 1,10,11
 452 646 452 646 429.5 649 c 128,-1,12
 407 652 407 652 384 652 c 0,13,14
 315 652 315 652 269 629 c 128,-1,15
 223 606 223 606 196.5 566 c 128,-1,16
 170 526 170 526 158 474 c 128,-1,17
 146 422 146 422 143 363 c 1,18,-1
 149 363 l 1,19,20
 164 387 164 387 187 406 c 128,-1,21
 210 425 210 425 242.5 436 c 128,-1,22
 275 447 275 447 318 447 c 0,23,24
 380 447 380 447 426.5 421.5 c 128,-1,25
 473 396 473 396 499 347.5 c 128,-1,26
 525 299 525 299 525 230 c 0,27,28
 525 156 525 156 497 102 c 128,-1,29
 469 48 469 48 418.5 19 c 128,-1,30
 368 -10 368 -10 298 -10 c 0,31,32
 247 -10 247 -10 203 9 c 128,-1,33
 159 28 159 28 125.5 67 c 128,-1,34
 92 106 92 106 73.5 165.5 c 128,-1,35
 55 225 55 225 55 305 c 0,0,1
297 64 m 0,36,37
 360 64 360 64 399 104.5 c 128,-1,38
 438 145 438 145 438 230 c 0,39,40
 438 298 438 298 403.5 338 c 128,-1,41
 369 378 369 378 300 378 c 0,42,43
 253 378 253 378 218 358.5 c 128,-1,44
 183 339 183 339 163.5 309 c 128,-1,45
 144 279 144 279 144 247 c 0,46,47
 144 214 144 214 153.5 182 c 128,-1,48
 163 150 163 150 182.5 123 c 128,-1,49
 202 96 202 96 230.5 80 c 128,-1,50
 259 64 259 64 297 64 c 0,36,37
EndSplineSet
Substitution2: "'case' Case-Sensitive Forms lookup 40 subtable" digitsix.lf
Substitution2: "'onum' Oldstyle Figures lookup 37 subtable" digitsix.tosf
Substitution2: "'pnum' Proportional Numbers lookup 35 subtable" digitsix.lf
Substitution2: "'frac' Diagonal Fractions lookup 29 subtable" digitsix.numr
Substitution2: "'dnom' Denominators lookup 27 subtable" digitsix.dnom
Substitution2: "'numr' Numerators lookup 26 subtable" digitsix.numr
Substitution2: "'sups' Superscript lookup 25 subtable" superscriptsix
Substitution2: "'sinf' Scientific Inferiors lookup 24 subtable" subscriptsix
Substitution2: "'subs' Subscript lookup 23 subtable" subscriptsix
AlternateSubs2: "'aalt' Access All Alternates lookup 1 subtable" subscriptsix superscriptsix digitsix.numr digitsix.dnom digitsix.lf digitsix.tosf
EndChar

StartChar: digitseven
Encoding: 55 55 26
Width: 572
VWidth: 1000
GlyphClass: 1
Flags: W
LayerCount: 2
Fore
SplineSet
136 0 m 1,0,-1
 429 634 l 1,1,-1
 44 634 l 1,2,-1
 44 714 l 1,3,-1
 523 714 l 1,4,-1
 523 646 l 1,5,-1
 233 0 l 1,6,-1
 136 0 l 1,0,-1
EndSplineSet
Substitution2: "'case' Case-Sensitive Forms lookup 40 subtable" digitseven.lf
Substitution2: "'onum' Oldstyle Figures lookup 37 subtable" digitseven.tosf
Substitution2: "'pnum' Proportional Numbers lookup 35 subtable" digitseven.lf
Substitution2: "'frac' Diagonal Fractions lookup 29 subtable" digitseven.numr
Substitution2: "'dnom' Denominators lookup 27 subtable" digitseven.dnom
Substitution2: "'numr' Numerators lookup 26 subtable" digitseven.numr
Substitution2: "'sups' Superscript lookup 25 subtable" superscriptseven
Substitution2: "'sinf' Scientific Inferiors lookup 24 subtable" subscriptseven
Substitution2: "'subs' Subscript lookup 23 subtable" subscriptseven
AlternateSubs2: "'aalt' Access All Alternates lookup 1 subtable" subscriptseven superscriptseven digitseven.numr digitseven.dnom digitseven.lf digitseven.tosf
EndChar

StartChar: digiteight
Encoding: 56 56 27
Width: 572
VWidth: 1000
GlyphClass: 1
Flags: W
LayerCount: 2
Fore
SplineSet
285 724 m 0,0,1
 348 724 348 724 396 704.5 c 128,-1,2
 444 685 444 685 471.5 647 c 128,-1,3
 499 609 499 609 499 553 c 0,4,5
 499 510 499 510 480.5 478 c 128,-1,6
 462 446 462 446 431 421.5 c 128,-1,7
 400 397 400 397 363 378 c 1,8,9
 407 357 407 357 443 330.5 c 128,-1,10
 479 304 479 304 500.5 269 c 128,-1,11
 522 234 522 234 522 185 c 0,12,13
 522 125 522 125 493 81.5 c 128,-1,14
 464 38 464 38 411.5 14 c 128,-1,15
 359 -10 359 -10 288 -10 c 0,16,17
 211 -10 211 -10 157.5 13 c 128,-1,18
 104 36 104 36 76.5 78.5 c 128,-1,19
 49 121 49 121 49 182 c 0,20,21
 49 231 49 231 69.5 267 c 128,-1,22
 90 303 90 303 124 329 c 128,-1,23
 158 355 158 355 197 373 c 1,24,25
 162 393 162 393 133.5 418.5 c 128,-1,26
 105 444 105 444 88.5 477 c 128,-1,27
 72 510 72 510 72 554 c 0,28,29
 72 609 72 609 100 646.5 c 128,-1,30
 128 684 128 684 176 704 c 128,-1,31
 224 724 224 724 285 724 c 0,0,1
135 181 m 0,32,33
 135 129 135 129 172 94.5 c 128,-1,34
 209 60 209 60 286 60 c 0,35,36
 359 60 359 60 397.5 94.5 c 128,-1,37
 436 129 436 129 436 184 c 0,38,39
 436 219 436 219 417.5 245.5 c 128,-1,40
 399 272 399 272 365.5 293 c 128,-1,41
 332 314 332 314 286 331 c 2,42,-1
 270 337 l 1,43,44
 226 318 226 318 196 296 c 128,-1,45
 166 274 166 274 150.5 246 c 128,-1,46
 135 218 135 218 135 181 c 0,32,33
284 653 m 0,47,48
 229 653 229 653 193.5 626.5 c 128,-1,49
 158 600 158 600 158 550 c 0,50,51
 158 513 158 513 175.5 488 c 128,-1,52
 193 463 193 463 223 445.5 c 128,-1,53
 253 428 253 428 289 412 c 1,54,55
 324 427 324 427 351.5 445 c 128,-1,56
 379 463 379 463 395.5 488.5 c 128,-1,57
 412 514 412 514 412 550 c 0,58,59
 412 600 412 600 377 626.5 c 128,-1,60
 342 653 342 653 284 653 c 0,47,48
EndSplineSet
Substitution2: "'case' Case-Sensitive Forms lookup 40 subtable" digiteight.lf
Substitution2: "'onum' Oldstyle Figures lookup 37 subtable" digiteight.tosf
Substitution2: "'pnum' Proportional Numbers lookup 35 subtable" digiteight.lf
Substitution2: "'frac' Diagonal Fractions lookup 29 subtable" digiteight.numr
Substitution2: "'dnom' Denominators lookup 27 subtable" digiteight.dnom
Substitution2: "'numr' Numerators lookup 26 subtable" digiteight.numr
Substitution2: "'sups' Superscript lookup 25 subtable" superscripteight
Substitution2: "'sinf' Scientific Inferiors lookup 24 subtable" subscripteight
Substitution2: "'subs' Subscript lookup 23 subtable" subscripteight
AlternateSubs2: "'aalt' Access All Alternates lookup 1 subtable" subscripteight superscripteight digiteight.numr digiteight.dnom digiteight.lf digiteight.tosf
EndChar

StartChar: digitnine
Encoding: 57 57 28
Width: 572
VWidth: 1000
GlyphClass: 1
Flags: W
LayerCount: 2
Fore
SplineSet
520 409 m 0,0,1
 520 348 520 348 511.5 287.5 c 128,-1,2
 503 227 503 227 482 173.5 c 128,-1,3
 461 120 461 120 424 78.5 c 128,-1,4
 387 37 387 37 330 13.5 c 128,-1,5
 273 -10 273 -10 192 -10 c 0,6,7
 172 -10 172 -10 145.5 -7.5 c 128,-1,8
 119 -5 119 -5 102 0 c 1,9,-1
 102 75 l 1,10,11
 120 69 120 69 144 65.5 c 128,-1,12
 168 62 168 62 190 62 c 0,13,14
 260 62 260 62 305.5 85 c 128,-1,15
 351 108 351 108 378 147.5 c 128,-1,16
 405 187 405 187 417 239.5 c 128,-1,17
 429 292 429 292 431 350 c 1,18,-1
 425 350 l 1,19,20
 410 327 410 327 387 308 c 128,-1,21
 364 289 364 289 331.5 278 c 128,-1,22
 299 267 299 267 255 267 c 0,23,24
 194 267 194 267 147.5 292.5 c 128,-1,25
 101 318 101 318 75.5 366 c 128,-1,26
 50 414 50 414 50 483 c 0,27,28
 50 558 50 558 78.5 612 c 128,-1,29
 107 666 107 666 158 695 c 128,-1,30
 209 724 209 724 278 724 c 0,31,32
 329 724 329 724 373 704.5 c 128,-1,33
 417 685 417 685 450 646 c 128,-1,34
 483 607 483 607 501.5 548 c 128,-1,35
 520 489 520 489 520 409 c 0,0,1
278 650 m 0,36,37
 216 650 216 650 176.5 609 c 128,-1,38
 137 568 137 568 137 484 c 0,39,40
 137 415 137 415 170.5 375.5 c 128,-1,41
 204 336 204 336 274 336 c 0,42,43
 322 336 322 336 357 355.5 c 128,-1,44
 392 375 392 375 411.5 405 c 128,-1,45
 431 435 431 435 431 467 c 256,46,47
 431 499 431 499 421.5 531.5 c 128,-1,48
 412 564 412 564 393 591 c 128,-1,49
 374 618 374 618 345 634 c 128,-1,50
 316 650 316 650 278 650 c 0,36,37
EndSplineSet
Substitution2: "'case' Case-Sensitive Forms lookup 40 subtable" digitnine.lf
Substitution2: "'onum' Oldstyle Figures lookup 37 subtable" digitnine.tosf
Substitution2: "'pnum' Proportional Numbers lookup 35 subtable" digitnine.lf
Substitution2: "'frac' Diagonal Fractions lookup 29 subtable" digitnine.numr
Substitution2: "'dnom' Denominators lookup 27 subtable" digitnine.dnom
Substitution2: "'numr' Numerators lookup 26 subtable" digitnine.numr
Substitution2: "'sups' Superscript lookup 25 subtable" superscriptnine
Substitution2: "'sinf' Scientific Inferiors lookup 24 subtable" subscriptnine
Substitution2: "'subs' Subscript lookup 23 subtable" subscriptnine
AlternateSubs2: "'aalt' Access All Alternates lookup 1 subtable" subscriptnine superscriptnine digitnine.numr digitnine.dnom digitnine.lf digitnine.tosf
EndChar

StartChar: colon
Encoding: 58 58 29
Width: 268
VWidth: 1000
GlyphClass: 1
Flags: W
LayerCount: 2
Fore
SplineSet
72 54 m 0,0,1
 72 91 72 91 90 106 c 128,-1,2
 108 121 108 121 133 121 c 0,3,4
 159 121 159 121 177.5 106 c 128,-1,5
 196 91 196 91 196 54 c 0,6,7
 196 18 196 18 177.5 2 c 128,-1,8
 159 -14 159 -14 133 -14 c 0,9,10
 108 -14 108 -14 90 2 c 128,-1,11
 72 18 72 18 72 54 c 0,0,1
72 482 m 0,12,13
 72 520 72 520 90 535 c 128,-1,14
 108 550 108 550 133 550 c 0,15,16
 159 550 159 550 177.5 535 c 128,-1,17
 196 520 196 520 196 482 c 0,18,19
 196 446 196 446 177.5 430 c 128,-1,20
 159 414 159 414 133 414 c 0,21,22
 108 414 108 414 90 430 c 128,-1,23
 72 446 72 446 72 482 c 0,12,13
EndSplineSet
EndChar

StartChar: semicolon
Encoding: 59 59 30
Width: 268
VWidth: 1000
GlyphClass: 1
Flags: W
LayerCount: 2
Fore
SplineSet
183 105 m 1,0,1
 174 70 174 70 160 29 c 128,-1,2
 146 -12 146 -12 129.5 -52.5 c 128,-1,3
 113 -93 113 -93 97 -129 c 1,4,-1
 31 -129 l 1,5,6
 38 -101 38 -101 45.5 -69 c 128,-1,7
 53 -37 53 -37 60 -4.5 c 128,-1,8
 67 28 67 28 72.5 59 c 128,-1,9
 78 90 78 90 82 116 c 1,10,-1
 176 116 l 1,11,-1
 183 105 l 1,0,1
70 482 m 0,12,13
 70 520 70 520 88 535 c 128,-1,14
 106 550 106 550 131 550 c 0,15,16
 157 550 157 550 175.5 535 c 128,-1,17
 194 520 194 520 194 482 c 0,18,19
 194 446 194 446 175.5 430 c 128,-1,20
 157 414 157 414 131 414 c 0,21,22
 106 414 106 414 88 430 c 128,-1,23
 70 446 70 446 70 482 c 0,12,13
EndSplineSet
EndChar

StartChar: lt
Encoding: 60 60 31
Width: 572
VWidth: 1000
GlyphClass: 2
Flags: W
AnchorPoint: "Middle" 286 362 basechar 0
LayerCount: 2
Fore
SplineSet
521 116 m 1,0,-1
 50 323 l 1,1,-1
 50 373 l 1,2,-1
 521 608 l 1,3,-1
 521 530 l 1,4,-1
 144 352 l 1,5,-1
 521 194 l 1,6,-1
 521 116 l 1,0,-1
EndSplineSet
EndChar

StartChar: equals
Encoding: 61 61 32
Width: 572
VWidth: 1000
GlyphClass: 2
Flags: W
AnchorPoint: "Middle" 286 352 basechar 0
LayerCount: 2
Fore
SplineSet
56 416 m 1,0,-1
 56 487 l 1,1,-1
 514 487 l 1,2,-1
 514 416 l 1,3,-1
 56 416 l 1,0,-1
56 217 m 1,4,-1
 56 288 l 1,5,-1
 514 288 l 1,6,-1
 514 217 l 1,7,-1
 56 217 l 1,4,-1
EndSplineSet
Substitution2: "'sups' Superscript lookup 25 subtable" superscriptequals
Substitution2: "'sinf' Scientific Inferiors lookup 24 subtable" subscriptequals
Substitution2: "'subs' Subscript lookup 23 subtable" subscriptequals
AlternateSubs2: "'aalt' Access All Alternates lookup 1 subtable" subscriptequals superscriptequals
EndChar

StartChar: gt
Encoding: 62 62 33
Width: 572
VWidth: 1000
GlyphClass: 2
Flags: W
AnchorPoint: "Middle" 286 362 basechar 0
LayerCount: 2
Fore
SplineSet
50 194 m 1,0,-1
 427 351 l 1,1,-1
 50 530 l 1,2,-1
 50 608 l 1,3,-1
 521 373 l 1,4,-1
 521 323 l 1,5,-1
 50 116 l 1,6,-1
 50 194 l 1,0,-1
EndSplineSet
EndChar

StartChar: question
Encoding: 63 63 34
Width: 434
VWidth: 1000
GlyphClass: 1
Flags: W
LayerCount: 2
Fore
SplineSet
140 228 m 2,0,1
 140 266 140 266 147.5 293.5 c 128,-1,2
 155 321 155 321 173.5 346 c 128,-1,3
 192 371 192 371 224 398 c 0,4,5
 263 431 263 431 284.5 453 c 128,-1,6
 306 475 306 475 315 496 c 128,-1,7
 324 517 324 517 324 547 c 0,8,9
 324 595 324 595 293 621 c 128,-1,10
 262 647 262 647 203 647 c 0,11,12
 154 647 154 647 116 634.5 c 128,-1,13
 78 622 78 622 43 605 c 1,14,-1
 12 675 l 1,15,16
 52 696 52 696 100.5 710 c 128,-1,17
 149 724 149 724 209 724 c 0,18,19
 304 724 304 724 356 677 c 128,-1,20
 408 630 408 630 408 549 c 0,21,22
 408 504 408 504 393.5 472.5 c 128,-1,23
 379 441 379 441 352.5 414.5 c 128,-1,24
 326 388 326 388 290 358 c 0,25,26
 257 330 257 330 239.5 309 c 128,-1,27
 222 288 222 288 216 267.5 c 128,-1,28
 210 247 210 247 210 218 c 2,29,-1
 210 201 l 1,30,-1
 140 201 l 1,31,-1
 140 228 l 2,0,1
117 54 m 0,32,33
 117 91 117 91 134.5 106 c 128,-1,34
 152 121 152 121 179 121 c 0,35,36
 204 121 204 121 222 106 c 128,-1,37
 240 91 240 91 240 54 c 0,38,39
 240 18 240 18 222 2 c 128,-1,40
 204 -14 204 -14 179 -14 c 0,41,42
 152 -14 152 -14 134.5 2 c 128,-1,43
 117 18 117 18 117 54 c 0,32,33
EndSplineSet
Substitution2: "'smcp' Lowercase to Small Capitals lookup 39 subtable" question.sc
Substitution2: "'c2sc' Capitals to Small Capitals lookup 38 subtable" question.sc
Substitution2: "'aalt' Access All Alternates lookup 0 subtable" question.sc
EndChar

StartChar: at
Encoding: 64 64 35
Width: 899
VWidth: 1000
GlyphClass: 1
Flags: W
LayerCount: 2
Fore
SplineSet
841 357 m 0,0,1
 841 311 841 311 830.5 267 c 128,-1,2
 820 223 820 223 798 187.5 c 128,-1,3
 776 152 776 152 744 130.5 c 128,-1,4
 712 109 712 109 668 109 c 0,5,6
 622 109 622 109 595.5 135.5 c 128,-1,7
 569 162 569 162 563 196 c 1,8,-1
 558 196 l 1,9,10
 540 159 540 159 505 134 c 128,-1,11
 470 109 470 109 417 109 c 0,12,13
 341 109 341 109 299.5 160 c 128,-1,14
 258 211 258 211 258 295 c 0,15,16
 258 361 258 361 284 411.5 c 128,-1,17
 310 462 310 462 357.5 491 c 128,-1,18
 405 520 405 520 470 520 c 0,19,20
 514 520 514 520 556.5 512.5 c 128,-1,21
 599 505 599 505 623 496 c 1,22,-1
 613 293 l 2,23,24
 612 275 612 275 612 267.5 c 128,-1,25
 612 260 612 260 612 257 c 0,26,27
 612 205 612 205 630.5 188 c 128,-1,28
 649 171 649 171 674 171 c 0,29,30
 705 171 705 171 726.5 196.5 c 128,-1,31
 748 222 748 222 759.5 264.5 c 128,-1,32
 771 307 771 307 771 358 c 0,33,34
 771 451 771 451 733.5 515.5 c 128,-1,35
 696 580 696 580 630.5 614 c 128,-1,36
 565 648 565 648 482 648 c 0,37,38
 397 648 397 648 331 621 c 128,-1,39
 265 594 265 594 220.5 545 c 128,-1,40
 176 496 176 496 153 429.5 c 128,-1,41
 130 363 130 363 130 283 c 0,42,43
 130 185 130 185 165 116.5 c 128,-1,44
 200 48 200 48 267.5 12.5 c 128,-1,45
 335 -23 335 -23 433 -23 c 0,46,47
 494 -23 494 -23 549.5 -9.5 c 128,-1,48
 605 4 605 4 648 20 c 1,49,-1
 648 -48 l 1,50,51
 605 -66 605 -66 551.5 -77.5 c 128,-1,52
 498 -89 498 -89 433 -89 c 0,53,54
 315 -89 315 -89 231 -45 c 128,-1,55
 147 -1 147 -1 102.5 81.5 c 128,-1,56
 58 164 58 164 58 280 c 0,57,58
 58 373 58 373 87 452.5 c 128,-1,59
 116 532 116 532 171 590.5 c 128,-1,60
 226 649 226 649 304.5 681.5 c 128,-1,61
 383 714 383 714 482 714 c 0,62,63
 560 714 560 714 625.5 689.5 c 128,-1,64
 691 665 691 665 739.5 618.5 c 128,-1,65
 788 572 788 572 814.5 506 c 128,-1,66
 841 440 841 440 841 357 c 0,0,1
336 293 m 0,67,68
 336 229 336 229 361.5 200 c 128,-1,69
 387 171 387 171 430 171 c 0,70,71
 486 171 486 171 510.5 213 c 128,-1,72
 535 255 535 255 539 322 c 2,73,-1
 545 447 l 1,74,75
 532 451 532 451 512 454 c 128,-1,76
 492 457 492 457 471 457 c 0,77,78
 422 457 422 457 392 433 c 128,-1,79
 362 409 362 409 349 371.5 c 128,-1,80
 336 334 336 334 336 293 c 0,67,68
EndSplineSet
EndChar

StartChar: A
Encoding: 65 65 36
Width: 639
VWidth: 1000
GlyphClass: 2
Flags: W
AnchorPoint: "NECorner" 519 714 basechar 0
AnchorPoint: "Top" 318 714 basechar 0
AnchorPoint: "Middle" 319 358 basechar 0
AnchorPoint: "Bottom" 324 0 basechar 0
LayerCount: 2
Fore
SplineSet
545 0 m 1,0,-1
 459 221 l 1,1,-1
 176 221 l 1,2,-1
 91 0 l 1,3,-1
 0 0 l 1,4,-1
 279 717 l 1,5,-1
 360 717 l 1,6,-1
 638 0 l 1,7,-1
 545 0 l 1,0,-1
352 517 m 2,8,9
 349 525 349 525 342 546 c 128,-1,10
 335 567 335 567 328.5 589.5 c 128,-1,11
 322 612 322 612 318 624 c 1,12,13
 313 604 313 604 307.5 583.5 c 128,-1,14
 302 563 302 563 296.5 546 c 128,-1,15
 291 529 291 529 287 517 c 2,16,-1
 206 301 l 1,17,-1
 432 301 l 1,18,-1
 352 517 l 2,8,9
EndSplineSet
Substitution2: "'c2sc' Capitals to Small Capitals lookup 38 subtable" a.sc
Substitution2: "Single Substitution lookup 33 subtable" feminineordinalindicator
AlternateSubs2: "'aalt' Access All Alternates lookup 1 subtable" feminineordinalindicator a.sc
EndChar

StartChar: B
Encoding: 66 66 37
Width: 650
VWidth: 1000
GlyphClass: 2
Flags: W
AnchorPoint: "NECorner" 630 714 basechar 0
AnchorPoint: "Top" 322 714 basechar 0
AnchorPoint: "Middle" 346 357 basechar 0
AnchorPoint: "Bottom" 315 0 basechar 0
LayerCount: 2
Fore
SplineSet
301 714 m 2,0,1
 435 714 435 714 503.5 674.5 c 128,-1,2
 572 635 572 635 572 537 c 0,3,4
 572 495 572 495 556.5 462.5 c 128,-1,5
 541 430 541 430 510.5 408.5 c 128,-1,6
 480 387 480 387 436 379 c 1,7,-1
 436 374 l 1,8,9
 481 367 481 367 517.5 348 c 128,-1,10
 554 329 554 329 575 294 c 128,-1,11
 596 259 596 259 596 203 c 0,12,13
 596 138 596 138 566 92.5 c 128,-1,14
 536 47 536 47 480.5 23.5 c 128,-1,15
 425 0 425 0 348 0 c 2,16,-1
 97 0 l 1,17,-1
 97 714 l 1,18,-1
 301 714 l 2,0,1
319 410 m 2,19,20
 411 410 411 410 445 439.5 c 128,-1,21
 479 469 479 469 479 527 c 0,22,23
 479 586 479 586 437.5 611.5 c 128,-1,24
 396 637 396 637 305 637 c 2,25,-1
 187 637 l 1,26,-1
 187 410 l 1,27,-1
 319 410 l 2,19,20
187 335 m 1,28,-1
 187 76 l 1,29,-1
 331 76 l 2,30,31
 426 76 426 76 463 113 c 128,-1,32
 500 150 500 150 500 210 c 0,33,34
 500 248 500 248 483.5 276 c 128,-1,35
 467 304 467 304 428.5 319.5 c 128,-1,36
 390 335 390 335 324 335 c 2,37,-1
 187 335 l 1,28,-1
EndSplineSet
Substitution2: "'c2sc' Capitals to Small Capitals lookup 38 subtable" b.sc
Substitution2: "'aalt' Access All Alternates lookup 0 subtable" b.sc
EndChar

StartChar: C
Encoding: 67 67 38
Width: 632
VWidth: 1000
GlyphClass: 2
Flags: W
AnchorPoint: "NECorner" 612 714 basechar 0
AnchorPoint: "Top" 380 714 basechar 0
AnchorPoint: "Middle" 331 357 basechar 0
AnchorPoint: "Bottom" 372 0 basechar 0
LayerCount: 2
Fore
SplineSet
403 645 m 0,0,1
 346 645 346 645 300 625.5 c 128,-1,2
 254 606 254 606 222 568.5 c 128,-1,3
 190 531 190 531 173 477.5 c 128,-1,4
 156 424 156 424 156 357 c 0,5,6
 156 269 156 269 183.5 204 c 128,-1,7
 211 139 211 139 265.5 104 c 128,-1,8
 320 69 320 69 402 69 c 0,9,10
 449 69 449 69 491 77 c 128,-1,11
 533 85 533 85 573 97 c 1,12,-1
 573 19 l 1,13,14
 533 4 533 4 490.5 -3 c 128,-1,15
 448 -10 448 -10 389 -10 c 0,16,17
 280 -10 280 -10 207 35 c 128,-1,18
 134 80 134 80 97.5 163 c 128,-1,19
 61 246 61 246 61 358 c 0,20,21
 61 439 61 439 83.5 506 c 128,-1,22
 106 573 106 573 149.5 622 c 128,-1,23
 193 671 193 671 257 697.5 c 128,-1,24
 321 724 321 724 404 724 c 0,25,26
 459 724 459 724 510 713 c 128,-1,27
 561 702 561 702 601 682 c 1,28,-1
 565 606 l 1,29,30
 532 621 532 621 491.5 633 c 128,-1,31
 451 645 451 645 403 645 c 0,0,1
EndSplineSet
Substitution2: "'c2sc' Capitals to Small Capitals lookup 38 subtable" c.sc
Substitution2: "'aalt' Access All Alternates lookup 0 subtable" c.sc
EndChar

StartChar: D
Encoding: 68 68 39
Width: 730
VWidth: 1000
GlyphClass: 2
Flags: W
AnchorPoint: "NECorner" 710 714 basechar 0
AnchorPoint: "Top" 361 714 basechar 0
AnchorPoint: "Middle" 365 357 basechar 0
AnchorPoint: "Bottom" 342 0 basechar 0
LayerCount: 2
Fore
SplineSet
669 364 m 0,0,1
 669 244 669 244 624.5 163 c 128,-1,2
 580 82 580 82 497 41 c 128,-1,3
 414 0 414 0 296 0 c 2,4,-1
 97 0 l 1,5,-1
 97 714 l 1,6,-1
 317 714 l 2,7,8
 425 714 425 714 504 674 c 128,-1,9
 583 634 583 634 626 556.5 c 128,-1,10
 669 479 669 479 669 364 c 0,0,1
574 361 m 0,11,12
 574 456 574 456 542.5 517 c 128,-1,13
 511 578 511 578 450.5 607.5 c 128,-1,14
 390 637 390 637 304 637 c 2,15,-1
 187 637 l 1,16,-1
 187 77 l 1,17,-1
 284 77 l 2,18,19
 429 77 429 77 501.5 148.5 c 128,-1,20
 574 220 574 220 574 361 c 0,11,12
EndSplineSet
Substitution2: "'c2sc' Capitals to Small Capitals lookup 38 subtable" d.sc
Substitution2: "'aalt' Access All Alternates lookup 0 subtable" d.sc
EndChar

StartChar: E
Encoding: 69 69 40
Width: 556
VWidth: 1000
GlyphClass: 2
Flags: W
AnchorPoint: "NECorner" 536 714 basechar 0
AnchorPoint: "Top" 305 714 basechar 0
AnchorPoint: "Middle" 296 357 basechar 0
AnchorPoint: "Bottom" 300 0 basechar 0
LayerCount: 2
Fore
SplineSet
496 0 m 1,0,-1
 97 0 l 1,1,-1
 97 714 l 1,2,-1
 496 714 l 1,3,-1
 496 635 l 1,4,-1
 187 635 l 1,5,-1
 187 412 l 1,6,-1
 478 412 l 1,7,-1
 478 334 l 1,8,-1
 187 334 l 1,9,-1
 187 79 l 1,10,-1
 496 79 l 1,11,-1
 496 0 l 1,0,-1
EndSplineSet
Substitution2: "'c2sc' Capitals to Small Capitals lookup 38 subtable" e.sc
Substitution2: "'aalt' Access All Alternates lookup 0 subtable" e.sc
EndChar

StartChar: F
Encoding: 70 70 41
Width: 519
VWidth: 1000
GlyphClass: 2
Flags: W
AnchorPoint: "NECorner" 499 714 basechar 0
AnchorPoint: "Top" 298 714 basechar 0
AnchorPoint: "Middle" 296 357 basechar 0
AnchorPoint: "Bottom" 260 0 basechar 0
LayerCount: 2
Fore
SplineSet
187 0 m 1,0,-1
 97 0 l 1,1,-1
 97 714 l 1,2,-1
 496 714 l 1,3,-1
 496 635 l 1,4,-1
 187 635 l 1,5,-1
 187 382 l 1,6,-1
 477 382 l 1,7,-1
 477 303 l 1,8,-1
 187 303 l 1,9,-1
 187 0 l 1,0,-1
EndSplineSet
Substitution2: "'c2sc' Capitals to Small Capitals lookup 38 subtable" f.sc
Substitution2: "'aalt' Access All Alternates lookup 0 subtable" f.sc
EndChar

StartChar: G
Encoding: 71 71 42
Width: 728
VWidth: 1000
GlyphClass: 2
Flags: W
AnchorPoint: "NECorner" 708 714 basechar 0
AnchorPoint: "Top" 405 714 basechar 0
AnchorPoint: "Middle" 357 357 basechar 0
AnchorPoint: "Bottom" 402 0 basechar 0
LayerCount: 2
Fore
SplineSet
407 377 m 1,0,-1
 654 377 l 1,1,-1
 654 27 l 1,2,3
 596 8 596 8 537 -1 c 128,-1,4
 478 -10 478 -10 403 -10 c 0,5,6
 292 -10 292 -10 216 34.5 c 128,-1,7
 140 79 140 79 100.5 161.5 c 128,-1,8
 61 244 61 244 61 357 c 0,9,10
 61 469 61 469 105 551 c 128,-1,11
 149 633 149 633 231.5 678.5 c 128,-1,12
 314 724 314 724 431 724 c 0,13,14
 491 724 491 724 544.5 713 c 128,-1,15
 598 702 598 702 644 682 c 1,16,-1
 610 604 l 1,17,18
 572 621 572 621 524.5 633 c 128,-1,19
 477 645 477 645 426 645 c 0,20,21
 341 645 341 645 280 610 c 128,-1,22
 219 575 219 575 187 510.5 c 128,-1,23
 155 446 155 446 155 357 c 0,24,25
 155 272 155 272 182.5 206.5 c 128,-1,26
 210 141 210 141 269 104.5 c 128,-1,27
 328 68 328 68 424 68 c 0,28,29
 471 68 471 68 504 73 c 128,-1,30
 537 78 537 78 564 85 c 1,31,-1
 564 297 l 1,32,-1
 407 297 l 1,33,-1
 407 377 l 1,0,-1
EndSplineSet
Substitution2: "'c2sc' Capitals to Small Capitals lookup 38 subtable" g.sc
Substitution2: "'aalt' Access All Alternates lookup 0 subtable" g.sc
EndChar

StartChar: H
Encoding: 72 72 43
Width: 741
VWidth: 1000
GlyphClass: 2
Flags: W
AnchorPoint: "NECorner" 721 714 basechar 0
AnchorPoint: "Top" 371 714 basechar 0
AnchorPoint: "Middle" 371 357 basechar 0
AnchorPoint: "Bottom" 368 0 basechar 0
LayerCount: 2
Fore
SplineSet
643 0 m 1,0,-1
 553 0 l 1,1,-1
 553 333 l 1,2,-1
 187 333 l 1,3,-1
 187 0 l 1,4,-1
 97 0 l 1,5,-1
 97 714 l 1,6,-1
 187 714 l 1,7,-1
 187 412 l 1,8,-1
 553 412 l 1,9,-1
 553 714 l 1,10,-1
 643 714 l 1,11,-1
 643 0 l 1,0,-1
EndSplineSet
Substitution2: "'c2sc' Capitals to Small Capitals lookup 38 subtable" h.sc
Substitution2: "'aalt' Access All Alternates lookup 0 subtable" h.sc
EndChar

StartChar: I
Encoding: 73 73 44
Width: 339
VWidth: 1000
GlyphClass: 2
Flags: W
AnchorPoint: "NECorner" 319 714 basechar 0
AnchorPoint: "Top" 170 714 basechar 0
AnchorPoint: "Middle" 169 357 basechar 0
AnchorPoint: "Bottom" 170 0 basechar 0
LayerCount: 2
Fore
SplineSet
298 0 m 1,0,-1
 40 0 l 1,1,-1
 40 52 l 1,2,-1
 124 71 l 1,3,-1
 124 642 l 1,4,-1
 40 662 l 1,5,-1
 40 714 l 1,6,-1
 298 714 l 1,7,-1
 298 662 l 1,8,-1
 214 642 l 1,9,-1
 214 71 l 1,10,-1
 298 52 l 1,11,-1
 298 0 l 1,0,-1
EndSplineSet
Substitution2: "'ss04' Style Set 4 lookup 45 subtable" I.salt
Substitution2: "'c2sc' Capitals to Small Capitals lookup 38 subtable" i.sc
AlternateSubs2: "'aalt' Access All Alternates lookup 1 subtable" i.sc I.salt
EndChar

StartChar: J
Encoding: 74 74 45
Width: 273
VWidth: 1000
GlyphClass: 2
Flags: W
AnchorPoint: "NECorner" 253 714 basechar 0
AnchorPoint: "Top" 137 714 basechar 0
AnchorPoint: "Middle" 52 262 basechar 0
AnchorPoint: "Bottom" -4 -170 basechar 0
LayerCount: 2
Fore
SplineSet
-4 -190 m 0,0,1
 -28 -190 -28 -190 -46 -186.5 c 128,-1,2
 -64 -183 -64 -183 -78 -177 c 1,3,-1
 -78 -101 l 1,4,5
 -62 -105 -62 -105 -44 -108 c 128,-1,6
 -26 -111 -26 -111 -6 -111 c 0,7,8
 19 -111 19 -111 41.5 -101 c 128,-1,9
 64 -91 64 -91 78 -66 c 128,-1,10
 92 -41 92 -41 92 4 c 2,11,-1
 92 714 l 1,12,-1
 182 714 l 1,13,-1
 182 11 l 2,14,15
 182 -58 182 -58 159 -102.5 c 128,-1,16
 136 -147 136 -147 94 -168.5 c 128,-1,17
 52 -190 52 -190 -4 -190 c 0,0,1
EndSplineSet
Substitution2: "'ss04' Style Set 4 lookup 45 subtable" J.salt
Substitution2: "'c2sc' Capitals to Small Capitals lookup 38 subtable" j.sc
AlternateSubs2: "'aalt' Access All Alternates lookup 1 subtable" j.sc J.salt
EndChar

StartChar: K
Encoding: 75 75 46
Width: 619
VWidth: 1000
GlyphClass: 2
Flags: W
AnchorPoint: "NECorner" 599 714 basechar 0
AnchorPoint: "Top" 340 714 basechar 0
AnchorPoint: "Middle" 358 357 basechar 0
AnchorPoint: "Bottom" 330 0 basechar 0
LayerCount: 2
Fore
SplineSet
619 0 m 1,0,-1
 513 0 l 1,1,-1
 260 341 l 1,2,-1
 187 277 l 1,3,-1
 187 0 l 1,4,-1
 97 0 l 1,5,-1
 97 714 l 1,6,-1
 187 714 l 1,7,-1
 187 362 l 1,8,9
 217 396 217 396 248 430 c 128,-1,10
 279 464 279 464 310 498 c 2,11,-1
 503 714 l 1,12,-1
 608 714 l 1,13,-1
 325 403 l 1,14,-1
 619 0 l 1,0,-1
EndSplineSet
Substitution2: "'c2sc' Capitals to Small Capitals lookup 38 subtable" k.sc
Substitution2: "'aalt' Access All Alternates lookup 0 subtable" k.sc
EndChar

StartChar: L
Encoding: 76 76 47
Width: 524
VWidth: 1000
GlyphClass: 2
Flags: W
AnchorPoint: "NECorner" 364 714 basechar 0
AnchorPoint: "Top" 140 714 basechar 0
AnchorPoint: "Middle" 262 357 basechar 0
AnchorPoint: "Bottom" 300 0 basechar 0
LayerCount: 2
Fore
SplineSet
97 0 m 1,0,-1
 97 714 l 1,1,-1
 187 714 l 1,2,-1
 187 80 l 1,3,-1
 499 80 l 1,4,-1
 499 0 l 1,5,-1
 97 0 l 1,0,-1
EndSplineSet
Substitution2: "'c2sc' Capitals to Small Capitals lookup 38 subtable" l.sc
Substitution2: "'aalt' Access All Alternates lookup 0 subtable" l.sc
EndChar

StartChar: M
Encoding: 77 77 48
Width: 907
VWidth: 1000
GlyphClass: 2
Flags: W
AnchorPoint: "NECorner" 887 714 basechar 0
AnchorPoint: "Top" 454 714 basechar 0
AnchorPoint: "Middle" 453 357 basechar 0
AnchorPoint: "Bottom" 448 0 basechar 0
LayerCount: 2
Fore
SplineSet
412 0 m 1,0,-1
 177 626 l 1,1,-1
 173 626 l 1,2,3
 175 606 175 606 176.5 575 c 128,-1,4
 178 544 178 544 179 507.5 c 128,-1,5
 180 471 180 471 180 433 c 2,6,-1
 180 0 l 1,7,-1
 97 0 l 1,8,-1
 97 714 l 1,9,-1
 230 714 l 1,10,-1
 450 129 l 1,11,-1
 454 129 l 1,12,-1
 678 714 l 1,13,-1
 810 714 l 1,14,-1
 810 0 l 1,15,-1
 721 0 l 1,16,-1
 721 439 l 2,17,18
 721 474 721 474 722 508.5 c 128,-1,19
 723 543 723 543 725 573.5 c 128,-1,20
 727 604 727 604 728 625 c 1,21,-1
 724 625 l 1,22,-1
 486 0 l 1,23,-1
 412 0 l 1,0,-1
EndSplineSet
Substitution2: "'c2sc' Capitals to Small Capitals lookup 38 subtable" m.sc
Substitution2: "'aalt' Access All Alternates lookup 0 subtable" m.sc
EndChar

StartChar: N
Encoding: 78 78 49
Width: 760
VWidth: 1000
GlyphClass: 2
Flags: W
AnchorPoint: "NECorner" 740 714 basechar 0
AnchorPoint: "Top" 380 714 basechar 0
AnchorPoint: "Middle" 380 357 basechar 0
AnchorPoint: "Bottom" 380 0 basechar 0
LayerCount: 2
Fore
SplineSet
663 0 m 1,0,-1
 558 0 l 1,1,-1
 176 593 l 1,2,-1
 172 593 l 1,3,4
 174 570 174 570 175.5 538.5 c 128,-1,5
 177 507 177 507 178.5 471.5 c 128,-1,6
 180 436 180 436 180 399 c 2,7,-1
 180 0 l 1,8,-1
 97 0 l 1,9,-1
 97 714 l 1,10,-1
 201 714 l 1,11,-1
 582 123 l 1,12,-1
 586 123 l 1,13,14
 585 139 585 139 583.5 171 c 128,-1,15
 582 203 582 203 580.5 241 c 128,-1,16
 579 279 579 279 579 311 c 2,17,-1
 579 714 l 1,18,-1
 663 714 l 1,19,-1
 663 0 l 1,0,-1
EndSplineSet
Substitution2: "'c2sc' Capitals to Small Capitals lookup 38 subtable" n.sc
Substitution2: "'aalt' Access All Alternates lookup 0 subtable" n.sc
EndChar

StartChar: O
Encoding: 79 79 50
Width: 781
VWidth: 1000
GlyphClass: 2
Flags: W
AnchorPoint: "NECorner" 761 714 basechar 0
AnchorPoint: "Top" 391 714 basechar 0
AnchorPoint: "Middle" 391 357 basechar 0
AnchorPoint: "Bottom" 392 0 basechar 0
LayerCount: 2
Fore
SplineSet
720 358 m 0,0,1
 720 275 720 275 699 207.5 c 128,-1,2
 678 140 678 140 636.5 91 c 128,-1,3
 595 42 595 42 533.5 16 c 128,-1,4
 472 -10 472 -10 391 -10 c 0,5,6
 307 -10 307 -10 245 16.5 c 128,-1,7
 183 43 183 43 142 91.5 c 128,-1,8
 101 140 101 140 81 208 c 128,-1,9
 61 276 61 276 61 359 c 0,10,11
 61 469 61 469 97 551 c 128,-1,12
 133 633 133 633 206.5 679 c 128,-1,13
 280 725 280 725 392 725 c 0,14,15
 499 725 499 725 572 679.5 c 128,-1,16
 645 634 645 634 682.5 551.5 c 128,-1,17
 720 469 720 469 720 358 c 0,0,1
156 358 m 256,18,19
 156 268 156 268 181 203 c 128,-1,20
 206 138 206 138 258.5 103 c 128,-1,21
 311 68 311 68 391 68 c 0,22,23
 472 68 472 68 523.5 103 c 128,-1,24
 575 138 575 138 600 203 c 128,-1,25
 625 268 625 268 625 358 c 0,26,27
 625 493 625 493 569 569.5 c 128,-1,28
 513 646 513 646 392 646 c 0,29,30
 311 646 311 646 258.5 611.5 c 128,-1,31
 206 577 206 577 181 512.5 c 128,-1,32
 156 448 156 448 156 358 c 256,18,19
EndSplineSet
Substitution2: "'c2sc' Capitals to Small Capitals lookup 38 subtable" o.sc
Substitution2: "Single Substitution lookup 33 subtable" masculineordinalindicator
AlternateSubs2: "'aalt' Access All Alternates lookup 1 subtable" masculineordinalindicator o.sc
EndChar

StartChar: P
Encoding: 80 80 51
Width: 605
VWidth: 1000
GlyphClass: 2
Flags: W
AnchorPoint: "NECorner" 585 714 basechar 0
AnchorPoint: "Top" 317 714 basechar 0
AnchorPoint: "Middle" 325 357 basechar 0
AnchorPoint: "Bottom" 303 0 basechar 0
LayerCount: 2
Fore
SplineSet
286 714 m 2,0,1
 426 714 426 714 490 659 c 128,-1,2
 554 604 554 604 554 504 c 0,3,4
 554 460 554 460 539.5 419.5 c 128,-1,5
 525 379 525 379 492 347 c 128,-1,6
 459 315 459 315 404 296.5 c 128,-1,7
 349 278 349 278 269 278 c 2,8,-1
 187 278 l 1,9,-1
 187 0 l 1,10,-1
 97 0 l 1,11,-1
 97 714 l 1,12,-1
 286 714 l 2,0,1
278 637 m 2,13,-1
 187 637 l 1,14,-1
 187 355 l 1,15,-1
 259 355 l 2,16,17
 327 355 327 355 372 369.5 c 128,-1,18
 417 384 417 384 439 416 c 128,-1,19
 461 448 461 448 461 500 c 0,20,21
 461 569 461 569 417 603 c 128,-1,22
 373 637 373 637 278 637 c 2,13,-1
EndSplineSet
Substitution2: "'c2sc' Capitals to Small Capitals lookup 38 subtable" p.sc
Substitution2: "'aalt' Access All Alternates lookup 0 subtable" p.sc
EndChar

StartChar: Q
Encoding: 81 81 52
Width: 781
VWidth: 1000
GlyphClass: 2
Flags: W
AnchorPoint: "NECorner" 761 714 basechar 0
AnchorPoint: "Top" 391 714 basechar 0
AnchorPoint: "Middle" 390 277 basechar 0
AnchorPoint: "Bottom" 391 -170 basechar 0
LayerCount: 2
Fore
SplineSet
720 358 m 0,0,1
 720 271 720 271 696.5 200 c 128,-1,2
 673 129 673 129 627 80 c 128,-1,3
 581 31 581 31 512 8 c 1,4,-1
 683 -170 l 1,5,-1
 554 -170 l 1,6,-1
 416 -9 l 1,7,8
 410 -9 410 -9 403.5 -9.5 c 128,-1,9
 397 -10 397 -10 391 -10 c 0,10,11
 307 -10 307 -10 245 16.5 c 128,-1,12
 183 43 183 43 142 91.5 c 128,-1,13
 101 140 101 140 81 208 c 128,-1,14
 61 276 61 276 61 359 c 0,15,16
 61 469 61 469 97 551 c 128,-1,17
 133 633 133 633 206.5 679 c 128,-1,18
 280 725 280 725 392 725 c 0,19,20
 499 725 499 725 572 679.5 c 128,-1,21
 645 634 645 634 682.5 551.5 c 128,-1,22
 720 469 720 469 720 358 c 0,0,1
156 358 m 256,23,24
 156 268 156 268 181 203 c 128,-1,25
 206 138 206 138 258.5 103 c 128,-1,26
 311 68 311 68 391 68 c 0,27,28
 472 68 472 68 523.5 103 c 128,-1,29
 575 138 575 138 600 203 c 128,-1,30
 625 268 625 268 625 358 c 0,31,32
 625 493 625 493 569 569.5 c 128,-1,33
 513 646 513 646 392 646 c 0,34,35
 311 646 311 646 258.5 611.5 c 128,-1,36
 206 577 206 577 181 512.5 c 128,-1,37
 156 448 156 448 156 358 c 256,23,24
EndSplineSet
Substitution2: "'c2sc' Capitals to Small Capitals lookup 38 subtable" q.sc
Substitution2: "'aalt' Access All Alternates lookup 0 subtable" q.sc
EndChar

StartChar: R
Encoding: 82 82 53
Width: 622
VWidth: 1000
GlyphClass: 2
Flags: W
AnchorPoint: "NECorner" 602 714 basechar 0
AnchorPoint: "Top" 311 714 basechar 0
AnchorPoint: "Middle" 352 357 basechar 0
AnchorPoint: "Bottom" 328 0 basechar 0
LayerCount: 2
Fore
SplineSet
294 714 m 2,0,1
 383 714 383 714 440.5 691.5 c 128,-1,2
 498 669 498 669 526 624 c 128,-1,3
 554 579 554 579 554 511 c 0,4,5
 554 454 554 454 533 416 c 128,-1,6
 512 378 512 378 479.5 355.5 c 128,-1,7
 447 333 447 333 411 320 c 1,8,-1
 607 0 l 1,9,-1
 502 0 l 1,10,-1
 329 295 l 1,11,-1
 187 295 l 1,12,-1
 187 0 l 1,13,-1
 97 0 l 1,14,-1
 97 714 l 1,15,-1
 294 714 l 2,0,1
289 636 m 2,16,-1
 187 636 l 1,17,-1
 187 371 l 1,18,-1
 294 371 l 2,19,20
 381 371 381 371 421 405.5 c 128,-1,21
 461 440 461 440 461 507 c 0,22,23
 461 554 461 554 442.5 582 c 128,-1,24
 424 610 424 610 386 623 c 128,-1,25
 348 636 348 636 289 636 c 2,16,-1
EndSplineSet
Substitution2: "'c2sc' Capitals to Small Capitals lookup 38 subtable" r.sc
Substitution2: "'aalt' Access All Alternates lookup 0 subtable" r.sc
EndChar

StartChar: S
Encoding: 83 83 54
Width: 549
VWidth: 1000
GlyphClass: 2
Flags: W
AnchorPoint: "NECorner" 529 714 basechar 0
AnchorPoint: "Top" 285 714 basechar 0
AnchorPoint: "Middle" 276 357 basechar 0
AnchorPoint: "Bottom" 257 0 basechar 0
LayerCount: 2
Fore
SplineSet
502 191 m 0,0,1
 502 127 502 127 471 82.5 c 128,-1,2
 440 38 440 38 382.5 14 c 128,-1,3
 325 -10 325 -10 247 -10 c 0,4,5
 207 -10 207 -10 170.5 -6 c 128,-1,6
 134 -2 134 -2 104 5.5 c 128,-1,7
 74 13 74 13 51 24 c 1,8,-1
 51 110 l 1,9,10
 87 94 87 94 140.5 81 c 128,-1,11
 194 68 194 68 251 68 c 0,12,13
 304 68 304 68 340 82 c 128,-1,14
 376 96 376 96 394 122 c 128,-1,15
 412 148 412 148 412 183 c 256,16,17
 412 218 412 218 397 242 c 128,-1,18
 382 266 382 266 345.5 286.5 c 128,-1,19
 309 307 309 307 244 330 c 0,20,21
 198 347 198 347 163.5 366.5 c 128,-1,22
 129 386 129 386 106 411 c 128,-1,23
 83 436 83 436 71.5 468 c 128,-1,24
 60 500 60 500 60 542 c 0,25,26
 60 599 60 599 89 639.5 c 128,-1,27
 118 680 118 680 169.5 702 c 128,-1,28
 221 724 221 724 288 724 c 0,29,30
 347 724 347 724 396 713 c 128,-1,31
 445 702 445 702 485 684 c 1,32,-1
 457 607 l 1,33,34
 420 623 420 623 376.5 634 c 128,-1,35
 333 645 333 645 286 645 c 0,36,37
 241 645 241 645 211 632 c 128,-1,38
 181 619 181 619 166 595.5 c 128,-1,39
 151 572 151 572 151 541 c 0,40,41
 151 505 151 505 166 481 c 128,-1,42
 181 457 181 457 215 438 c 128,-1,43
 249 419 249 419 307 397 c 0,44,45
 370 374 370 374 413.5 347.5 c 128,-1,46
 457 321 457 321 479.5 284 c 128,-1,47
 502 247 502 247 502 191 c 0,0,1
EndSplineSet
Substitution2: "'c2sc' Capitals to Small Capitals lookup 38 subtable" s.sc
Substitution2: "'aalt' Access All Alternates lookup 0 subtable" s.sc
EndChar

StartChar: T
Encoding: 84 84 55
Width: 556
VWidth: 1000
GlyphClass: 2
Flags: W
AnchorPoint: "NECorner" 536 714 basechar 0
AnchorPoint: "Top" 278 714 basechar 0
AnchorPoint: "Middle" 278 357 basechar 0
AnchorPoint: "Bottom" 278 0 basechar 0
LayerCount: 2
Fore
SplineSet
323 0 m 1,0,-1
 233 0 l 1,1,-1
 233 635 l 1,2,-1
 10 635 l 1,3,-1
 10 714 l 1,4,-1
 545 714 l 1,5,-1
 545 635 l 1,6,-1
 323 635 l 1,7,-1
 323 0 l 1,0,-1
EndSplineSet
Substitution2: "'c2sc' Capitals to Small Capitals lookup 38 subtable" t.sc
Substitution2: "'aalt' Access All Alternates lookup 0 subtable" t.sc
EndChar

StartChar: U
Encoding: 85 85 56
Width: 731
VWidth: 1000
GlyphClass: 2
Flags: W
AnchorPoint: "NECorner" 711 714 basechar 0
AnchorPoint: "Top" 366 714 basechar 0
AnchorPoint: "Middle" 365 352 basechar 0
AnchorPoint: "Bottom" 364 0 basechar 0
LayerCount: 2
Fore
SplineSet
640 252 m 2,0,1
 640 178 640 178 610 118.5 c 128,-1,2
 580 59 580 59 518.5 24.5 c 128,-1,3
 457 -10 457 -10 362 -10 c 0,4,5
 229 -10 229 -10 159.5 62.5 c 128,-1,6
 90 135 90 135 90 254 c 2,7,-1
 90 714 l 1,8,-1
 180 714 l 1,9,-1
 180 251 l 2,10,11
 180 164 180 164 226.5 116 c 128,-1,12
 273 68 273 68 367 68 c 0,13,14
 432 68 432 68 472.5 91.5 c 128,-1,15
 513 115 513 115 532 156.5 c 128,-1,16
 551 198 551 198 551 252 c 2,17,-1
 551 714 l 1,18,-1
 640 714 l 1,19,-1
 640 252 l 2,0,1
EndSplineSet
Substitution2: "'c2sc' Capitals to Small Capitals lookup 38 subtable" u.sc
Substitution2: "'aalt' Access All Alternates lookup 0 subtable" u.sc
EndChar

StartChar: V
Encoding: 86 86 57
Width: 600
VWidth: 1000
GlyphClass: 2
Flags: W
AnchorPoint: "NECorner" 580 714 basechar 0
AnchorPoint: "Top" 303 714 basechar 0
AnchorPoint: "Middle" 300 357 basechar 0
AnchorPoint: "Bottom" 299 0 basechar 0
LayerCount: 2
Fore
SplineSet
600 714 m 1,0,-1
 345 0 l 1,1,-1
 255 0 l 1,2,-1
 0 714 l 1,3,-1
 94 714 l 1,4,-1
 255 256 l 2,5,6
 266 227 266 227 274 200 c 128,-1,7
 282 173 282 173 288.5 148.5 c 128,-1,8
 295 124 295 124 300 100 c 1,9,10
 305 124 305 124 311.5 149 c 128,-1,11
 318 174 318 174 326.5 201 c 128,-1,12
 335 228 335 228 345 258 c 2,13,-1
 505 714 l 1,14,-1
 600 714 l 1,0,-1
EndSplineSet
Substitution2: "'c2sc' Capitals to Small Capitals lookup 38 subtable" v.sc
Substitution2: "'aalt' Access All Alternates lookup 0 subtable" v.sc
EndChar

StartChar: W
Encoding: 87 87 58
Width: 930
VWidth: 1000
GlyphClass: 2
Flags: W
AnchorPoint: "NECorner" 910 714 basechar 0
AnchorPoint: "Top" 465 714 basechar 0
AnchorPoint: "Middle" 464 357 basechar 0
AnchorPoint: "Bottom" 458 0 basechar 0
LayerCount: 2
Fore
SplineSet
917 714 m 1,0,-1
 727 0 l 1,1,-1
 636 0 l 1,2,-1
 497 468 l 2,3,4
 491 489 491 489 485 511 c 128,-1,5
 479 533 479 533 474 553 c 128,-1,6
 469 573 469 573 465.5 587.5 c 128,-1,7
 462 602 462 602 461 609 c 1,8,9
 460 602 460 602 457.5 587.5 c 128,-1,10
 455 573 455 573 450 553 c 128,-1,11
 445 533 445 533 439.5 510.5 c 128,-1,12
 434 488 434 488 427 465 c 2,13,-1
 292 0 l 1,14,-1
 201 0 l 1,15,-1
 12 714 l 1,16,-1
 106 714 l 1,17,-1
 217 278 l 2,18,19
 223 255 223 255 228 232.5 c 128,-1,20
 233 210 233 210 237.5 188.5 c 128,-1,21
 242 167 242 167 245 147 c 128,-1,22
 248 127 248 127 251 108 c 1,23,24
 254 128 254 128 257.5 149 c 128,-1,25
 261 170 261 170 266 192.5 c 128,-1,26
 271 215 271 215 277 238 c 128,-1,27
 283 261 283 261 289 283 c 2,28,-1
 415 714 l 1,29,-1
 508 714 l 1,30,-1
 639 280 l 2,31,32
 646 257 646 257 652 233.5 c 128,-1,33
 658 210 658 210 663 188 c 128,-1,34
 668 166 668 166 671.5 145.5 c 128,-1,35
 675 125 675 125 678 108 c 1,36,37
 681 133 681 133 686 160.5 c 128,-1,38
 691 188 691 188 698 218 c 128,-1,39
 705 248 705 248 713 279 c 2,40,-1
 823 714 l 1,41,-1
 917 714 l 1,0,-1
EndSplineSet
Substitution2: "'c2sc' Capitals to Small Capitals lookup 38 subtable" w.sc
Substitution2: "'aalt' Access All Alternates lookup 0 subtable" w.sc
EndChar

StartChar: X
Encoding: 88 88 59
Width: 586
VWidth: 1000
GlyphClass: 2
Flags: W
AnchorPoint: "NECorner" 566 714 basechar 0
AnchorPoint: "Top" 292 714 basechar 0
AnchorPoint: "Middle" 293 357 basechar 0
AnchorPoint: "Bottom" 293 0 basechar 0
LayerCount: 2
Fore
SplineSet
582 0 m 1,0,-1
 480 0 l 1,1,-1
 291 310 l 1,2,-1
 99 0 l 1,3,-1
 4 0 l 1,4,-1
 241 372 l 1,5,-1
 19 714 l 1,6,-1
 119 714 l 1,7,-1
 294 434 l 1,8,-1
 470 714 l 1,9,-1
 565 714 l 1,10,-1
 344 374 l 1,11,-1
 582 0 l 1,0,-1
EndSplineSet
Substitution2: "'c2sc' Capitals to Small Capitals lookup 38 subtable" x.sc
Substitution2: "'aalt' Access All Alternates lookup 0 subtable" x.sc
EndChar

StartChar: Y
Encoding: 89 89 60
Width: 566
VWidth: 1000
GlyphClass: 2
Flags: W
AnchorPoint: "NECorner" 546 714 basechar 0
AnchorPoint: "Top" 283 714 basechar 0
AnchorPoint: "Middle" 283 357 basechar 0
AnchorPoint: "Bottom" 283 0 basechar 0
LayerCount: 2
Fore
SplineSet
283 363 m 1,0,-1
 469 714 l 1,1,-1
 566 714 l 1,2,-1
 328 277 l 1,3,-1
 328 0 l 1,4,-1
 238 0 l 1,5,-1
 238 273 l 1,6,-1
 0 714 l 1,7,-1
 98 714 l 1,8,-1
 283 363 l 1,0,-1
EndSplineSet
Substitution2: "'c2sc' Capitals to Small Capitals lookup 38 subtable" y.sc
Substitution2: "'aalt' Access All Alternates lookup 0 subtable" y.sc
EndChar

StartChar: Z
Encoding: 90 90 61
Width: 572
VWidth: 1000
GlyphClass: 2
Flags: W
AnchorPoint: "NECorner" 552 714 basechar 0
AnchorPoint: "Top" 290 714 basechar 0
AnchorPoint: "Middle" 285 357 basechar 0
AnchorPoint: "Bottom" 297 0 basechar 0
LayerCount: 2
Fore
SplineSet
533 0 m 1,0,-1
 38 0 l 1,1,-1
 38 68 l 1,2,-1
 414 634 l 1,3,-1
 50 634 l 1,4,-1
 50 714 l 1,5,-1
 523 714 l 1,6,-1
 523 646 l 1,7,-1
 147 80 l 1,8,-1
 533 80 l 1,9,-1
 533 0 l 1,0,-1
EndSplineSet
Substitution2: "'c2sc' Capitals to Small Capitals lookup 38 subtable" z.sc
Substitution2: "'aalt' Access All Alternates lookup 0 subtable" z.sc
EndChar

StartChar: leftsquarebracket
Encoding: 91 91 62
Width: 329
VWidth: 1000
GlyphClass: 1
Flags: W
LayerCount: 2
Fore
SplineSet
304 -158 m 1,0,-1
 80 -158 l 1,1,-1
 80 714 l 1,2,-1
 304 714 l 1,3,-1
 304 642 l 1,4,-1
 166 642 l 1,5,-1
 166 -86 l 1,6,-1
 304 -86 l 1,7,-1
 304 -158 l 1,0,-1
EndSplineSet
Substitution2: "'smcp' Lowercase to Small Capitals lookup 39 subtable" leftsquarebracket.sc
Substitution2: "'c2sc' Capitals to Small Capitals lookup 38 subtable" leftsquarebracket.sc
Substitution2: "'aalt' Access All Alternates lookup 0 subtable" leftsquarebracket.sc
EndChar

StartChar: reversesolidus
Encoding: 92 92 63
Width: 372
VWidth: 1000
GlyphClass: 1
Flags: W
LayerCount: 2
Fore
SplineSet
96 714 m 1,0,-1
 363 0 l 1,1,-1
 276 0 l 1,2,-1
 10 714 l 1,3,-1
 96 714 l 1,0,-1
EndSplineSet
EndChar

StartChar: rightsquarebracket
Encoding: 93 93 64
Width: 329
VWidth: 1000
GlyphClass: 1
Flags: W
LayerCount: 2
Fore
SplineSet
25 -86 m 1,0,-1
 163 -86 l 1,1,-1
 163 642 l 1,2,-1
 25 642 l 1,3,-1
 25 714 l 1,4,-1
 249 714 l 1,5,-1
 249 -158 l 1,6,-1
 25 -158 l 1,7,-1
 25 -86 l 1,0,-1
EndSplineSet
Substitution2: "'smcp' Lowercase to Small Capitals lookup 39 subtable" rightsquarebracket.sc
Substitution2: "'c2sc' Capitals to Small Capitals lookup 38 subtable" rightsquarebracket.sc
Substitution2: "'aalt' Access All Alternates lookup 0 subtable" rightsquarebracket.sc
EndChar

StartChar: ciraccent
Encoding: 94 94 65
Width: 572
VWidth: 1000
GlyphClass: 1
Flags: W
LayerCount: 2
Fore
SplineSet
38 267 m 1,0,-1
 250 719 l 1,1,-1
 300 719 l 1,2,-1
 534 267 l 1,3,-1
 456 267 l 1,4,-1
 276 626 l 1,5,-1
 116 267 l 1,6,-1
 38 267 l 1,0,-1
EndSplineSet
EndChar

StartChar: lowline
Encoding: 95 95 66
Width: 444
VWidth: 1000
GlyphClass: 1
Flags: W
LayerCount: 2
Fore
SplineSet
446 -154 m 1,0,-1
 -2 -154 l 1,1,-1
 -2 -90 l 1,2,-1
 446 -90 l 1,3,-1
 446 -154 l 1,0,-1
EndSplineSet
EndChar

StartChar: graveaccent
Encoding: 96 96 67
Width: 281
VWidth: 1000
GlyphClass: 1
Flags: W
LayerCount: 2
Fore
SplineSet
145 766 m 1,0,1
 156 744 156 744 172.5 716.5 c 128,-1,2
 189 689 189 689 207.5 663 c 128,-1,3
 226 637 226 637 241 618 c 1,4,-1
 241 606 l 1,5,-1
 182 606 l 1,6,7
 165 620 165 620 144 639.5 c 128,-1,8
 123 659 123 659 102.5 680.5 c 128,-1,9
 82 702 82 702 65.5 722 c 128,-1,10
 49 742 49 742 40 756 c 1,11,-1
 40 766 l 1,12,-1
 145 766 l 1,0,1
EndSplineSet
EndChar

StartChar: a
Encoding: 97 97 68
Width: 561
VWidth: 1000
GlyphClass: 2
Flags: W
AnchorPoint: "NECorner" 511 536 basechar 0
AnchorPoint: "Top" 281 536 basechar 0
AnchorPoint: "Middle" 263 267 basechar 0
AnchorPoint: "Bottom" 281 0 basechar 0
LayerCount: 2
Fore
SplineSet
288 545 m 0,0,1
 386 545 386 545 433 502 c 128,-1,2
 480 459 480 459 480 365 c 2,3,-1
 480 0 l 1,4,-1
 416 0 l 1,5,-1
 399 76 l 1,6,-1
 395 76 l 1,7,8
 372 47 372 47 347.5 27.5 c 128,-1,9
 323 8 323 8 291.5 -1 c 128,-1,10
 260 -10 260 -10 215 -10 c 0,11,12
 167 -10 167 -10 128.5 7 c 128,-1,13
 90 24 90 24 68 59.5 c 128,-1,14
 46 95 46 95 46 149 c 0,15,16
 46 229 46 229 109 272.5 c 128,-1,17
 172 316 172 316 303 320 c 2,18,-1
 394 323 l 1,19,-1
 394 355 l 2,20,21
 394 422 394 422 365 448 c 128,-1,22
 336 474 336 474 283 474 c 0,23,24
 241 474 241 474 203 461.5 c 128,-1,25
 165 449 165 449 132 433 c 1,26,-1
 105 499 l 1,27,28
 140 518 140 518 188 531.5 c 128,-1,29
 236 545 236 545 288 545 c 0,0,1
314 259 m 2,30,31
 214 255 214 255 175.5 227 c 128,-1,32
 137 199 137 199 137 148 c 0,33,34
 137 103 137 103 164.5 82 c 128,-1,35
 192 61 192 61 235 61 c 0,36,37
 303 61 303 61 348 98.5 c 128,-1,38
 393 136 393 136 393 214 c 2,39,-1
 393 262 l 1,40,-1
 314 259 l 2,30,31
EndSplineSet
Substitution2: "'smcp' Lowercase to Small Capitals lookup 39 subtable" a.sc
Substitution2: "Single Substitution lookup 33 subtable" feminineordinalindicator
AlternateSubs2: "'aalt' Access All Alternates lookup 1 subtable" feminineordinalindicator a.sc
EndChar

StartChar: b
Encoding: 98 98 69
Width: 615
VWidth: 1000
GlyphClass: 2
Flags: W
AnchorPoint: "NECorner" 515 760 basechar 0
AnchorPoint: "Top" 338 760 basechar 0
AnchorPoint: "Middle" 322 375 basechar 0
AnchorPoint: "Bottom" 322 0 basechar 0
LayerCount: 2
Fore
SplineSet
173 575 m 2,0,1
 173 541 173 541 171.5 511.5 c 128,-1,2
 170 482 170 482 168 465 c 1,3,-1
 173 465 l 1,4,5
 196 499 196 499 236 522 c 128,-1,6
 276 545 276 545 339 545 c 0,7,8
 439 545 439 545 499.5 475.5 c 128,-1,9
 560 406 560 406 560 268 c 0,10,11
 560 176 560 176 532.5 114 c 128,-1,12
 505 52 505 52 455 21 c 128,-1,13
 405 -10 405 -10 339 -10 c 0,14,15
 276 -10 276 -10 236 13 c 128,-1,16
 196 36 196 36 173 68 c 1,17,-1
 166 68 l 1,18,-1
 148 0 l 1,19,-1
 85 0 l 1,20,-1
 85 760 l 1,21,-1
 173 760 l 1,22,-1
 173 575 l 2,0,1
324 472 m 0,23,24
 267 472 267 472 234 450.5 c 128,-1,25
 201 429 201 429 187 384.5 c 128,-1,26
 173 340 173 340 173 271 c 2,27,-1
 173 267 l 2,28,29
 173 168 173 168 205.5 115.5 c 128,-1,30
 238 63 238 63 326 63 c 0,31,32
 398 63 398 63 433.5 116 c 128,-1,33
 469 169 469 169 469 269 c 0,34,35
 469 370 469 370 433.5 421 c 128,-1,36
 398 472 398 472 324 472 c 0,23,24
EndSplineSet
Substitution2: "'smcp' Lowercase to Small Capitals lookup 39 subtable" b.sc
Substitution2: "'aalt' Access All Alternates lookup 0 subtable" b.sc
EndChar

StartChar: c
Encoding: 99 99 70
Width: 480
VWidth: 1000
GlyphClass: 2
Flags: W
AnchorPoint: "NECorner" 460 536 basechar 0
AnchorPoint: "Top" 284 536 basechar 0
AnchorPoint: "Middle" 251 268 basechar 0
AnchorPoint: "Bottom" 281 0 basechar 0
LayerCount: 2
Fore
SplineSet
300 -10 m 0,0,1
 229 -10 229 -10 173.5 19 c 128,-1,2
 118 48 118 48 86.5 109 c 128,-1,3
 55 170 55 170 55 265 c 0,4,5
 55 364 55 364 88 426 c 128,-1,6
 121 488 121 488 177.5 517 c 128,-1,7
 234 546 234 546 306 546 c 0,8,9
 347 546 347 546 385 537.5 c 128,-1,10
 423 529 423 529 447 517 c 1,11,-1
 420 444 l 1,12,13
 396 453 396 453 364 461 c 128,-1,14
 332 469 332 469 304 469 c 0,15,16
 250 469 250 469 215 446 c 128,-1,17
 180 423 180 423 163 378 c 128,-1,18
 146 333 146 333 146 266 c 0,19,20
 146 202 146 202 163 157 c 128,-1,21
 180 112 180 112 214 89 c 128,-1,22
 248 66 248 66 299 66 c 0,23,24
 343 66 343 66 376.5 75 c 128,-1,25
 410 84 410 84 438 97 c 1,26,-1
 438 19 l 1,27,28
 411 5 411 5 378.5 -2.5 c 128,-1,29
 346 -10 346 -10 300 -10 c 0,0,1
EndSplineSet
Substitution2: "'smcp' Lowercase to Small Capitals lookup 39 subtable" c.sc
Substitution2: "'aalt' Access All Alternates lookup 0 subtable" c.sc
EndChar

StartChar: d
Encoding: 100 100 71
Width: 615
VWidth: 1000
GlyphClass: 2
Flags: W
AnchorPoint: "NECorner" 553 760 basechar 0
AnchorPoint: "Top" 275 760 basechar 0
AnchorPoint: "Middle" 308 268 basechar 0
AnchorPoint: "Bottom" 292 0 basechar 0
LayerCount: 2
Fore
SplineSet
275 -10 m 0,0,1
 175 -10 175 -10 115 59.5 c 128,-1,2
 55 129 55 129 55 267 c 256,3,4
 55 405 55 405 115.5 475.5 c 128,-1,5
 176 546 176 546 276 546 c 0,6,7
 318 546 318 546 349 535.5 c 128,-1,8
 380 525 380 525 403 507 c 128,-1,9
 426 489 426 489 442 467 c 1,10,-1
 448 467 l 1,11,12
 447 480 447 480 444.5 505.5 c 128,-1,13
 442 531 442 531 442 546 c 2,14,-1
 442 760 l 1,15,-1
 530 760 l 1,16,-1
 530 0 l 1,17,-1
 459 0 l 1,18,-1
 446 72 l 1,19,-1
 442 72 l 1,20,21
 426 49 426 49 403 30.5 c 128,-1,22
 380 12 380 12 348.5 1 c 128,-1,23
 317 -10 317 -10 275 -10 c 0,0,1
289 63 m 0,24,25
 374 63 374 63 408.5 109.5 c 128,-1,26
 443 156 443 156 443 250 c 2,27,-1
 443 266 l 2,28,29
 443 366 443 366 410 419.5 c 128,-1,30
 377 473 377 473 288 473 c 0,31,32
 217 473 217 473 181.5 416.5 c 128,-1,33
 146 360 146 360 146 265 c 0,34,35
 146 169 146 169 181.5 116 c 128,-1,36
 217 63 217 63 289 63 c 0,24,25
EndSplineSet
Substitution2: "'smcp' Lowercase to Small Capitals lookup 39 subtable" d.sc
Substitution2: "'aalt' Access All Alternates lookup 0 subtable" d.sc
EndChar

StartChar: e
Encoding: 101 101 72
Width: 564
VWidth: 1000
GlyphClass: 2
Flags: W
AnchorPoint: "NECorner" 544 536 basechar 0
AnchorPoint: "Top" 285 536 basechar 0
AnchorPoint: "Middle" 284 268 basechar 0
AnchorPoint: "Bottom" 301 0 basechar 0
LayerCount: 2
Fore
SplineSet
292 546 m 0,0,1
 361 546 361 546 410.5 516 c 128,-1,2
 460 486 460 486 486.5 431.5 c 128,-1,3
 513 377 513 377 513 304 c 2,4,-1
 513 251 l 1,5,-1
 146 251 l 1,6,7
 148 160 148 160 192.5 112.5 c 128,-1,8
 237 65 237 65 317 65 c 0,9,10
 368 65 368 65 407.5 74.5 c 128,-1,11
 447 84 447 84 489 102 c 1,12,-1
 489 25 l 1,13,14
 448 7 448 7 408 -1.5 c 128,-1,15
 368 -10 368 -10 313 -10 c 0,16,17
 237 -10 237 -10 178.5 21 c 128,-1,18
 120 52 120 52 87.5 113.5 c 128,-1,19
 55 175 55 175 55 264 c 0,20,21
 55 352 55 352 84.5 415 c 128,-1,22
 114 478 114 478 167.5 512 c 128,-1,23
 221 546 221 546 292 546 c 0,0,1
291 474 m 0,24,25
 228 474 228 474 191.5 433.5 c 128,-1,26
 155 393 155 393 148 321 c 1,27,-1
 421 321 l 1,28,29
 421 367 421 367 407 401 c 128,-1,30
 393 435 393 435 364.5 454.5 c 128,-1,31
 336 474 336 474 291 474 c 0,24,25
EndSplineSet
Substitution2: "'smcp' Lowercase to Small Capitals lookup 39 subtable" e.sc
Substitution2: "'aalt' Access All Alternates lookup 0 subtable" e.sc
EndChar

StartChar: f
Encoding: 102 102 73
Width: 344
VWidth: 1000
GlyphClass: 2
Flags: W
AnchorPoint: "NECorner" 380 765 basechar 0
AnchorPoint: "Top" 252 765 basechar 0
AnchorPoint: "Middle" 201 382 basechar 0
AnchorPoint: "Bottom" 153 0 basechar 0
LayerCount: 2
Fore
SplineSet
332 468 m 1,0,-1
 197 468 l 1,1,-1
 197 0 l 1,2,-1
 109 0 l 1,3,-1
 109 468 l 1,4,-1
 15 468 l 1,5,-1
 15 509 l 1,6,-1
 109 539 l 1,7,-1
 109 570 l 2,8,9
 109 639 109 639 129.5 682 c 128,-1,10
 150 725 150 725 189 745 c 128,-1,11
 228 765 228 765 283 765 c 0,12,13
 315 765 315 765 341.5 759.5 c 128,-1,14
 368 754 368 754 387 747 c 1,15,-1
 364 678 l 1,16,17
 348 683 348 683 327 688 c 128,-1,18
 306 693 306 693 284 693 c 0,19,20
 240 693 240 693 218.5 663.5 c 128,-1,21
 197 634 197 634 197 571 c 2,22,-1
 197 536 l 1,23,-1
 332 536 l 1,24,-1
 332 468 l 1,0,-1
EndSplineSet
Substitution2: "'smcp' Lowercase to Small Capitals lookup 39 subtable" f.sc
Substitution2: "'aalt' Access All Alternates lookup 0 subtable" f.sc
EndChar

StartChar: g
Encoding: 103 103 74
Width: 615
VWidth: 1000
GlyphClass: 2
Flags: W
AnchorPoint: "NECorner" 555 536 basechar 0
AnchorPoint: "Top" 297 536 basechar 0
AnchorPoint: "Middle" 292 153 basechar 0
AnchorPoint: "Bottom" 298 -240 basechar 0
LayerCount: 2
Fore
SplineSet
275 546 m 0,0,1
 328 546 328 546 370.5 526 c 128,-1,2
 413 506 413 506 443 465 c 1,3,-1
 448 465 l 1,4,-1
 460 536 l 1,5,-1
 530 536 l 1,6,-1
 530 -9 l 2,7,8
 530 -85 530 -85 504 -136.5 c 128,-1,9
 478 -188 478 -188 425 -214 c 128,-1,10
 372 -240 372 -240 290 -240 c 0,11,12
 232 -240 232 -240 183.5 -231.5 c 128,-1,13
 135 -223 135 -223 97 -206 c 1,14,-1
 97 -125 l 1,15,16
 135 -145 135 -145 186 -156 c 128,-1,17
 237 -167 237 -167 295 -167 c 0,18,19
 364 -167 364 -167 403.5 -126.5 c 128,-1,20
 443 -86 443 -86 443 -16 c 2,21,-1
 443 5 l 2,22,23
 443 17 443 17 444 39.5 c 128,-1,24
 445 62 445 62 446 71 c 1,25,-1
 442 71 l 1,26,27
 414 30 414 30 372.5 10 c 128,-1,28
 331 -10 331 -10 276 -10 c 0,29,30
 172 -10 172 -10 113.5 63 c 128,-1,31
 55 136 55 136 55 267 c 0,32,33
 55 395 55 395 113.5 470.5 c 128,-1,34
 172 546 172 546 275 546 c 0,0,1
287 472 m 0,35,36
 242 472 242 472 210.5 448 c 128,-1,37
 179 424 179 424 162.5 378 c 128,-1,38
 146 332 146 332 146 266 c 0,39,40
 146 167 146 167 182.5 114.5 c 128,-1,41
 219 62 219 62 289 62 c 0,42,43
 330 62 330 62 359 72.5 c 128,-1,44
 388 83 388 83 407 105.5 c 128,-1,45
 426 128 426 128 435 163 c 128,-1,46
 444 198 444 198 444 246 c 2,47,-1
 444 267 l 2,48,49
 444 340 444 340 427.5 385 c 128,-1,50
 411 430 411 430 376 451 c 128,-1,51
 341 472 341 472 287 472 c 0,35,36
EndSplineSet
Substitution2: "'smcp' Lowercase to Small Capitals lookup 39 subtable" g.sc
Substitution2: "'aalt' Access All Alternates lookup 0 subtable" g.sc
EndChar

StartChar: h
Encoding: 104 104 75
Width: 618
VWidth: 1000
GlyphClass: 2
Flags: W
AnchorPoint: "NECorner" 535 760 basechar 0
AnchorPoint: "Top" 130 760 basechar 0
AnchorPoint: "Middle" 309 268 basechar 0
AnchorPoint: "Bottom" 310 0 basechar 0
LayerCount: 2
Fore
SplineSet
173 537 m 2,0,1
 173 518 173 518 171.5 498 c 128,-1,2
 170 478 170 478 168 462 c 1,3,-1
 174 462 l 1,4,5
 191 490 191 490 217 508 c 128,-1,6
 243 526 243 526 275 535.5 c 128,-1,7
 307 545 307 545 341 545 c 0,8,9
 406 545 406 545 449.5 524.5 c 128,-1,10
 493 504 493 504 515 461 c 128,-1,11
 537 418 537 418 537 349 c 2,12,-1
 537 0 l 1,13,-1
 450 0 l 1,14,-1
 450 343 l 2,15,16
 450 408 450 408 421 440 c 128,-1,17
 392 472 392 472 330 472 c 0,18,19
 270 472 270 472 236 449.5 c 128,-1,20
 202 427 202 427 187.5 383.5 c 128,-1,21
 173 340 173 340 173 277 c 2,22,-1
 173 0 l 1,23,-1
 85 0 l 1,24,-1
 85 760 l 1,25,-1
 173 760 l 1,26,-1
 173 537 l 2,0,1
EndSplineSet
Substitution2: "'smcp' Lowercase to Small Capitals lookup 39 subtable" h.sc
Substitution2: "'sinf' Scientific Inferiors lookup 24 subtable" subscripth
Substitution2: "'subs' Subscript lookup 23 subtable" subscripth
AlternateSubs2: "'aalt' Access All Alternates lookup 1 subtable" subscripth h.sc
EndChar

StartChar: i
Encoding: 105 105 76
Width: 258
VWidth: 1000
GlyphClass: 2
Flags: W
AnchorPoint: "NECorner" 238 737 basechar 0
AnchorPoint: "Top" 129 737 basechar 0
AnchorPoint: "Middle" 129 368 basechar 0
AnchorPoint: "Bottom" 131 0 basechar 0
LayerCount: 2
Fore
SplineSet
173 536 m 1,0,-1
 173 0 l 1,1,-1
 85 0 l 1,2,-1
 85 536 l 1,3,-1
 173 536 l 1,0,-1
130 737 m 0,4,5
 150 737 150 737 165.5 723.5 c 128,-1,6
 181 710 181 710 181 681 c 0,7,8
 181 653 181 653 165.5 639 c 128,-1,9
 150 625 150 625 130 625 c 0,10,11
 108 625 108 625 93 639 c 128,-1,12
 78 653 78 653 78 681 c 0,13,14
 78 710 78 710 93 723.5 c 128,-1,15
 108 737 108 737 130 737 c 0,4,5
EndSplineSet
Substitution2: "'smcp' Lowercase to Small Capitals lookup 39 subtable" i.sc
Substitution2: "Single Substitution lookup 4 subtable" idotless
AlternateSubs2: "'aalt' Access All Alternates lookup 1 subtable" idotless i.sc
EndChar

StartChar: j
Encoding: 106 106 77
Width: 258
VWidth: 1000
GlyphClass: 2
Flags: W
AnchorPoint: "NECorner" 238 737 basechar 0
AnchorPoint: "Top" 129 737 basechar 0
AnchorPoint: "Middle" 63 248 basechar 0
AnchorPoint: "Bottom" 22 -240 basechar 0
LayerCount: 2
Fore
SplineSet
22 -240 m 0,0,1
 -3 -240 -3 -240 -22 -236.5 c 128,-1,2
 -41 -233 -41 -233 -55 -228 c 1,3,-1
 -55 -157 l 1,4,5
 -40 -161 -40 -161 -24 -164 c 128,-1,6
 -8 -167 -8 -167 11 -167 c 0,7,8
 43 -167 43 -167 64 -149.5 c 128,-1,9
 85 -132 85 -132 85 -83 c 2,10,-1
 85 536 l 1,11,-1
 173 536 l 1,12,-1
 173 -80 l 2,13,14
 173 -130 173 -130 157 -166 c 128,-1,15
 141 -202 141 -202 108 -221 c 128,-1,16
 75 -240 75 -240 22 -240 c 0,0,1
78 681 m 0,17,18
 78 710 78 710 93 723.5 c 128,-1,19
 108 737 108 737 130 737 c 0,20,21
 150 737 150 737 165.5 723.5 c 128,-1,22
 181 710 181 710 181 681 c 0,23,24
 181 653 181 653 165.5 639 c 128,-1,25
 150 625 150 625 130 625 c 0,26,27
 108 625 108 625 93 639 c 128,-1,28
 78 653 78 653 78 681 c 0,17,18
EndSplineSet
Substitution2: "'smcp' Lowercase to Small Capitals lookup 39 subtable" j.sc
Substitution2: "Single Substitution lookup 4 subtable" jdotless
AlternateSubs2: "'aalt' Access All Alternates lookup 1 subtable" jdotless j.sc
EndChar

StartChar: k
Encoding: 107 107 78
Width: 534
VWidth: 1000
GlyphClass: 2
Flags: W
AnchorPoint: "NECorner" 369 840 basechar 0
AnchorPoint: "Top" 129 760 basechar 0
AnchorPoint: "Middle" 305 380 basechar 0
AnchorPoint: "Bottom" 267 0 basechar 0
LayerCount: 2
Fore
SplineSet
172 363 m 2,0,1
 172 347 172 347 170.5 321 c 128,-1,2
 169 295 169 295 168 276 c 1,3,-1
 172 276 l 1,4,5
 178 284 178 284 190 299 c 128,-1,6
 202 314 202 314 214.5 329.5 c 128,-1,7
 227 345 227 345 236 355 c 2,8,-1
 407 536 l 1,9,-1
 510 536 l 1,10,-1
 293 307 l 1,11,-1
 525 0 l 1,12,-1
 419 0 l 1,13,-1
 233 250 l 1,14,-1
 172 197 l 1,15,-1
 172 0 l 1,16,-1
 85 0 l 1,17,-1
 85 760 l 1,18,-1
 172 760 l 1,19,-1
 172 363 l 2,0,1
EndSplineSet
Substitution2: "'smcp' Lowercase to Small Capitals lookup 39 subtable" k.sc
Substitution2: "'sinf' Scientific Inferiors lookup 24 subtable" subscriptk
Substitution2: "'subs' Subscript lookup 23 subtable" subscriptk
AlternateSubs2: "'aalt' Access All Alternates lookup 1 subtable" subscriptk k.sc
EndChar

StartChar: l
Encoding: 108 108 79
Width: 258
VWidth: 1000
GlyphClass: 2
Flags: W
AnchorPoint: "NECorner" 202 760 basechar 0
AnchorPoint: "Top" 129 760 basechar 0
AnchorPoint: "Middle" 129 268 basechar 0
AnchorPoint: "Bottom" 129 0 basechar 0
LayerCount: 2
Fore
SplineSet
173 0 m 1,0,-1
 85 0 l 1,1,-1
 85 760 l 1,2,-1
 173 760 l 1,3,-1
 173 0 l 1,0,-1
EndSplineSet
Substitution2: "'smcp' Lowercase to Small Capitals lookup 39 subtable" l.sc
Substitution2: "'sinf' Scientific Inferiors lookup 24 subtable" subscriptl
Substitution2: "'subs' Subscript lookup 23 subtable" subscriptl
AlternateSubs2: "'aalt' Access All Alternates lookup 1 subtable" subscriptl l.sc
EndChar

StartChar: m
Encoding: 109 109 80
Width: 935
VWidth: 1000
GlyphClass: 2
Flags: W
AnchorPoint: "NECorner" 885 536 basechar 0
AnchorPoint: "Top" 479 536 basechar 0
AnchorPoint: "Middle" 469 273 basechar 0
AnchorPoint: "Bottom" 471 0 basechar 0
LayerCount: 2
Fore
SplineSet
673 546 m 0,0,1
 764 546 764 546 809 499.5 c 128,-1,2
 854 453 854 453 854 349 c 2,3,-1
 854 0 l 1,4,-1
 767 0 l 1,5,-1
 767 345 l 2,6,7
 767 408 767 408 740.5 440 c 128,-1,8
 714 472 714 472 658 472 c 0,9,10
 580 472 580 472 546.5 427 c 128,-1,11
 513 382 513 382 513 296 c 2,12,-1
 513 0 l 1,13,-1
 426 0 l 1,14,-1
 426 345 l 2,15,16
 426 387 426 387 414 415.5 c 128,-1,17
 402 444 402 444 378 458 c 128,-1,18
 354 472 354 472 316 472 c 0,19,20
 262 472 262 472 231 449.5 c 128,-1,21
 200 427 200 427 186.5 384 c 128,-1,22
 173 341 173 341 173 278 c 2,23,-1
 173 0 l 1,24,-1
 85 0 l 1,25,-1
 85 536 l 1,26,-1
 156 536 l 1,27,-1
 169 463 l 1,28,-1
 174 463 l 1,29,30
 191 491 191 491 215.5 509.5 c 128,-1,31
 240 528 240 528 270 537 c 128,-1,32
 300 546 300 546 332 546 c 0,33,34
 394 546 394 546 435.5 524 c 128,-1,35
 477 502 477 502 496 456 c 1,36,-1
 501 456 l 1,37,38
 528 502 528 502 574.5 524 c 128,-1,39
 621 546 621 546 673 546 c 0,0,1
EndSplineSet
Substitution2: "'smcp' Lowercase to Small Capitals lookup 39 subtable" m.sc
Substitution2: "'sinf' Scientific Inferiors lookup 24 subtable" subscriptm
Substitution2: "'subs' Subscript lookup 23 subtable" subscriptm
AlternateSubs2: "'aalt' Access All Alternates lookup 1 subtable" subscriptm m.sc
EndChar

StartChar: n
Encoding: 110 110 81
Width: 618
VWidth: 1000
GlyphClass: 2
Flags: W
AnchorPoint: "NECorner" 562 536 basechar 0
AnchorPoint: "Top" 309 536 basechar 0
AnchorPoint: "Middle" 311 273 basechar 0
AnchorPoint: "Bottom" 309 0 basechar 0
LayerCount: 2
Fore
SplineSet
343 546 m 0,0,1
 439 546 439 546 488 499.5 c 128,-1,2
 537 453 537 453 537 349 c 2,3,-1
 537 0 l 1,4,-1
 450 0 l 1,5,-1
 450 343 l 2,6,7
 450 408 450 408 421 440 c 128,-1,8
 392 472 392 472 330 472 c 0,9,10
 241 472 241 472 207 422 c 128,-1,11
 173 372 173 372 173 278 c 2,12,-1
 173 0 l 1,13,-1
 85 0 l 1,14,-1
 85 536 l 1,15,-1
 156 536 l 1,16,-1
 169 463 l 1,17,-1
 174 463 l 1,18,19
 192 491 192 491 218.5 509.5 c 128,-1,20
 245 528 245 528 277 537 c 128,-1,21
 309 546 309 546 343 546 c 0,0,1
EndSplineSet
Substitution2: "'smcp' Lowercase to Small Capitals lookup 39 subtable" n.sc
Substitution2: "'sups' Superscript lookup 25 subtable" nsuperscript
Substitution2: "'sinf' Scientific Inferiors lookup 24 subtable" subscriptn
Substitution2: "'subs' Subscript lookup 23 subtable" subscriptn
AlternateSubs2: "'aalt' Access All Alternates lookup 1 subtable" subscriptn nsuperscript n.sc
EndChar

StartChar: o
Encoding: 111 111 82
Width: 605
VWidth: 1000
GlyphClass: 2
Flags: W
AnchorPoint: "NECorner" 575 536 basechar 0
AnchorPoint: "Top" 303 536 basechar 0
AnchorPoint: "Middle" 303 268 basechar 0
AnchorPoint: "Bottom" 301 0 basechar 0
LayerCount: 2
Fore
SplineSet
551 269 m 0,0,1
 551 202 551 202 533.5 150.5 c 128,-1,2
 516 99 516 99 483.5 63 c 128,-1,3
 451 27 451 27 404.5 8.5 c 128,-1,4
 358 -10 358 -10 301 -10 c 0,5,6
 248 -10 248 -10 203 8.5 c 128,-1,7
 158 27 158 27 125 63 c 128,-1,8
 92 99 92 99 73.5 150.5 c 128,-1,9
 55 202 55 202 55 269 c 0,10,11
 55 358 55 358 85 419.5 c 128,-1,12
 115 481 115 481 171 513.5 c 128,-1,13
 227 546 227 546 304 546 c 0,14,15
 377 546 377 546 432.5 513.5 c 128,-1,16
 488 481 488 481 519.5 419.5 c 128,-1,17
 551 358 551 358 551 269 c 0,0,1
146 269 m 0,18,19
 146 206 146 206 162.5 159.5 c 128,-1,20
 179 113 179 113 214 88 c 128,-1,21
 249 63 249 63 303 63 c 256,22,23
 357 63 357 63 392 88 c 128,-1,24
 427 113 427 113 443.5 159.5 c 128,-1,25
 460 206 460 206 460 269 c 0,26,27
 460 333 460 333 443 378 c 128,-1,28
 426 423 426 423 391.5 447.5 c 128,-1,29
 357 472 357 472 302 472 c 0,30,31
 220 472 220 472 183 418 c 128,-1,32
 146 364 146 364 146 269 c 0,18,19
EndSplineSet
Substitution2: "'smcp' Lowercase to Small Capitals lookup 39 subtable" o.sc
Substitution2: "Single Substitution lookup 33 subtable" masculineordinalindicator
AlternateSubs2: "'aalt' Access All Alternates lookup 1 subtable" masculineordinalindicator o.sc
EndChar

StartChar: p
Encoding: 112 112 83
Width: 615
VWidth: 1000
GlyphClass: 2
Flags: W
AnchorPoint: "NECorner" 585 536 basechar 0
AnchorPoint: "Top" 332 536 basechar 0
AnchorPoint: "Middle" 322 153 basechar 0
AnchorPoint: "Bottom" 129 -240 basechar 0
LayerCount: 2
Fore
SplineSet
340 546 m 0,0,1
 439 546 439 546 499.5 477 c 128,-1,2
 560 408 560 408 560 269 c 0,3,4
 560 178 560 178 532.5 115.5 c 128,-1,5
 505 53 505 53 455.5 21.5 c 128,-1,6
 406 -10 406 -10 339 -10 c 0,7,8
 298 -10 298 -10 266 1 c 128,-1,9
 234 12 234 12 211.5 29.5 c 128,-1,10
 189 47 189 47 173 68 c 1,11,-1
 167 68 l 1,12,13
 169 51 169 51 171 25 c 128,-1,14
 173 -1 173 -1 173 -20 c 2,15,-1
 173 -240 l 1,16,-1
 85 -240 l 1,17,-1
 85 536 l 1,18,-1
 157 536 l 1,19,-1
 169 463 l 1,20,-1
 173 463 l 1,21,22
 189 486 189 486 211.5 505 c 128,-1,23
 234 524 234 524 265.5 535 c 128,-1,24
 297 546 297 546 340 546 c 0,0,1
324 472 m 0,25,26
 270 472 270 472 237 451.5 c 128,-1,27
 204 431 204 431 189 390 c 128,-1,28
 174 349 174 349 173 286 c 2,29,-1
 173 269 l 2,30,31
 173 203 173 203 187 157 c 128,-1,32
 201 111 201 111 234.5 87 c 128,-1,33
 268 63 268 63 326 63 c 0,34,35
 375 63 375 63 406.5 90 c 128,-1,36
 438 117 438 117 453.5 163.5 c 128,-1,37
 469 210 469 210 469 270 c 0,38,39
 469 362 469 362 433.5 417 c 128,-1,40
 398 472 398 472 324 472 c 0,25,26
EndSplineSet
Substitution2: "'smcp' Lowercase to Small Capitals lookup 39 subtable" p.sc
Substitution2: "'sinf' Scientific Inferiors lookup 24 subtable" subscriptp
Substitution2: "'subs' Subscript lookup 23 subtable" subscriptp
AlternateSubs2: "'aalt' Access All Alternates lookup 1 subtable" subscriptp p.sc
EndChar

StartChar: q
Encoding: 113 113 84
Width: 615
VWidth: 1000
GlyphClass: 2
Flags: W
AnchorPoint: "NECorner" 555 536 basechar 0
AnchorPoint: "Top" 308 536 basechar 0
AnchorPoint: "Middle" 292 153 basechar 0
AnchorPoint: "Bottom" 486 -240 basechar 0
LayerCount: 2
Fore
SplineSet
442 -11 m 2,0,1
 442 7 442 7 443 31 c 128,-1,2
 444 55 444 55 447 72 c 1,3,-1
 441 72 l 1,4,5
 418 38 418 38 377.5 14 c 128,-1,6
 337 -10 337 -10 273 -10 c 0,7,8
 176 -10 176 -10 115.5 59.5 c 128,-1,9
 55 129 55 129 55 267 c 0,10,11
 55 359 55 359 83 421 c 128,-1,12
 111 483 111 483 161 514.5 c 128,-1,13
 211 546 211 546 276 546 c 0,14,15
 339 546 339 546 379 522 c 128,-1,16
 419 498 419 498 443 463 c 1,17,-1
 447 463 l 1,18,-1
 460 536 l 1,19,-1
 530 536 l 1,20,-1
 530 -240 l 1,21,-1
 442 -240 l 1,22,-1
 442 -11 l 2,0,1
290 63 m 0,23,24
 345 63 345 63 378.5 83 c 128,-1,25
 412 103 412 103 427 144.5 c 128,-1,26
 442 186 442 186 443 248 c 2,27,-1
 443 266 l 2,28,29
 443 368 443 368 409 420.5 c 128,-1,30
 375 473 375 473 288 473 c 0,31,32
 216 473 216 473 181 416.5 c 128,-1,33
 146 360 146 360 146 265 c 256,34,35
 146 170 146 170 181.5 116.5 c 128,-1,36
 217 63 217 63 290 63 c 0,23,24
EndSplineSet
Substitution2: "'smcp' Lowercase to Small Capitals lookup 39 subtable" q.sc
Substitution2: "'aalt' Access All Alternates lookup 0 subtable" q.sc
EndChar

StartChar: r
Encoding: 114 114 85
Width: 413
VWidth: 1000
GlyphClass: 2
Flags: W
AnchorPoint: "NECorner" 393 536 basechar 0
AnchorPoint: "Top" 240 536 basechar 0
AnchorPoint: "Middle" 241 273 basechar 0
AnchorPoint: "Bottom" 126 0 basechar 0
LayerCount: 2
Fore
SplineSet
335 546 m 0,0,1
 350 546 350 546 367.5 544.5 c 128,-1,2
 385 543 385 543 398 540 c 1,3,-1
 387 459 l 1,4,5
 374 462 374 462 358.5 464 c 128,-1,6
 343 466 343 466 329 466 c 0,7,8
 298 466 298 466 270 453 c 128,-1,9
 242 440 242 440 220 416.5 c 128,-1,10
 198 393 198 393 185.5 360 c 128,-1,11
 173 327 173 327 173 286 c 2,12,-1
 173 0 l 1,13,-1
 85 0 l 1,14,-1
 85 536 l 1,15,-1
 157 536 l 1,16,-1
 167 438 l 1,17,-1
 171 438 l 1,18,19
 188 468 188 468 212 492.5 c 128,-1,20
 236 517 236 517 267 531.5 c 128,-1,21
 298 546 298 546 335 546 c 0,0,1
EndSplineSet
Substitution2: "'smcp' Lowercase to Small Capitals lookup 39 subtable" r.sc
Substitution2: "'aalt' Access All Alternates lookup 0 subtable" r.sc
EndChar

StartChar: s
Encoding: 115 115 86
Width: 479
VWidth: 1000
GlyphClass: 2
Flags: W
AnchorPoint: "NECorner" 439 536 basechar 0
AnchorPoint: "Top" 240 536 basechar 0
AnchorPoint: "Middle" 242 268 basechar 0
AnchorPoint: "Bottom" 240 0 basechar 0
LayerCount: 2
Fore
SplineSet
434 148 m 0,0,1
 434 96 434 96 408 61 c 128,-1,2
 382 26 382 26 334 8 c 128,-1,3
 286 -10 286 -10 220 -10 c 0,4,5
 164 -10 164 -10 123.5 -1 c 128,-1,6
 83 8 83 8 52 24 c 1,7,-1
 52 104 l 1,8,9
 84 88 84 88 129.5 74.5 c 128,-1,10
 175 61 175 61 222 61 c 0,11,12
 289 61 289 61 319 82.5 c 128,-1,13
 349 104 349 104 349 140 c 0,14,15
 349 160 349 160 338 176 c 128,-1,16
 327 192 327 192 298.5 208 c 128,-1,17
 270 224 270 224 217 244 c 0,18,19
 165 264 165 264 128 284 c 128,-1,20
 91 304 91 304 71 332 c 128,-1,21
 51 360 51 360 51 404 c 0,22,23
 51 472 51 472 106.5 509 c 128,-1,24
 162 546 162 546 252 546 c 0,25,26
 301 546 301 546 343.5 536.5 c 128,-1,27
 386 527 386 527 423 510 c 1,28,-1
 393 440 l 1,29,30
 359 454 359 454 322 464 c 128,-1,31
 285 474 285 474 246 474 c 0,32,33
 192 474 192 474 163.5 456.5 c 128,-1,34
 135 439 135 439 135 409 c 0,35,36
 135 387 135 387 148 371.5 c 128,-1,37
 161 356 161 356 191.5 341.5 c 128,-1,38
 222 327 222 327 273 307 c 0,39,40
 324 288 324 288 360 268 c 128,-1,41
 396 248 396 248 415 219.5 c 128,-1,42
 434 191 434 191 434 148 c 0,0,1
EndSplineSet
Substitution2: "'smcp' Lowercase to Small Capitals lookup 39 subtable" s.sc
Substitution2: "'sinf' Scientific Inferiors lookup 24 subtable" subscripts
Substitution2: "'subs' Subscript lookup 23 subtable" subscripts
AlternateSubs2: "'aalt' Access All Alternates lookup 1 subtable" subscripts s.sc
EndChar

StartChar: t
Encoding: 116 116 87
Width: 361
VWidth: 1000
GlyphClass: 2
Flags: W
AnchorPoint: "NECorner" 225 840 basechar 0
AnchorPoint: "Top" 154 659 basechar 0
AnchorPoint: "Middle" 181 268 basechar 0
AnchorPoint: "Bottom" 214 0 basechar 0
LayerCount: 2
Fore
SplineSet
264 62 m 0,0,1
 284 62 284 62 305 65.5 c 128,-1,2
 326 69 326 69 339 73 c 1,3,-1
 339 6 l 1,4,5
 325 -1 325 -1 299 -5.5 c 128,-1,6
 273 -10 273 -10 249 -10 c 0,7,8
 207 -10 207 -10 171.5 4.5 c 128,-1,9
 136 19 136 19 114 55 c 128,-1,10
 92 91 92 91 92 156 c 2,11,-1
 92 468 l 1,12,-1
 16 468 l 1,13,-1
 16 510 l 1,14,-1
 93 545 l 1,15,-1
 128 659 l 1,16,-1
 180 659 l 1,17,-1
 180 536 l 1,18,-1
 335 536 l 1,19,-1
 335 468 l 1,20,-1
 180 468 l 1,21,-1
 180 158 l 2,22,23
 180 109 180 109 203.5 85.5 c 128,-1,24
 227 62 227 62 264 62 c 0,0,1
EndSplineSet
Substitution2: "'smcp' Lowercase to Small Capitals lookup 39 subtable" t.sc
Substitution2: "'sinf' Scientific Inferiors lookup 24 subtable" subscriptt
Substitution2: "'subs' Subscript lookup 23 subtable" subscriptt
AlternateSubs2: "'aalt' Access All Alternates lookup 1 subtable" subscriptt t.sc
EndChar

StartChar: u
Encoding: 117 117 88
Width: 618
VWidth: 1000
GlyphClass: 2
Flags: W
AnchorPoint: "NECorner" 562 536 basechar 0
AnchorPoint: "Top" 309 536 basechar 0
AnchorPoint: "Middle" 306 263 basechar 0
AnchorPoint: "Bottom" 294 0 basechar 0
LayerCount: 2
Fore
SplineSet
533 536 m 1,0,-1
 533 0 l 1,1,-1
 461 0 l 1,2,-1
 448 71 l 1,3,-1
 444 71 l 1,4,5
 427 43 427 43 400 25 c 128,-1,6
 373 7 373 7 341 -1.5 c 128,-1,7
 309 -10 309 -10 274 -10 c 0,8,9
 210 -10 210 -10 166.5 10.5 c 128,-1,10
 123 31 123 31 101 74 c 128,-1,11
 79 117 79 117 79 185 c 2,12,-1
 79 536 l 1,13,-1
 168 536 l 1,14,-1
 168 191 l 2,15,16
 168 127 168 127 197 95 c 128,-1,17
 226 63 226 63 287 63 c 0,18,19
 347 63 347 63 381.5 85.5 c 128,-1,20
 416 108 416 108 430.5 151.5 c 128,-1,21
 445 195 445 195 445 257 c 2,22,-1
 445 536 l 1,23,-1
 533 536 l 1,0,-1
EndSplineSet
Substitution2: "'smcp' Lowercase to Small Capitals lookup 39 subtable" u.sc
Substitution2: "'aalt' Access All Alternates lookup 0 subtable" u.sc
EndChar

StartChar: v
Encoding: 118 118 89
Width: 508
VWidth: 1000
GlyphClass: 2
Flags: W
AnchorPoint: "NECorner" 488 536 basechar 0
AnchorPoint: "Top" 252 536 basechar 0
AnchorPoint: "Middle" 254 268 basechar 0
AnchorPoint: "Bottom" 252 0 basechar 0
LayerCount: 2
Fore
SplineSet
203 0 m 1,0,-1
 0 536 l 1,1,-1
 94 536 l 1,2,-1
 208 220 l 2,3,4
 216 198 216 198 225 171 c 128,-1,5
 234 144 234 144 241 119.5 c 128,-1,6
 248 95 248 95 251 78 c 1,7,-1
 255 78 l 1,8,9
 259 95 259 95 266.5 120 c 128,-1,10
 274 145 274 145 283.5 172 c 128,-1,11
 293 199 293 199 300 220 c 2,12,-1
 414 536 l 1,13,-1
 508 536 l 1,14,-1
 304 0 l 1,15,-1
 203 0 l 1,0,-1
EndSplineSet
Substitution2: "'smcp' Lowercase to Small Capitals lookup 39 subtable" v.sc
Substitution2: "'aalt' Access All Alternates lookup 0 subtable" v.sc
EndChar

StartChar: w
Encoding: 119 119 90
Width: 786
VWidth: 1000
GlyphClass: 2
Flags: W
AnchorPoint: "NECorner" 766 536 basechar 0
AnchorPoint: "Top" 393 536 basechar 0
AnchorPoint: "Middle" 393 269 basechar 0
AnchorPoint: "Bottom" 391 0 basechar 0
LayerCount: 2
Fore
SplineSet
431 303 m 2,0,1
 425 324 425 324 419 344.5 c 128,-1,2
 413 365 413 365 408.5 383.5 c 128,-1,3
 404 402 404 402 400 418 c 128,-1,4
 396 434 396 434 394 445 c 1,5,-1
 390 445 l 1,6,7
 388 434 388 434 384.5 418 c 128,-1,8
 381 402 381 402 376.5 383 c 128,-1,9
 372 364 372 364 366.5 343.5 c 128,-1,10
 361 323 361 323 354 302 c 2,11,-1
 258 1 l 1,12,-1
 158 1 l 1,13,-1
 11 537 l 1,14,-1
 102 537 l 1,15,-1
 176 251 l 2,16,17
 184 222 184 222 191 192.5 c 128,-1,18
 198 163 198 163 203.5 136.5 c 128,-1,19
 209 110 209 110 211 91 c 1,20,-1
 215 91 l 1,21,22
 218 103 218 103 222 121 c 128,-1,23
 226 139 226 139 230.5 159 c 128,-1,24
 235 179 235 179 240.5 199 c 128,-1,25
 246 219 246 219 251 235 c 2,26,-1
 346 537 l 1,27,-1
 442 537 l 1,28,-1
 534 235 l 2,29,30
 541 212 541 212 548.5 186 c 128,-1,31
 556 160 556 160 562 135.5 c 128,-1,32
 568 111 568 111 570 92 c 1,33,-1
 574 92 l 1,34,35
 576 109 576 109 581.5 134.5 c 128,-1,36
 587 160 587 160 594.5 190.5 c 128,-1,37
 602 221 602 221 610 251 c 2,38,-1
 685 537 l 1,39,-1
 775 537 l 1,40,-1
 626 1 l 1,41,-1
 523 1 l 1,42,-1
 431 303 l 2,0,1
EndSplineSet
Substitution2: "'smcp' Lowercase to Small Capitals lookup 39 subtable" w.sc
Substitution2: "'aalt' Access All Alternates lookup 0 subtable" w.sc
EndChar

StartChar: x
Encoding: 120 120 91
Width: 529
VWidth: 1000
GlyphClass: 2
Flags: W
AnchorPoint: "NECorner" 509 536 basechar 0
AnchorPoint: "Top" 263 536 basechar 0
AnchorPoint: "Middle" 264 268 basechar 0
AnchorPoint: "Bottom" 265 0 basechar 0
LayerCount: 2
Fore
SplineSet
212 274 m 1,0,-1
 27 536 l 1,1,-1
 127 536 l 1,2,-1
 265 334 l 1,3,-1
 402 536 l 1,4,-1
 501 536 l 1,5,-1
 316 274 l 1,6,-1
 511 0 l 1,7,-1
 411 0 l 1,8,-1
 265 214 l 1,9,-1
 117 0 l 1,10,-1
 18 0 l 1,11,-1
 212 274 l 1,0,-1
EndSplineSet
Substitution2: "'smcp' Lowercase to Small Capitals lookup 39 subtable" x.sc
Substitution2: "'aalt' Access All Alternates lookup 0 subtable" x.sc
EndChar

StartChar: y
Encoding: 121 121 92
Width: 510
VWidth: 1000
GlyphClass: 2
Flags: W
AnchorPoint: "NECorner" 490 536 basechar 0
AnchorPoint: "Top" 255 536 basechar 0
AnchorPoint: "Middle" 255 148 basechar 0
AnchorPoint: "Bottom" 94 -240 basechar 0
LayerCount: 2
Fore
SplineSet
1 536 m 1,0,-1
 95 536 l 1,1,-1
 211 231 l 2,2,3
 221 204 221 204 229.5 179 c 128,-1,4
 238 154 238 154 245 130.5 c 128,-1,5
 252 107 252 107 256 85 c 1,6,-1
 260 85 l 1,7,8
 266 110 266 110 279 150.5 c 128,-1,9
 292 191 292 191 306 232 c 2,10,-1
 415 536 l 1,11,-1
 510 536 l 1,12,-1
 279 -74 l 2,13,14
 260 -124 260 -124 234.5 -161.5 c 128,-1,15
 209 -199 209 -199 172.5 -219.5 c 128,-1,16
 136 -240 136 -240 84 -240 c 0,17,18
 60 -240 60 -240 42 -237.5 c 128,-1,19
 24 -235 24 -235 11 -232 c 1,20,-1
 11 -162 l 1,21,22
 22 -164 22 -164 37.5 -166 c 128,-1,23
 53 -168 53 -168 70 -168 c 0,24,25
 101 -168 101 -168 123.5 -156.5 c 128,-1,26
 146 -145 146 -145 162 -123.5 c 128,-1,27
 178 -102 178 -102 189 -73 c 2,28,-1
 217 -2 l 1,29,-1
 1 536 l 1,0,-1
EndSplineSet
Substitution2: "'smcp' Lowercase to Small Capitals lookup 39 subtable" y.sc
Substitution2: "'aalt' Access All Alternates lookup 0 subtable" y.sc
EndChar

StartChar: z
Encoding: 122 122 93
Width: 470
VWidth: 1000
GlyphClass: 2
Flags: W
AnchorPoint: "NECorner" 430 536 basechar 0
AnchorPoint: "Top" 235 536 basechar 0
AnchorPoint: "Middle" 235 268 basechar 0
AnchorPoint: "Bottom" 242 0 basechar 0
LayerCount: 2
Fore
SplineSet
431 0 m 1,0,-1
 39 0 l 1,1,-1
 39 58 l 1,2,-1
 327 468 l 1,3,-1
 56 468 l 1,4,-1
 56 536 l 1,5,-1
 424 536 l 1,6,-1
 424 470 l 1,7,-1
 140 68 l 1,8,-1
 431 68 l 1,9,-1
 431 0 l 1,0,-1
EndSplineSet
Substitution2: "'smcp' Lowercase to Small Capitals lookup 39 subtable" z.sc
Substitution2: "'aalt' Access All Alternates lookup 0 subtable" z.sc
EndChar

StartChar: leftcurlybracket
Encoding: 123 123 94
Width: 380
VWidth: 1000
GlyphClass: 1
Flags: W
LayerCount: 2
Fore
SplineSet
348 -158 m 1,0,1
 287 -157 287 -157 242.5 -140 c 128,-1,2
 198 -123 198 -123 174 -87.5 c 128,-1,3
 150 -52 150 -52 150 1 c 2,4,-1
 150 148 l 2,5,6
 150 182 150 182 136 202.5 c 128,-1,7
 122 223 122 223 95 232.5 c 128,-1,8
 68 242 68 242 28 242 c 1,9,-1
 28 315 l 1,10,11
 68 316 68 316 95 325 c 128,-1,12
 122 334 122 334 136 354.5 c 128,-1,13
 150 375 150 375 150 408 c 2,14,-1
 150 556 l 2,15,16
 150 609 150 609 175 644 c 128,-1,17
 200 679 200 679 245 696.5 c 128,-1,18
 290 714 290 714 348 714 c 1,19,-1
 348 642 l 1,20,21
 314 641 314 641 289 631 c 128,-1,22
 264 621 264 621 250.5 601 c 128,-1,23
 237 581 237 581 237 548 c 2,24,-1
 237 404 l 2,25,26
 237 353 237 353 210 322.5 c 128,-1,27
 183 292 183 292 128 282 c 1,28,-1
 128 276 l 1,29,30
 184 266 184 266 210.5 235.5 c 128,-1,31
 237 205 237 205 237 154 c 2,32,-1
 237 7 l 2,33,34
 237 -25 237 -25 250 -45.5 c 128,-1,35
 263 -66 263 -66 288 -75.5 c 128,-1,36
 313 -85 313 -85 348 -86 c 1,37,-1
 348 -158 l 1,0,1
EndSplineSet
Substitution2: "'smcp' Lowercase to Small Capitals lookup 39 subtable" leftcurlybracket.sc
Substitution2: "'c2sc' Capitals to Small Capitals lookup 38 subtable" leftcurlybracket.sc
Substitution2: "'aalt' Access All Alternates lookup 0 subtable" leftcurlybracket.sc
EndChar

StartChar: verticalline
Encoding: 124 124 95
Width: 551
VWidth: 1000
GlyphClass: 1
Flags: W
LayerCount: 2
Fore
SplineSet
239 760 m 1,0,-1
 312 760 l 1,1,-1
 312 -241 l 1,2,-1
 239 -241 l 1,3,-1
 239 760 l 1,0,-1
EndSplineSet
EndChar

StartChar: rightcurlybracket
Encoding: 125 125 96
Width: 380
VWidth: 1000
GlyphClass: 1
Flags: W
LayerCount: 2
Fore
SplineSet
32 -86 m 1,0,1
 67 -85 67 -85 91.5 -75 c 128,-1,2
 116 -65 116 -65 129.5 -44.5 c 128,-1,3
 143 -24 143 -24 143 8 c 2,4,-1
 143 153 l 2,5,6
 143 204 143 204 170 234.5 c 128,-1,7
 197 265 197 265 252 275 c 1,8,-1
 252 281 l 1,9,10
 197 291 197 291 170 321.5 c 128,-1,11
 143 352 143 352 143 403 c 2,12,-1
 143 549 l 2,13,14
 143 582 143 582 130 602 c 128,-1,15
 117 622 117 622 92.5 632 c 128,-1,16
 68 642 68 642 32 642 c 1,17,-1
 32 714 l 1,18,19
 94 714 94 714 138 696.5 c 128,-1,20
 182 679 182 679 206 644 c 128,-1,21
 230 609 230 609 230 555 c 2,22,-1
 230 409 l 2,23,24
 230 375 230 375 244 354.5 c 128,-1,25
 258 334 258 334 285.5 324.5 c 128,-1,26
 313 315 313 315 352 315 c 1,27,-1
 352 242 l 1,28,29
 313 242 313 242 285.5 232.5 c 128,-1,30
 258 223 258 223 244 203 c 128,-1,31
 230 183 230 183 230 149 c 2,32,-1
 230 0 l 2,33,34
 230 -53 230 -53 205 -88 c 128,-1,35
 180 -123 180 -123 135.5 -140.5 c 128,-1,36
 91 -158 91 -158 32 -158 c 1,37,-1
 32 -86 l 1,0,1
EndSplineSet
Substitution2: "'smcp' Lowercase to Small Capitals lookup 39 subtable" rightcurlybracket.sc
Substitution2: "'c2sc' Capitals to Small Capitals lookup 38 subtable" rightcurlybracket.sc
Substitution2: "'aalt' Access All Alternates lookup 0 subtable" rightcurlybracket.sc
EndChar

StartChar: tilde
Encoding: 126 126 97
Width: 572
VWidth: 1000
GlyphClass: 1
Flags: W
LayerCount: 2
Fore
SplineSet
269 319 m 0,0,1
 233 335 233 335 209.5 340.5 c 128,-1,2
 186 346 186 346 164 346 c 0,3,4
 136 346 136 346 105 329 c 128,-1,5
 74 312 74 312 50 287 c 1,6,-1
 50 365 l 1,7,8
 74 391 74 391 104 404.5 c 128,-1,9
 134 418 134 418 170 418 c 0,10,11
 199 418 199 418 227.5 412 c 128,-1,12
 256 406 256 406 302 386 c 0,13,14
 338 370 338 370 361.5 364.5 c 128,-1,15
 385 359 385 359 406 359 c 0,16,17
 435 359 435 359 466 376 c 128,-1,18
 497 393 497 393 521 418 c 1,19,-1
 521 341 l 1,20,21
 497 315 497 315 467 301 c 128,-1,22
 437 287 437 287 401 287 c 0,23,24
 373 287 373 287 343.5 293.5 c 128,-1,25
 314 300 314 300 269 319 c 0,0,1
EndSplineSet
EndChar

StartChar: invertedexclamation
Encoding: 161 161 99
Width: 269
VWidth: 1000
GlyphClass: 1
Flags: W
LayerCount: 2
Fore
SplineSet
104 330 m 1,0,-1
 162 330 l 1,1,-1
 187 -182 l 1,2,-1
 79 -182 l 1,3,-1
 104 330 l 1,0,-1
196 478 m 0,4,5
 196 441 196 441 178 426 c 128,-1,6
 160 411 160 411 134 411 c 0,7,8
 109 411 109 411 90.5 426 c 128,-1,9
 72 441 72 441 72 478 c 0,10,11
 72 514 72 514 90.5 530 c 128,-1,12
 109 546 109 546 134 546 c 0,13,14
 160 546 160 546 178 530 c 128,-1,15
 196 514 196 514 196 478 c 0,4,5
EndSplineSet
Substitution2: "'smcp' Lowercase to Small Capitals lookup 39 subtable" invertedexclamation.sc
Substitution2: "'c2sc' Capitals to Small Capitals lookup 38 subtable" invertedexclamation.sc
Substitution2: "'aalt' Access All Alternates lookup 0 subtable" invertedexclamation.sc
EndChar

StartChar: cent
Encoding: 162 162 100
Width: 572
VWidth: 1000
GlyphClass: 1
Flags: W
LayerCount: 2
Fore
SplineSet
353 644 m 1,0,1
 391 643 391 643 425.5 634.5 c 128,-1,2
 460 626 460 626 485 615 c 1,3,-1
 459 542 l 1,4,5
 433 552 433 552 400 560 c 128,-1,6
 367 568 367 568 340 568 c 0,7,8
 286 568 286 568 250.5 545.5 c 128,-1,9
 215 523 215 523 198 477.5 c 128,-1,10
 181 432 181 432 181 363 c 256,11,12
 181 294 181 294 198.5 250 c 128,-1,13
 216 206 216 206 250.5 185 c 128,-1,14
 285 164 285 164 336 164 c 0,15,16
 380 164 380 164 412.5 172.5 c 128,-1,17
 445 181 445 181 476 194 c 1,18,-1
 476 117 l 1,19,20
 449 104 449 104 420 96.5 c 128,-1,21
 391 89 391 89 352 87 c 1,22,-1
 352 -10 l 1,23,-1
 285 -10 l 1,24,-1
 285 90 l 1,25,26
 226 99 226 99 182.5 129 c 128,-1,27
 139 159 139 159 115 216 c 128,-1,28
 91 273 91 273 91 362 c 0,29,30
 91 453 91 453 115 511 c 128,-1,31
 139 569 139 569 183 600 c 128,-1,32
 227 631 227 631 285 640 c 1,33,-1
 285 724 l 1,34,-1
 353 724 l 1,35,-1
 353 644 l 1,0,1
EndSplineSet
EndChar

StartChar: pound
Encoding: 163 163 101
Width: 572
VWidth: 1000
GlyphClass: 1
Flags: W
LayerCount: 2
Fore
SplineSet
334 723 m 0,0,1
 389 723 389 723 433 711 c 128,-1,2
 477 699 477 699 511 682 c 1,3,-1
 480 612 l 1,4,5
 450 626 450 626 413.5 638 c 128,-1,6
 377 650 377 650 336 650 c 0,7,8
 279 650 279 650 249 620.5 c 128,-1,9
 219 591 219 591 219 525 c 2,10,-1
 219 386 l 1,11,-1
 423 386 l 1,12,-1
 423 320 l 1,13,-1
 219 320 l 1,14,-1
 219 216 l 2,15,16
 219 176 219 176 209.5 149.5 c 128,-1,17
 200 123 200 123 184.5 107 c 128,-1,18
 169 91 169 91 151 80 c 1,19,-1
 535 80 l 1,20,-1
 535 0 l 1,21,-1
 32 0 l 1,22,-1
 32 74 l 1,23,24
 61 81 61 81 83 97.5 c 128,-1,25
 105 114 105 114 118 142.5 c 128,-1,26
 131 171 131 171 131 215 c 2,27,-1
 131 320 l 1,28,-1
 35 320 l 1,29,-1
 35 386 l 1,30,-1
 131 386 l 1,31,-1
 131 534 l 2,32,33
 131 594 131 594 156 636 c 128,-1,34
 181 678 181 678 227 700.5 c 128,-1,35
 273 723 273 723 334 723 c 0,0,1
EndSplineSet
EndChar

StartChar: currency
Encoding: 164 164 102
Width: 572
VWidth: 1000
GlyphClass: 1
Flags: W
LayerCount: 2
Fore
SplineSet
90 353 m 0,0,1
 90 383 90 383 99.5 411.5 c 128,-1,2
 109 440 109 440 125 463 c 1,3,-1
 59 531 l 1,4,-1
 108 578 l 1,5,-1
 174 514 l 1,6,7
 197 531 197 531 226 540 c 128,-1,8
 255 549 255 549 286 549 c 256,9,10
 317 549 317 549 344.5 540 c 128,-1,11
 372 531 372 531 396 514 c 1,12,-1
 463 578 l 1,13,-1
 511 531 l 1,14,-1
 447 464 l 1,15,16
 462 441 462 441 472 412.5 c 128,-1,17
 482 384 482 384 482 353 c 256,18,19
 482 322 482 322 473 293 c 128,-1,20
 464 264 464 264 447 241 c 1,21,-1
 510 175 l 1,22,-1
 463 128 l 1,23,-1
 396 192 l 1,24,25
 373 176 373 176 345 167 c 128,-1,26
 317 158 317 158 286 158 c 256,27,28
 255 158 255 158 226 167.5 c 128,-1,29
 197 177 197 177 174 193 c 1,30,-1
 108 129 l 1,31,-1
 60 176 l 1,32,-1
 125 242 l 1,33,34
 109 265 109 265 99.5 293.5 c 128,-1,35
 90 322 90 322 90 353 c 0,0,1
157 353 m 0,36,37
 157 317 157 317 174 288 c 128,-1,38
 191 259 191 259 220.5 241.5 c 128,-1,39
 250 224 250 224 286 224 c 0,40,41
 323 224 323 224 352 241.5 c 128,-1,42
 381 259 381 259 398.5 288 c 128,-1,43
 416 317 416 317 416 353 c 0,44,45
 416 390 416 390 398.5 419.5 c 128,-1,46
 381 449 381 449 352 466.5 c 128,-1,47
 323 484 323 484 286 484 c 0,48,49
 250 484 250 484 220.5 466.5 c 128,-1,50
 191 449 191 449 174 419.5 c 128,-1,51
 157 390 157 390 157 353 c 0,36,37
EndSplineSet
EndChar

StartChar: yen
Encoding: 165 165 103
Width: 572
VWidth: 1000
GlyphClass: 1
Flags: W
LayerCount: 2
Fore
SplineSet
285 365 m 1,0,-1
 464 714 l 1,1,-1
 556 714 l 1,2,-1
 355 339 l 1,3,-1
 479 339 l 1,4,-1
 479 275 l 1,5,-1
 328 275 l 1,6,-1
 328 193 l 1,7,-1
 479 193 l 1,8,-1
 479 129 l 1,9,-1
 328 129 l 1,10,-1
 328 0 l 1,11,-1
 242 0 l 1,12,-1
 242 129 l 1,13,-1
 91 129 l 1,14,-1
 91 193 l 1,15,-1
 242 193 l 1,16,-1
 242 275 l 1,17,-1
 91 275 l 1,18,-1
 91 339 l 1,19,-1
 213 339 l 1,20,-1
 14 714 l 1,21,-1
 107 714 l 1,22,-1
 285 365 l 1,0,-1
EndSplineSet
EndChar

StartChar: brokenbar
Encoding: 166 166 104
Width: 551
VWidth: 1000
GlyphClass: 1
Flags: W
LayerCount: 2
Fore
SplineSet
239 760 m 1,0,-1
 312 760 l 1,1,-1
 312 379 l 1,2,-1
 239 379 l 1,3,-1
 239 760 l 1,0,-1
239 140 m 1,4,-1
 312 140 l 1,5,-1
 312 -241 l 1,6,-1
 239 -241 l 1,7,-1
 239 140 l 1,4,-1
EndSplineSet
EndChar

StartChar: section
Encoding: 167 167 105
Width: 513
VWidth: 1000
GlyphClass: 1
Flags: W
LayerCount: 2
Fore
SplineSet
67 395 m 0,0,1
 67 445 67 445 91 475.5 c 128,-1,2
 115 506 115 506 146 521 c 1,3,4
 110 541 110 541 90 568.5 c 128,-1,5
 70 596 70 596 70 636 c 0,6,7
 70 696 70 696 121 730.5 c 128,-1,8
 172 765 172 765 267 765 c 0,9,10
 323 765 323 765 362 755.5 c 128,-1,11
 401 746 401 746 438 731 c 1,12,-1
 411 664 l 1,13,14
 377 678 377 678 343 687.5 c 128,-1,15
 309 697 309 697 261 697 c 0,16,17
 201 697 201 697 176.5 681.5 c 128,-1,18
 152 666 152 666 152 638 c 0,19,20
 152 620 152 620 164 605.5 c 128,-1,21
 176 591 176 591 204.5 576.5 c 128,-1,22
 233 562 233 562 284 543 c 0,23,24
 336 524 336 524 372 502 c 128,-1,25
 408 480 408 480 427.5 451.5 c 128,-1,26
 447 423 447 423 447 383 c 0,27,28
 447 332 447 332 424 299.5 c 128,-1,29
 401 267 401 267 372 250 c 1,30,31
 407 231 407 231 426.5 204.5 c 128,-1,32
 446 178 446 178 446 140 c 0,33,34
 446 71 446 71 388.5 33 c 128,-1,35
 331 -5 331 -5 228 -5 c 0,36,37
 173 -5 173 -5 132 3.5 c 128,-1,38
 91 12 91 12 59 28 c 1,39,-1
 59 103 l 1,40,41
 81 93 81 93 109 83.5 c 128,-1,42
 137 74 137 74 169 68 c 128,-1,43
 201 62 201 62 232 62 c 0,44,45
 306 62 306 62 334 83.5 c 128,-1,46
 362 105 362 105 362 133 c 0,47,48
 362 152 362 152 352.5 166 c 128,-1,49
 343 180 343 180 315.5 195.5 c 128,-1,50
 288 211 288 211 233 231 c 0,51,52
 181 251 181 251 143.5 272 c 128,-1,53
 106 293 106 293 86.5 322 c 128,-1,54
 67 351 67 351 67 395 c 0,0,1
142 405 m 0,55,56
 142 381 142 381 155.5 361.5 c 128,-1,57
 169 342 169 342 200.5 324.5 c 128,-1,58
 232 307 232 307 285 287 c 2,59,-1
 307 279 l 1,60,61
 330 293 330 293 350.5 314.5 c 128,-1,62
 371 336 371 336 371 370 c 0,63,64
 371 395 371 395 357.5 415 c 128,-1,65
 344 435 344 435 310 453.5 c 128,-1,66
 276 472 276 472 214 491 c 1,67,68
 186 484 186 484 164 461 c 128,-1,69
 142 438 142 438 142 405 c 0,55,56
EndSplineSet
EndChar

StartChar: uml
Encoding: 168 168 106
Width: 580
VWidth: 1000
GlyphClass: 1
Flags: W
LayerCount: 2
Fore
SplineSet
149 681 m 0,0,1
 149 707 149 707 163 718.5 c 128,-1,2
 177 730 177 730 196 730 c 256,3,4
 215 730 215 730 229 718.5 c 128,-1,5
 243 707 243 707 243 681 c 0,6,7
 243 656 243 656 229 643.5 c 128,-1,8
 215 631 215 631 196 631 c 256,9,10
 177 631 177 631 163 643.5 c 128,-1,11
 149 656 149 656 149 681 c 0,0,1
337 681 m 0,12,13
 337 707 337 707 350.5 718.5 c 128,-1,14
 364 730 364 730 383 730 c 256,15,16
 402 730 402 730 416 718.5 c 128,-1,17
 430 707 430 707 430 681 c 0,18,19
 430 656 430 656 416 643.5 c 128,-1,20
 402 631 402 631 383 631 c 256,21,22
 364 631 364 631 350.5 643.5 c 128,-1,23
 337 656 337 656 337 681 c 0,12,13
EndSplineSet
EndChar

StartChar: copy
Encoding: 169 169 107
Width: 832
VWidth: 1000
GlyphClass: 1
Flags: W
LayerCount: 2
Fore
SplineSet
431 133 m 0,0,1
 332 133 332 133 283 194.5 c 128,-1,2
 234 256 234 256 234 357 c 0,3,4
 234 422 234 422 257 472.5 c 128,-1,5
 280 523 280 523 325 551.5 c 128,-1,6
 370 580 370 580 435 580 c 0,7,8
 466 580 466 580 498 572 c 128,-1,9
 530 564 530 564 558 550 c 1,10,-1
 529 489 l 1,11,12
 504 502 504 502 480.5 508.5 c 128,-1,13
 457 515 457 515 436 515 c 0,14,15
 377 515 377 515 344.5 473 c 128,-1,16
 312 431 312 431 312 357 c 0,17,18
 312 281 312 281 340.5 239.5 c 128,-1,19
 369 198 369 198 435 198 c 0,20,21
 458 198 458 198 486.5 204.5 c 128,-1,22
 515 211 515 211 540 221 c 1,23,-1
 540 157 l 1,24,25
 516 147 516 147 491 140 c 128,-1,26
 466 133 466 133 431 133 c 0,0,1
416 -10 m 256,27,28
 336 -10 336 -10 269 17 c 128,-1,29
 202 44 202 44 152.5 93.5 c 128,-1,30
 103 143 103 143 76 210 c 128,-1,31
 49 277 49 277 49 357 c 256,32,33
 49 437 49 437 76 504 c 128,-1,34
 103 571 103 571 152.5 620.5 c 128,-1,35
 202 670 202 670 269 697 c 128,-1,36
 336 724 336 724 416 724 c 0,37,38
 492 724 492 724 558.5 697 c 128,-1,39
 625 670 625 670 675.5 620.5 c 128,-1,40
 726 571 726 571 754.5 504 c 128,-1,41
 783 437 783 437 783 357 c 256,42,43
 783 277 783 277 756 210 c 128,-1,44
 729 143 729 143 679.5 93.5 c 128,-1,45
 630 44 630 44 563 17 c 128,-1,46
 496 -10 496 -10 416 -10 c 256,27,28
416 43 m 0,47,48
 480 43 480 43 536 66 c 128,-1,49
 592 89 592 89 635 131.5 c 128,-1,50
 678 174 678 174 702 231 c 128,-1,51
 726 288 726 288 726 357 c 0,52,53
 726 422 726 422 703 479 c 128,-1,54
 680 536 680 536 638.5 579 c 128,-1,55
 597 622 597 622 540.5 646.5 c 128,-1,56
 484 671 484 671 416 671 c 256,57,58
 348 671 348 671 291 648 c 128,-1,59
 234 625 234 625 192.5 582.5 c 128,-1,60
 151 540 151 540 128 483 c 128,-1,61
 105 426 105 426 105 357 c 0,62,63
 105 292 105 292 128 235 c 128,-1,64
 151 178 151 178 192.5 135 c 128,-1,65
 234 92 234 92 291 67.5 c 128,-1,66
 348 43 348 43 416 43 c 0,47,48
EndSplineSet
EndChar

StartChar: feminineordinalindicator
Encoding: 170 170 108
Width: 357
VWidth: 1000
GlyphClass: 2
Flags: W
AnchorPoint: "Top" 172 725 basechar 0
AnchorPoint: "Middle" 170 552 basechar 0
AnchorPoint: "Bottom" 172 384 basechar 0
LayerCount: 2
Fore
SplineSet
177 722 m 0,0,1
 242 722 242 722 275 695 c 128,-1,2
 308 668 308 668 308 609 c 2,3,-1
 308 389 l 1,4,-1
 261 389 l 1,5,-1
 249 431 l 1,6,7
 229 410 229 410 201 396.5 c 128,-1,8
 173 383 173 383 135 383 c 0,9,10
 104 383 104 383 80.5 394 c 128,-1,11
 57 405 57 405 44.5 427 c 128,-1,12
 32 449 32 449 32 482 c 0,13,14
 32 516 32 516 49 538.5 c 128,-1,15
 66 561 66 561 101.5 573 c 128,-1,16
 137 585 137 585 190 587 c 2,17,-1
 246 589 l 1,18,-1
 246 611 l 2,19,20
 246 644 246 644 225 657 c 128,-1,21
 204 670 204 670 175 670 c 0,22,23
 147 670 147 670 122 662.5 c 128,-1,24
 97 655 97 655 74 644 c 1,25,-1
 52 693 l 1,26,27
 78 706 78 706 110.5 714 c 128,-1,28
 143 722 143 722 177 722 c 0,0,1
198 542 m 2,29,30
 138 540 138 540 117 524.5 c 128,-1,31
 96 509 96 509 96 482 c 0,32,33
 96 457 96 457 110.5 445.5 c 128,-1,34
 125 434 125 434 150 434 c 0,35,36
 201 434 201 434 223.5 457.5 c 128,-1,37
 246 481 246 481 246 521 c 2,38,-1
 246 544 l 1,39,-1
 198 542 l 2,29,30
EndSplineSet
EndChar

StartChar: leftguillemet
Encoding: 171 171 109
Width: 509
VWidth: 1000
GlyphClass: 1
Flags: W
LayerCount: 2
Fore
SplineSet
40 270 m 1,0,-1
 208 471 l 1,1,-1
 271 435 l 1,2,-1
 131 264 l 1,3,-1
 271 93 l 1,4,-1
 208 56 l 1,5,-1
 40 257 l 1,6,-1
 40 270 l 1,0,-1
238 270 m 1,7,-1
 408 471 l 1,8,-1
 470 435 l 1,9,-1
 330 264 l 1,10,-1
 470 93 l 1,11,-1
 408 56 l 1,12,-1
 238 257 l 1,13,-1
 238 270 l 1,7,-1
EndSplineSet
EndChar

StartChar: not
Encoding: 172 172 110
Width: 572
VWidth: 1000
GlyphClass: 1
Flags: W
LayerCount: 2
Fore
SplineSet
520 388 m 1,0,-1
 520 128 l 1,1,-1
 449 128 l 1,2,-1
 449 317 l 1,3,-1
 50 317 l 1,4,-1
 50 388 l 1,5,-1
 520 388 l 1,0,-1
EndSplineSet
EndChar

StartChar: registered
Encoding: 174 174 112
Width: 832
VWidth: 1000
GlyphClass: 1
Flags: W
LayerCount: 2
Fore
SplineSet
279 138 m 1,0,-1
 279 575 l 1,1,-1
 407 575 l 2,2,3
 489 575 489 575 527 543 c 128,-1,4
 565 511 565 511 565 446 c 0,5,6
 565 399 565 399 541 371.5 c 128,-1,7
 517 344 517 344 487 332 c 1,8,-1
 603 138 l 1,9,-1
 517 138 l 1,10,-1
 417 311 l 1,11,-1
 355 311 l 1,12,-1
 355 138 l 1,13,-1
 279 138 l 1,0,-1
405 373 m 2,14,15
 444 373 444 373 466 393 c 128,-1,16
 488 413 488 413 488 444 c 0,17,18
 488 479 488 479 468 495 c 128,-1,19
 448 511 448 511 404 511 c 2,20,-1
 355 511 l 1,21,-1
 355 373 l 1,22,-1
 405 373 l 2,14,15
416 -10 m 256,23,24
 336 -10 336 -10 269 17 c 128,-1,25
 202 44 202 44 152.5 93.5 c 128,-1,26
 103 143 103 143 76 210 c 128,-1,27
 49 277 49 277 49 357 c 256,28,29
 49 437 49 437 76 504 c 128,-1,30
 103 571 103 571 152.5 620.5 c 128,-1,31
 202 670 202 670 269 697 c 128,-1,32
 336 724 336 724 416 724 c 0,33,34
 492 724 492 724 558.5 697 c 128,-1,35
 625 670 625 670 675.5 620.5 c 128,-1,36
 726 571 726 571 754.5 504 c 128,-1,37
 783 437 783 437 783 357 c 256,38,39
 783 277 783 277 756 210 c 128,-1,40
 729 143 729 143 679.5 93.5 c 128,-1,41
 630 44 630 44 563 17 c 128,-1,42
 496 -10 496 -10 416 -10 c 256,23,24
416 43 m 0,43,44
 480 43 480 43 536 66 c 128,-1,45
 592 89 592 89 635 131.5 c 128,-1,46
 678 174 678 174 702 231 c 128,-1,47
 726 288 726 288 726 357 c 0,48,49
 726 422 726 422 703 479 c 128,-1,50
 680 536 680 536 638.5 579 c 128,-1,51
 597 622 597 622 540.5 646.5 c 128,-1,52
 484 671 484 671 416 671 c 256,53,54
 348 671 348 671 291 648 c 128,-1,55
 234 625 234 625 192.5 582.5 c 128,-1,56
 151 540 151 540 128 483 c 128,-1,57
 105 426 105 426 105 357 c 0,58,59
 105 292 105 292 128 235 c 128,-1,60
 151 178 151 178 192.5 135 c 128,-1,61
 234 92 234 92 291 67.5 c 128,-1,62
 348 43 348 43 416 43 c 0,43,44
EndSplineSet
EndChar

StartChar: macr
Encoding: 175 175 113
Width: 500
VWidth: 1000
GlyphClass: 1
Flags: W
LayerCount: 2
Fore
SplineSet
503 760 m 1,0,-1
 -3 760 l 1,1,-1
 -3 826 l 1,2,-1
 503 826 l 1,3,-1
 503 760 l 1,0,-1
EndSplineSet
Substitution2: "'c2sc' Capitals to Small Capitals lookup 38 subtable" macron.sc
Substitution2: "'aalt' Access All Alternates lookup 0 subtable" macron.sc
EndChar

StartChar: degree
Encoding: 176 176 114
Width: 428
VWidth: 1000
GlyphClass: 1
Flags: W
LayerCount: 2
Fore
SplineSet
214 417 m 0,0,1
 166 417 166 417 130.5 436.5 c 128,-1,2
 95 456 95 456 75 490.5 c 128,-1,3
 55 525 55 525 55 570 c 0,4,5
 55 616 55 616 74.5 650.5 c 128,-1,6
 94 685 94 685 129.5 704.5 c 128,-1,7
 165 724 165 724 214 724 c 0,8,9
 261 724 261 724 297 704.5 c 128,-1,10
 333 685 333 685 353 650.5 c 128,-1,11
 373 616 373 616 373 570 c 0,12,13
 373 525 373 525 353 490.5 c 128,-1,14
 333 456 333 456 297 436.5 c 128,-1,15
 261 417 261 417 214 417 c 0,0,1
215 476 m 0,16,17
 263 476 263 476 285.5 502 c 128,-1,18
 308 528 308 528 308 570 c 0,19,20
 308 614 308 614 284.5 640 c 128,-1,21
 261 666 261 666 215 666 c 0,22,23
 166 666 166 666 143 640 c 128,-1,24
 120 614 120 614 120 570 c 0,25,26
 120 528 120 528 143 502 c 128,-1,27
 166 476 166 476 215 476 c 0,16,17
EndSplineSet
EndChar

StartChar: plusminus
Encoding: 177 177 115
Width: 572
VWidth: 1000
GlyphClass: 1
Flags: W
LayerCount: 2
Fore
SplineSet
50 0 m 1,0,-1
 50 71 l 1,1,-1
 521 71 l 1,2,-1
 521 0 l 1,3,-1
 50 0 l 1,0,-1
321 391 m 1,4,-1
 520 391 l 1,5,-1
 520 320 l 1,6,-1
 321 320 l 1,7,-1
 321 114 l 1,8,-1
 249 114 l 1,9,-1
 249 320 l 1,10,-1
 50 320 l 1,11,-1
 50 391 l 1,12,-1
 249 391 l 1,13,-1
 249 598 l 1,14,-1
 321 598 l 1,15,-1
 321 391 l 1,4,-1
EndSplineSet
EndChar

StartChar: superscripttwo
Encoding: 178 178 116
Width: 350
VWidth: 1000
GlyphClass: 1
Flags: W
LayerCount: 2
Fore
SplineSet
306 416 m 1,0,-1
 24 416 l 1,1,-1
 24 470 l 1,2,-1
 139 582 l 2,3,4
 180 621 180 621 200.5 645.5 c 128,-1,5
 221 670 221 670 228.5 689.5 c 128,-1,6
 236 709 236 709 236 731 c 0,7,8
 236 763 236 763 217.5 779 c 128,-1,9
 199 795 199 795 169 795 c 256,10,11
 139 795 139 795 114.5 783.5 c 128,-1,12
 90 772 90 772 64 752 c 1,13,-1
 29 798 l 1,14,15
 58 823 58 823 92.5 838 c 128,-1,16
 127 853 127 853 170 853 c 0,17,18
 234 853 234 853 270.5 821.5 c 128,-1,19
 307 790 307 790 307 735 c 0,20,21
 307 702 307 702 293.5 674.5 c 128,-1,22
 280 647 280 647 254.5 618.5 c 128,-1,23
 229 590 229 590 192 555 c 2,24,-1
 111 478 l 1,25,-1
 306 478 l 1,26,-1
 306 416 l 1,0,-1
EndSplineSet
EndChar

StartChar: superscriptthree
Encoding: 179 179 117
Width: 350
VWidth: 1000
GlyphClass: 1
Flags: W
LayerCount: 2
Fore
SplineSet
165 853 m 0,0,1
 236 853 236 853 272 822 c 128,-1,2
 308 791 308 791 308 743 c 0,3,4
 308 703 308 703 286.5 677 c 128,-1,5
 265 651 265 651 235 641 c 1,6,-1
 235 638 l 1,7,8
 274 631 274 631 297.5 605.5 c 128,-1,9
 321 580 321 580 321 539 c 0,10,11
 321 481 321 481 279 444.5 c 128,-1,12
 237 408 237 408 148 408 c 0,13,14
 111 408 111 408 79 414.5 c 128,-1,15
 47 421 47 421 17 436 c 1,16,-1
 17 499 l 1,17,18
 51 483 51 483 85 474 c 128,-1,19
 119 465 119 465 149 465 c 0,20,21
 201 465 201 465 225 485.5 c 128,-1,22
 249 506 249 506 249 541 c 0,23,24
 249 577 249 577 220 593.5 c 128,-1,25
 191 610 191 610 139 610 c 2,26,-1
 82 610 l 1,27,-1
 82 665 l 1,28,-1
 139 665 l 2,29,30
 189 665 189 665 212.5 684.5 c 128,-1,31
 236 704 236 704 236 735 c 0,32,33
 236 767 236 767 215.5 781.5 c 128,-1,34
 195 796 195 796 166 796 c 0,35,36
 135 796 135 796 108.5 785.5 c 128,-1,37
 82 775 82 775 55 758 c 1,38,-1
 19 804 l 1,39,40
 50 827 50 827 84.5 840 c 128,-1,41
 119 853 119 853 165 853 c 0,0,1
EndSplineSet
EndChar

StartChar: acuteaccent
Encoding: 180 180 118
Width: 281
VWidth: 1000
GlyphClass: 1
Flags: W
LayerCount: 2
Fore
SplineSet
241 756 m 1,0,1
 232 742 232 742 215 722 c 128,-1,2
 198 702 198 702 177.5 680.5 c 128,-1,3
 157 659 157 659 136.5 639.5 c 128,-1,4
 116 620 116 620 98 606 c 1,5,-1
 40 606 l 1,6,-1
 40 618 l 1,7,8
 55 637 55 637 72.5 663 c 128,-1,9
 90 689 90 689 107 716.5 c 128,-1,10
 124 744 124 744 135 766 c 1,11,-1
 241 766 l 1,12,-1
 241 756 l 1,0,1
EndSplineSet
EndChar

StartChar: micro
Encoding: 181 181 119
Width: 623
VWidth: 1000
GlyphClass: 1
Flags: W
LayerCount: 2
Fore
SplineSet
538 536 m 1,0,-1
 538 0 l 1,1,-1
 467 0 l 1,2,-1
 453 72 l 1,3,-1
 448 72 l 1,4,5
 431 46 431 46 408 27.5 c 128,-1,6
 385 9 385 9 355 -0.5 c 128,-1,7
 325 -10 325 -10 287 -10 c 0,8,9
 248 -10 248 -10 220 2.5 c 128,-1,10
 192 15 192 15 172 35 c 1,11,-1
 168 35 l 1,12,13
 170 17 170 17 171.5 -13 c 128,-1,14
 173 -43 173 -43 173 -84 c 2,15,-1
 173 -240 l 1,16,-1
 85 -240 l 1,17,-1
 85 536 l 1,18,-1
 173 536 l 1,19,-1
 173 190 l 2,20,21
 173 128 173 128 203 95.5 c 128,-1,22
 233 63 233 63 293 63 c 256,23,24
 353 63 353 63 387 85.5 c 128,-1,25
 421 108 421 108 435.5 151.5 c 128,-1,26
 450 195 450 195 450 257 c 2,27,-1
 450 536 l 1,28,-1
 538 536 l 1,0,-1
EndSplineSet
EndChar

StartChar: pilcrow
Encoding: 182 182 120
Width: 655
VWidth: 1000
GlyphClass: 1
Flags: W
LayerCount: 2
Fore
SplineSet
549 -127 m 1,0,-1
 491 -127 l 1,1,-1
 491 704 l 1,2,-1
 389 704 l 1,3,-1
 389 -127 l 1,4,-1
 331 -127 l 1,5,-1
 331 273 l 1,6,7
 316 269 316 269 296.5 266.5 c 128,-1,8
 277 264 277 264 260 264 c 0,9,10
 198 264 198 264 152 287 c 128,-1,11
 106 310 106 310 80.5 364 c 128,-1,12
 55 418 55 418 55 509 c 0,13,14
 55 605 55 605 82.5 659.5 c 128,-1,15
 110 714 110 714 160 737 c 128,-1,16
 210 760 210 760 275 760 c 2,17,-1
 549 760 l 1,18,-1
 549 -127 l 1,0,-1
EndSplineSet
EndChar

StartChar: cedil
Encoding: 184 184 122
Width: 225
VWidth: 1000
GlyphClass: 1
Flags: W
LayerCount: 2
Fore
SplineSet
212 -139 m 0,0,1
 212 -187 212 -187 175 -213.5 c 128,-1,2
 138 -240 138 -240 64 -240 c 0,3,4
 49 -240 49 -240 35.5 -238.5 c 128,-1,5
 22 -237 22 -237 14 -235 c 1,6,-1
 14 -180 l 1,7,8
 23 -182 23 -182 38 -183.5 c 128,-1,9
 53 -185 53 -185 67 -185 c 0,10,11
 103 -185 103 -185 122 -175.5 c 128,-1,12
 141 -166 141 -166 141 -141 c 0,13,14
 141 -115 141 -115 114.5 -103 c 128,-1,15
 88 -91 88 -91 50 -86 c 1,16,-1
 93 0 l 1,17,-1
 151 0 l 1,18,-1
 125 -53 l 1,19,20
 149 -58 149 -58 169 -68.5 c 128,-1,21
 189 -79 189 -79 200.5 -96 c 128,-1,22
 212 -113 212 -113 212 -139 c 0,0,1
EndSplineSet
EndChar

StartChar: superscriptone
Encoding: 185 185 123
Width: 350
VWidth: 1000
GlyphClass: 1
Flags: W
LayerCount: 2
Fore
SplineSet
240 844 m 1,0,-1
 240 416 l 1,1,-1
 169 416 l 1,2,-1
 169 692 l 2,3,4
 169 709 169 709 169.5 724 c 128,-1,5
 170 739 170 739 171 753 c 128,-1,6
 172 767 172 767 173 781 c 1,7,8
 163 772 163 772 151 761.5 c 128,-1,9
 139 751 139 751 126 742 c 2,10,-1
 72 703 l 1,11,-1
 37 752 l 1,12,-1
 167 844 l 1,13,-1
 240 844 l 1,0,-1
EndSplineSet
EndChar

StartChar: masculineordinalindicator
Encoding: 186 186 124
Width: 376
VWidth: 1000
GlyphClass: 2
Flags: W
AnchorPoint: "Top" 190 725 basechar 0
AnchorPoint: "Middle" 188 552 basechar 0
AnchorPoint: "Bottom" 184 380 basechar 0
LayerCount: 2
Fore
SplineSet
345 553 m 0,0,1
 345 472 345 472 302 427.5 c 128,-1,2
 259 383 259 383 187 383 c 0,3,4
 120 383 120 383 76 426.5 c 128,-1,5
 32 470 32 470 32 553 c 0,6,7
 32 635 32 635 74 678.5 c 128,-1,8
 116 722 116 722 189 722 c 0,9,10
 236 722 236 722 271 702.5 c 128,-1,11
 306 683 306 683 325.5 645.5 c 128,-1,12
 345 608 345 608 345 553 c 0,0,1
95 553 m 0,13,14
 95 495 95 495 117 465.5 c 128,-1,15
 139 436 139 436 188 436 c 256,16,17
 237 436 237 436 259 465.5 c 128,-1,18
 281 495 281 495 281 553 c 0,19,20
 281 612 281 612 259 640.5 c 128,-1,21
 237 669 237 669 188 669 c 256,22,23
 139 669 139 669 117 640.5 c 128,-1,24
 95 612 95 612 95 553 c 0,13,14
EndSplineSet
EndChar

StartChar: rightguillemet
Encoding: 187 187 125
Width: 509
VWidth: 1000
GlyphClass: 1
Flags: W
LayerCount: 2
Fore
SplineSet
469 257 m 1,0,-1
 299 56 l 1,1,-1
 237 93 l 1,2,-1
 377 264 l 1,3,-1
 237 435 l 1,4,-1
 299 471 l 1,5,-1
 469 270 l 1,6,-1
 469 257 l 1,0,-1
270 257 m 1,7,-1
 101 56 l 1,8,-1
 39 93 l 1,9,-1
 179 264 l 1,10,-1
 39 435 l 1,11,-1
 101 471 l 1,12,-1
 270 270 l 1,13,-1
 270 257 l 1,7,-1
EndSplineSet
EndChar

StartChar: vulgarfractiononequarter
Encoding: 188 188 126
Width: 745
VWidth: 1000
GlyphClass: 1
Flags: W
LayerCount: 2
Fore
SplineSet
126 0 m 1,0,-1
 562 714 l 1,1,-1
 637 714 l 1,2,-1
 201 0 l 1,3,-1
 126 0 l 1,0,-1
166 562 m 2,4,5
 166 579 166 579 166.5 594 c 128,-1,6
 167 609 167 609 168 623 c 128,-1,7
 169 637 169 637 170 651 c 1,8,9
 160 642 160 642 148 631.5 c 128,-1,10
 136 621 136 621 123 612 c 2,11,-1
 69 573 l 1,12,-1
 34 622 l 1,13,-1
 164 714 l 1,14,-1
 237 714 l 1,15,-1
 237 286 l 1,16,-1
 166 286 l 1,17,-1
 166 562 l 2,4,5
600 0 m 1,18,-1
 600 96 l 1,19,-1
 405 96 l 1,20,-1
 405 148 l 1,21,-1
 602 431 l 1,22,-1
 675 431 l 1,23,-1
 675 156 l 1,24,-1
 736 156 l 1,25,-1
 736 96 l 1,26,-1
 675 96 l 1,27,-1
 675 0 l 1,28,-1
 600 0 l 1,18,-1
475 156 m 1,29,-1
 600 156 l 1,30,-1
 600 249 l 2,31,32
 600 270 600 270 601 298 c 128,-1,33
 602 326 602 326 603 350 c 1,34,35
 598 339 598 339 582 314.5 c 128,-1,36
 566 290 566 290 555 273 c 2,37,-1
 475 156 l 1,29,-1
EndSplineSet
EndChar

StartChar: vulgarfractiononehalf
Encoding: 189 189 127
Width: 771
VWidth: 1000
GlyphClass: 1
Flags: W
LayerCount: 2
Fore
SplineSet
96 0 m 1,0,-1
 532 714 l 1,1,-1
 607 714 l 1,2,-1
 171 0 l 1,3,-1
 96 0 l 1,0,-1
154 562 m 2,4,5
 154 575 154 575 154.5 586.5 c 128,-1,6
 155 598 155 598 155.5 609 c 128,-1,7
 156 620 156 620 156.5 630.5 c 128,-1,8
 157 641 157 641 158 651 c 1,9,10
 148 642 148 642 136 631.5 c 128,-1,11
 124 621 124 621 111 612 c 2,12,-1
 57 573 l 1,13,-1
 22 622 l 1,14,-1
 152 714 l 1,15,-1
 225 714 l 1,16,-1
 225 286 l 1,17,-1
 154 286 l 1,18,-1
 154 562 l 2,4,5
445 0 m 1,19,-1
 445 54 l 1,20,-1
 560 166 l 2,21,22
 601 205 601 205 621.5 229.5 c 128,-1,23
 642 254 642 254 649.5 273.5 c 128,-1,24
 657 293 657 293 657 315 c 0,25,26
 657 347 657 347 638.5 363 c 128,-1,27
 620 379 620 379 590 379 c 256,28,29
 560 379 560 379 535.5 367.5 c 128,-1,30
 511 356 511 356 485 336 c 1,31,-1
 450 382 l 1,32,33
 479 407 479 407 513.5 422 c 128,-1,34
 548 437 548 437 591 437 c 0,35,36
 655 437 655 437 691.5 405.5 c 128,-1,37
 728 374 728 374 728 319 c 0,38,39
 728 286 728 286 714.5 258.5 c 128,-1,40
 701 231 701 231 675.5 202.5 c 128,-1,41
 650 174 650 174 613 139 c 2,42,-1
 532 62 l 1,43,-1
 727 62 l 1,44,-1
 727 0 l 1,45,-1
 445 0 l 1,19,-1
EndSplineSet
EndChar

StartChar: vulgarfractionthreequarters
Encoding: 190 190 128
Width: 781
VWidth: 1000
GlyphClass: 1
Flags: W
LayerCount: 2
Fore
SplineSet
170 0 m 1,0,-1
 606 714 l 1,1,-1
 681 714 l 1,2,-1
 245 0 l 1,3,-1
 170 0 l 1,0,-1
146 278 m 0,4,5
 109 278 109 278 77 284.5 c 128,-1,6
 45 291 45 291 15 306 c 1,7,-1
 15 369 l 1,8,9
 49 353 49 353 83 344 c 128,-1,10
 117 335 117 335 147 335 c 0,11,12
 199 335 199 335 223 355.5 c 128,-1,13
 247 376 247 376 247 411 c 0,14,15
 247 447 247 447 218 463.5 c 128,-1,16
 189 480 189 480 137 480 c 2,17,-1
 80 480 l 1,18,-1
 80 535 l 1,19,-1
 137 535 l 2,20,21
 187 535 187 535 210.5 554.5 c 128,-1,22
 234 574 234 574 234 605 c 0,23,24
 234 637 234 637 213.5 651.5 c 128,-1,25
 193 666 193 666 164 666 c 0,26,27
 133 666 133 666 106.5 655.5 c 128,-1,28
 80 645 80 645 53 628 c 1,29,-1
 17 674 l 1,30,31
 48 697 48 697 82.5 710 c 128,-1,32
 117 723 117 723 163 723 c 0,33,34
 234 723 234 723 270 692 c 128,-1,35
 306 661 306 661 306 613 c 0,36,37
 306 573 306 573 284.5 547 c 128,-1,38
 263 521 263 521 233 511 c 1,39,-1
 233 508 l 1,40,41
 272 501 272 501 295.5 475.5 c 128,-1,42
 319 450 319 450 319 409 c 0,43,44
 319 351 319 351 277 314.5 c 128,-1,45
 235 278 235 278 146 278 c 0,4,5
636 0 m 1,46,-1
 636 96 l 1,47,-1
 441 96 l 1,48,-1
 441 148 l 1,49,-1
 638 431 l 1,50,-1
 711 431 l 1,51,-1
 711 156 l 1,52,-1
 772 156 l 1,53,-1
 772 96 l 1,54,-1
 711 96 l 1,55,-1
 711 0 l 1,56,-1
 636 0 l 1,46,-1
511 156 m 1,57,-1
 636 156 l 1,58,-1
 636 249 l 2,59,60
 636 270 636 270 637 298 c 128,-1,61
 638 326 638 326 639 350 c 1,62,63
 634 339 634 339 618 314.5 c 128,-1,64
 602 290 602 290 591 273 c 2,65,-1
 511 156 l 1,57,-1
EndSplineSet
EndChar

StartChar: invertedquestion
Encoding: 191 191 129
Width: 434
VWidth: 1000
GlyphClass: 1
Flags: W
LayerCount: 2
Fore
SplineSet
292 304 m 2,0,1
 292 267 292 267 284.5 239 c 128,-1,2
 277 211 277 211 259 186.5 c 128,-1,3
 241 162 241 162 208 134 c 0,4,5
 170 102 170 102 148 79.5 c 128,-1,6
 126 57 126 57 117 36 c 128,-1,7
 108 15 108 15 108 -15 c 0,8,9
 108 -63 108 -63 139.5 -89 c 128,-1,10
 171 -115 171 -115 229 -115 c 0,11,12
 279 -115 279 -115 317 -102 c 128,-1,13
 355 -89 355 -89 389 -73 c 1,14,-1
 420 -143 l 1,15,16
 380 -164 380 -164 331.5 -178 c 128,-1,17
 283 -192 283 -192 223 -192 c 0,18,19
 128 -192 128 -192 76 -145 c 128,-1,20
 24 -98 24 -98 24 -17 c 0,21,22
 24 28 24 28 38.5 59.5 c 128,-1,23
 53 91 53 91 79.5 117.5 c 128,-1,24
 106 144 106 144 142 174 c 0,25,26
 176 203 176 203 193 223.5 c 128,-1,27
 210 244 210 244 216 265 c 128,-1,28
 222 286 222 286 222 314 c 2,29,-1
 222 331 l 1,30,-1
 292 331 l 1,31,-1
 292 304 l 2,0,1
315 478 m 0,32,33
 315 441 315 441 297.5 426 c 128,-1,34
 280 411 280 411 253 411 c 0,35,36
 228 411 228 411 210 426 c 128,-1,37
 192 441 192 441 192 478 c 0,38,39
 192 514 192 514 210 530 c 128,-1,40
 228 546 228 546 253 546 c 0,41,42
 280 546 280 546 297.5 530 c 128,-1,43
 315 514 315 514 315 478 c 0,32,33
EndSplineSet
Substitution2: "'smcp' Lowercase to Small Capitals lookup 39 subtable" invertedquestion.sc
Substitution2: "'c2sc' Capitals to Small Capitals lookup 38 subtable" invertedquestion.sc
Substitution2: "'aalt' Access All Alternates lookup 0 subtable" invertedquestion.sc
EndChar

StartChar: AElig
Encoding: 198 198 136
Width: 881
VWidth: 1000
GlyphClass: 2
Flags: W
AnchorPoint: "Top" 493 714 basechar 0
AnchorPoint: "Middle" 410 357 basechar 0
AnchorPoint: "Bottom" 441 0 basechar 0
LayerCount: 2
Fore
SplineSet
821 0 m 1,0,-1
 449 0 l 1,1,-1
 449 221 l 1,2,-1
 199 221 l 1,3,-1
 92 0 l 1,4,-1
 -1 0 l 1,5,-1
 338 714 l 1,6,-1
 821 714 l 1,7,-1
 821 635 l 1,8,-1
 539 635 l 1,9,-1
 539 412 l 1,10,-1
 802 412 l 1,11,-1
 802 334 l 1,12,-1
 539 334 l 1,13,-1
 539 79 l 1,14,-1
 821 79 l 1,15,-1
 821 0 l 1,0,-1
234 301 m 1,16,-1
 449 301 l 1,17,-1
 449 634 l 1,18,-1
 391 634 l 1,19,-1
 234 301 l 1,16,-1
EndSplineSet
Substitution2: "'c2sc' Capitals to Small Capitals lookup 38 subtable" ae.sc
Substitution2: "'aalt' Access All Alternates lookup 0 subtable" ae.sc
EndChar

StartChar: Eth
Encoding: 208 208 146
Width: 730
VWidth: 1000
GlyphClass: 2
Flags: W
AnchorPoint: "Top" 365 714 basechar 0
AnchorPoint: "Middle" 349 357 basechar 0
AnchorPoint: "Bottom" 365 0 basechar 0
LayerCount: 2
Fore
SplineSet
317 714 m 2,0,1
 424 714 424 714 503 674 c 128,-1,2
 582 634 582 634 625.5 556.5 c 128,-1,3
 669 479 669 479 669 364 c 0,4,5
 669 244 669 244 624.5 163 c 128,-1,6
 580 82 580 82 496.5 41 c 128,-1,7
 413 0 413 0 295 0 c 2,8,-1
 104 0 l 1,9,-1
 104 314 l 1,10,-1
 30 314 l 1,11,-1
 30 392 l 1,12,-1
 104 392 l 1,13,-1
 104 714 l 1,14,-1
 317 714 l 2,0,1
304 637 m 2,15,-1
 194 637 l 1,16,-1
 194 392 l 1,17,-1
 372 392 l 1,18,-1
 372 314 l 1,19,-1
 194 314 l 1,20,-1
 194 77 l 1,21,-1
 284 77 l 2,22,23
 430 77 430 77 502 148.5 c 128,-1,24
 574 220 574 220 574 361 c 0,25,26
 574 456 574 456 542 517 c 128,-1,27
 510 578 510 578 450 607.5 c 128,-1,28
 390 637 390 637 304 637 c 2,15,-1
EndSplineSet
Substitution2: "'c2sc' Capitals to Small Capitals lookup 38 subtable" eth.sc
Substitution2: "'aalt' Access All Alternates lookup 0 subtable" eth.sc
EndChar

StartChar: multiplication
Encoding: 215 215 153
Width: 572
VWidth: 1000
GlyphClass: 1
Flags: W
LayerCount: 2
Fore
SplineSet
456 574 m 1,0,-1
 506 523 l 1,1,-1
 336 353 l 1,2,-1
 505 183 l 1,3,-1
 455 132 l 1,4,-1
 284 301 l 1,5,-1
 117 132 l 1,6,-1
 65 183 l 1,7,-1
 234 353 l 1,8,-1
 64 522 l 1,9,-1
 116 574 l 1,10,-1
 285 403 l 1,11,-1
 456 574 l 1,0,-1
EndSplineSet
EndChar

StartChar: Ostroke
Encoding: 216 216 154
Width: 781
VWidth: 1000
GlyphClass: 2
Flags: W
AnchorPoint: "Top" 392 714 basechar 0
AnchorPoint: "Middle" 390 357 basechar 0
AnchorPoint: "Bottom" 391 0 basechar 0
LayerCount: 2
Fore
SplineSet
720 358 m 0,0,1
 720 275 720 275 699 207.5 c 128,-1,2
 678 140 678 140 636.5 91 c 128,-1,3
 595 42 595 42 533.5 16 c 128,-1,4
 472 -10 472 -10 391 -10 c 0,5,6
 335 -10 335 -10 288.5 2 c 128,-1,7
 242 14 242 14 206 37 c 1,8,-1
 158 -31 l 1,9,-1
 97 9 l 1,10,-1
 149 83 l 1,11,12
 105 132 105 132 83 202 c 128,-1,13
 61 272 61 272 61 359 c 0,14,15
 61 469 61 469 97 551 c 128,-1,16
 133 633 133 633 206.5 679 c 128,-1,17
 280 725 280 725 392 725 c 0,18,19
 444 725 444 725 488.5 713 c 128,-1,20
 533 701 533 701 570 680 c 1,21,-1
 616 746 l 1,22,-1
 677 705 l 1,23,-1
 626 634 l 1,24,25
 672 586 672 586 696 516 c 128,-1,26
 720 446 720 446 720 358 c 0,0,1
625 358 m 0,27,28
 625 487 625 487 574 560 c 1,29,-1
 254 106 l 1,30,31
 280 88 280 88 314.5 78 c 128,-1,32
 349 68 349 68 391 68 c 0,33,34
 472 68 472 68 523.5 103 c 128,-1,35
 575 138 575 138 600 203 c 128,-1,36
 625 268 625 268 625 358 c 0,27,28
156 358 m 0,37,38
 156 297 156 297 167.5 247 c 128,-1,39
 179 197 179 197 203 160 c 1,40,-1
 522 611 l 1,41,42
 497 628 497 628 464.5 637 c 128,-1,43
 432 646 432 646 392 646 c 0,44,45
 311 646 311 646 258.5 611.5 c 128,-1,46
 206 577 206 577 181 512.5 c 128,-1,47
 156 448 156 448 156 358 c 0,37,38
EndSplineSet
Substitution2: "'c2sc' Capitals to Small Capitals lookup 38 subtable" ostroke.sc
Substitution2: "'aalt' Access All Alternates lookup 0 subtable" ostroke.sc
EndChar

StartChar: Thorn
Encoding: 222 222 160
Width: 605
VWidth: 1000
GlyphClass: 2
Flags: W
AnchorPoint: "Top" 303 714 basechar 0
AnchorPoint: "Middle" 325 357 basechar 0
AnchorPoint: "Bottom" 303 0 basechar 0
LayerCount: 2
Fore
SplineSet
554 382 m 0,0,1
 554 337 554 337 540 296 c 128,-1,2
 526 255 526 255 493 223.5 c 128,-1,3
 460 192 460 192 405 173.5 c 128,-1,4
 350 155 350 155 268 155 c 2,5,-1
 187 155 l 1,6,-1
 187 0 l 1,7,-1
 97 0 l 1,8,-1
 97 714 l 1,9,-1
 187 714 l 1,10,-1
 187 590 l 1,11,-1
 283 590 l 2,12,13
 428 590 428 590 491 535 c 128,-1,14
 554 480 554 480 554 382 c 0,0,1
259 231 m 2,15,16
 329 231 329 231 373.5 245.5 c 128,-1,17
 418 260 418 260 439.5 292.5 c 128,-1,18
 461 325 461 325 461 377 c 0,19,20
 461 446 461 446 417.5 479.5 c 128,-1,21
 374 513 374 513 276 513 c 2,22,-1
 187 513 l 1,23,-1
 187 231 l 1,24,-1
 259 231 l 2,15,16
EndSplineSet
Substitution2: "'c2sc' Capitals to Small Capitals lookup 38 subtable" thorn.sc
Substitution2: "'aalt' Access All Alternates lookup 0 subtable" thorn.sc
EndChar

StartChar: ssharp
Encoding: 223 223 161
Width: 631
VWidth: 1000
GlyphClass: 2
Flags: W
AnchorPoint: "Top" 316 765 basechar 0
AnchorPoint: "Middle" 335 377 basechar 0
AnchorPoint: "Bottom" 316 0 basechar 0
LayerCount: 2
Fore
SplineSet
522 617 m 0,0,1
 522 583 522 583 508 557.5 c 128,-1,2
 494 532 494 532 473 512.5 c 128,-1,3
 452 493 452 493 431 477 c 128,-1,4
 410 461 410 461 396 445.5 c 128,-1,5
 382 430 382 430 382 412 c 0,6,7
 382 399 382 399 388.5 388 c 128,-1,8
 395 377 395 377 414 362.5 c 128,-1,9
 433 348 433 348 470 323 c 0,10,11
 506 299 506 299 532 275 c 128,-1,12
 558 251 558 251 572 222 c 128,-1,13
 586 193 586 193 586 153 c 0,14,15
 586 96 586 96 562.5 60 c 128,-1,16
 539 24 539 24 497 7 c 128,-1,17
 455 -10 455 -10 400 -10 c 0,18,19
 353 -10 353 -10 317 -1 c 128,-1,20
 281 8 281 8 255 24 c 1,21,-1
 255 103 l 1,22,23
 272 93 272 93 295 83 c 128,-1,24
 318 73 318 73 344.5 67 c 128,-1,25
 371 61 371 61 397 61 c 0,26,27
 452 61 452 61 476 84 c 128,-1,28
 500 107 500 107 500 147 c 0,29,30
 500 171 500 171 491.5 189.5 c 128,-1,31
 483 208 483 208 462.5 226 c 128,-1,32
 442 244 442 244 406 267 c 0,33,34
 364 294 364 294 340.5 315.5 c 128,-1,35
 317 337 317 337 307 359 c 128,-1,36
 297 381 297 381 297 407 c 0,37,38
 297 438 297 438 310.5 460 c 128,-1,39
 324 482 324 482 344.5 498.5 c 128,-1,40
 365 515 365 515 385.5 531 c 128,-1,41
 406 547 406 547 419.5 566 c 128,-1,42
 433 585 433 585 433 612 c 0,43,44
 433 654 433 654 397.5 673 c 128,-1,45
 362 692 362 692 306 692 c 0,46,47
 271 692 271 692 240.5 682.5 c 128,-1,48
 210 673 210 673 191.5 650 c 128,-1,49
 173 627 173 627 173 584 c 2,50,-1
 173 0 l 1,51,-1
 85 0 l 1,52,-1
 85 584 l 2,53,54
 85 651 85 651 114 690.5 c 128,-1,55
 143 730 143 730 193 747.5 c 128,-1,56
 243 765 243 765 306 765 c 0,57,58
 371 765 371 765 419.5 748.5 c 128,-1,59
 468 732 468 732 495 699.5 c 128,-1,60
 522 667 522 667 522 617 c 0,0,1
EndSplineSet
Substitution2: "'smcp' Lowercase to Small Capitals lookup 39 subtable" ssharp.sc
Substitution2: "'aalt' Access All Alternates lookup 0 subtable" ssharp.sc
EndChar

StartChar: ae
Encoding: 230 230 168
Width: 864
VWidth: 1000
GlyphClass: 2
Flags: W
AnchorPoint: "Top" 439 536 basechar 0
AnchorPoint: "Middle" 429 268 basechar 0
AnchorPoint: "Bottom" 432 0 basechar 0
LayerCount: 2
Fore
SplineSet
603 546 m 0,0,1
 668 546 668 546 715 516 c 128,-1,2
 762 486 762 486 787.5 432 c 128,-1,3
 813 378 813 378 813 306 c 2,4,-1
 813 252 l 1,5,-1
 470 252 l 1,6,7
 472 156 472 156 511.5 110.5 c 128,-1,8
 551 65 551 65 625 65 c 0,9,10
 675 65 675 65 713 74.5 c 128,-1,11
 751 84 751 84 789 102 c 1,12,-1
 789 25 l 1,13,14
 749 7 749 7 710.5 -1.5 c 128,-1,15
 672 -10 672 -10 622 -10 c 0,16,17
 576 -10 576 -10 537.5 2.5 c 128,-1,18
 499 15 499 15 469.5 40.5 c 128,-1,19
 440 66 440 66 419 103 c 1,20,21
 396 69 396 69 368.5 43.5 c 128,-1,22
 341 18 341 18 304.5 4 c 128,-1,23
 268 -10 268 -10 216 -10 c 0,24,25
 168 -10 168 -10 129.5 7 c 128,-1,26
 91 24 91 24 68.5 59.5 c 128,-1,27
 46 95 46 95 46 149 c 256,28,29
 46 203 46 203 72.5 240 c 128,-1,30
 99 277 99 277 153.5 297.5 c 128,-1,31
 208 318 208 318 290 320 c 2,32,-1
 380 323 l 1,33,-1
 380 357 l 2,34,35
 380 422 380 422 349.5 448 c 128,-1,36
 319 474 319 474 268 474 c 0,37,38
 228 474 228 474 189.5 462 c 128,-1,39
 151 450 151 450 118 433 c 1,40,-1
 91 499 l 1,41,42
 126 519 126 519 176 532 c 128,-1,43
 226 545 226 545 275 545 c 0,44,45
 337 545 337 545 377.5 524.5 c 128,-1,46
 418 504 418 504 439 459 c 1,47,48
 465 500 465 500 507 523 c 128,-1,49
 549 546 549 546 603 546 c 0,0,1
303 259 m 2,50,51
 209 255 209 255 173 227 c 128,-1,52
 137 199 137 199 137 148 c 0,53,54
 137 103 137 103 162.5 82 c 128,-1,55
 188 61 188 61 230 61 c 256,56,57
 272 61 272 61 305.5 77.5 c 128,-1,58
 339 94 339 94 358.5 128 c 128,-1,59
 378 162 378 162 378 214 c 2,60,-1
 378 262 l 1,61,-1
 303 259 l 2,50,51
602 474 m 0,62,63
 544 474 544 474 510.5 434.5 c 128,-1,64
 477 395 477 395 472 321 c 1,65,-1
 720 321 l 1,66,67
 720 367 720 367 707.5 401.5 c 128,-1,68
 695 436 695 436 669 455 c 128,-1,69
 643 474 643 474 602 474 c 0,62,63
EndSplineSet
Substitution2: "'smcp' Lowercase to Small Capitals lookup 39 subtable" ae.sc
Substitution2: "'aalt' Access All Alternates lookup 0 subtable" ae.sc
EndChar

StartChar: eth
Encoding: 240 240 178
Width: 605
VWidth: 1000
GlyphClass: 2
Flags: W
AnchorPoint: "Top" 303 765 basechar 0
AnchorPoint: "Middle" 303 377 basechar 0
AnchorPoint: "Bottom" 303 0 basechar 0
LayerCount: 2
Fore
SplineSet
216 765 m 1,0,1
 248 750 248 750 280.5 732 c 128,-1,2
 313 714 313 714 342 693 c 1,3,-1
 457 760 l 1,4,-1
 495 706 l 1,5,-1
 396 649 l 1,6,7
 442 607 442 607 476.5 550.5 c 128,-1,8
 511 494 511 494 531 425 c 128,-1,9
 551 356 551 356 551 275 c 0,10,11
 551 180 551 180 521 116.5 c 128,-1,12
 491 53 491 53 435 21.5 c 128,-1,13
 379 -10 379 -10 301 -10 c 0,14,15
 229 -10 229 -10 173.5 19.5 c 128,-1,16
 118 49 118 49 86.5 103.5 c 128,-1,17
 55 158 55 158 55 233 c 256,18,19
 55 308 55 308 84 361.5 c 128,-1,20
 113 415 113 415 165.5 444 c 128,-1,21
 218 473 218 473 290 473 c 0,22,23
 325 473 325 473 354.5 467 c 128,-1,24
 384 461 384 461 407 448 c 128,-1,25
 430 435 430 435 446 415 c 1,26,-1
 450 417 l 1,27,28
 434 474 434 474 401 522 c 128,-1,29
 368 570 368 570 326 608 c 1,30,-1
 196 533 l 1,31,-1
 158 588 l 1,32,-1
 270 652 l 1,33,34
 249 666 249 666 226 679.5 c 128,-1,35
 203 693 203 693 180 705 c 1,36,-1
 216 765 l 1,0,1
303 402 m 0,37,38
 247 402 247 402 212 382 c 128,-1,39
 177 362 177 362 160.5 324 c 128,-1,40
 144 286 144 286 144 230 c 0,41,42
 144 181 144 181 160.5 143 c 128,-1,43
 177 105 177 105 212.5 83.5 c 128,-1,44
 248 62 248 62 303 62 c 0,45,46
 386 62 386 62 424 110.5 c 128,-1,47
 462 159 462 159 462 251 c 0,48,49
 462 282 462 282 452.5 309.5 c 128,-1,50
 443 337 443 337 423 357.5 c 128,-1,51
 403 378 403 378 373.5 390 c 128,-1,52
 344 402 344 402 303 402 c 0,37,38
EndSplineSet
Substitution2: "'smcp' Lowercase to Small Capitals lookup 39 subtable" eth.sc
Substitution2: "'aalt' Access All Alternates lookup 0 subtable" eth.sc
EndChar

StartChar: division
Encoding: 247 247 185
Width: 572
VWidth: 1000
GlyphClass: 1
Flags: W
LayerCount: 2
Fore
SplineSet
50 317 m 1,0,-1
 50 388 l 1,1,-1
 521 388 l 1,2,-1
 521 317 l 1,3,-1
 50 317 l 1,0,-1
285 121 m 256,4,5
 262 121 262 121 245.5 135.5 c 128,-1,6
 229 150 229 150 229 182 c 0,7,8
 229 216 229 216 245.5 229 c 128,-1,9
 262 242 262 242 285 242 c 256,10,11
 308 242 308 242 324 229 c 128,-1,12
 340 216 340 216 340 182 c 0,13,14
 340 150 340 150 324 135.5 c 128,-1,15
 308 121 308 121 285 121 c 256,4,5
285 462 m 256,16,17
 262 462 262 462 245.5 476.5 c 128,-1,18
 229 491 229 491 229 523 c 0,19,20
 229 557 229 557 245.5 570 c 128,-1,21
 262 583 262 583 285 583 c 256,22,23
 308 583 308 583 324 570 c 128,-1,24
 340 557 340 557 340 523 c 0,25,26
 340 491 340 491 324 476.5 c 128,-1,27
 308 462 308 462 285 462 c 256,16,17
EndSplineSet
EndChar

StartChar: ostroke
Encoding: 248 248 186
Width: 605
VWidth: 1000
GlyphClass: 2
Flags: W
AnchorPoint: "Top" 303 536 basechar 0
AnchorPoint: "Middle" 303 266 basechar 0
AnchorPoint: "Bottom" 303 0 basechar 0
LayerCount: 2
Fore
SplineSet
551 269 m 0,0,1
 551 180 551 180 520.5 117.5 c 128,-1,2
 490 55 490 55 434 22.5 c 128,-1,3
 378 -10 378 -10 301 -10 c 0,4,5
 264 -10 264 -10 232 -1.5 c 128,-1,6
 200 7 200 7 172 23 c 1,7,-1
 132 -33 l 1,8,-1
 74 6 l 1,9,-1
 119 68 l 1,10,11
 88 104 88 104 71.5 154.5 c 128,-1,12
 55 205 55 205 55 269 c 0,13,14
 55 402 55 402 122 474 c 128,-1,15
 189 546 189 546 304 546 c 0,16,17
 341 546 341 546 374 536.5 c 128,-1,18
 407 527 407 527 435 510 c 1,19,-1
 474 566 l 1,20,-1
 533 528 l 1,21,-1
 488 465 l 1,22,23
 517 430 517 430 534 380.5 c 128,-1,24
 551 331 551 331 551 269 c 0,0,1
146 269 m 0,25,26
 146 231 146 231 151.5 198.5 c 128,-1,27
 157 166 157 166 170 141 c 1,28,-1
 390 447 l 1,29,30
 373 459 373 459 350.5 465.5 c 128,-1,31
 328 472 328 472 302 472 c 0,32,33
 220 472 220 472 183 418 c 128,-1,34
 146 364 146 364 146 269 c 0,25,26
460 269 m 0,35,36
 460 306 460 306 454 337 c 128,-1,37
 448 368 448 368 437 392 c 1,38,-1
 217 86 l 1,39,40
 234 75 234 75 256 69 c 128,-1,41
 278 63 278 63 303 63 c 0,42,43
 357 63 357 63 392 88 c 128,-1,44
 427 113 427 113 443.5 159.5 c 128,-1,45
 460 206 460 206 460 269 c 0,35,36
EndSplineSet
Substitution2: "'smcp' Lowercase to Small Capitals lookup 39 subtable" ostroke.sc
Substitution2: "'aalt' Access All Alternates lookup 0 subtable" ostroke.sc
EndChar

StartChar: thorn
Encoding: 254 254 192
Width: 615
VWidth: 1000
GlyphClass: 2
Flags: W
AnchorPoint: "Top" 308 760 basechar 0
AnchorPoint: "Middle" 322 260 basechar 0
AnchorPoint: "Bottom" 308 -240 basechar 0
LayerCount: 2
Fore
SplineSet
560 269 m 0,0,1
 560 178 560 178 532.5 115.5 c 128,-1,2
 505 53 505 53 455.5 21.5 c 128,-1,3
 406 -10 406 -10 340 -10 c 0,4,5
 298 -10 298 -10 266.5 0.5 c 128,-1,6
 235 11 235 11 212 29 c 128,-1,7
 189 47 189 47 173 68 c 1,8,-1
 167 68 l 1,9,10
 168 61 168 61 169.5 45 c 128,-1,11
 171 29 171 29 172 12 c 128,-1,12
 173 -5 173 -5 173 -16 c 2,13,-1
 173 -240 l 1,14,-1
 85 -240 l 1,15,-1
 85 760 l 1,16,-1
 173 760 l 1,17,-1
 173 536 l 2,18,19
 173 522 173 522 172 499.5 c 128,-1,20
 171 477 171 477 170 464 c 1,21,-1
 174 464 l 1,22,23
 190 487 190 487 212.5 505.5 c 128,-1,24
 235 524 235 524 266 535 c 128,-1,25
 297 546 297 546 340 546 c 0,26,27
 439 546 439 546 499.5 476 c 128,-1,28
 560 406 560 406 560 269 c 0,0,1
469 270 m 0,29,30
 469 371 469 371 434 421.5 c 128,-1,31
 399 472 399 472 325 472 c 0,32,33
 243 472 243 472 209 426 c 128,-1,34
 175 380 175 380 173 288 c 2,35,-1
 173 269 l 2,36,37
 173 170 173 170 205.5 116.5 c 128,-1,38
 238 63 238 63 326 63 c 0,39,40
 375 63 375 63 406.5 87 c 128,-1,41
 438 111 438 111 453.5 157.5 c 128,-1,42
 469 204 469 204 469 270 c 0,29,30
EndSplineSet
Substitution2: "'smcp' Lowercase to Small Capitals lookup 39 subtable" thorn.sc
Substitution2: "'aalt' Access All Alternates lookup 0 subtable" thorn.sc
EndChar

StartChar: dcaron
Encoding: 271 271 209
Width: 615
VWidth: 1000
GlyphClass: 2
Flags: W
AnchorPoint: "NECorner" 553 760 basechar 0
AnchorPoint: "Top" 275 760 basechar 0
AnchorPoint: "Middle" 308 268 basechar 0
AnchorPoint: "Bottom" 292 0 basechar 0
LayerCount: 2
Fore
SplineSet
688 751 m 1,0,1
 684 733 684 733 672.5 706 c 128,-1,2
 661 679 661 679 646 650.5 c 128,-1,3
 631 622 631 622 616 600 c 1,4,-1
 568 600 l 1,5,-1
 568 612 l 1,6,7
 573 626 573 626 578 645 c 128,-1,8
 583 664 583 664 587.5 684.5 c 128,-1,9
 592 705 592 705 595.5 724.5 c 128,-1,10
 599 744 599 744 601 760 c 1,11,-1
 688 760 l 1,12,-1
 688 751 l 1,0,1
275 -10 m 0,13,14
 175 -10 175 -10 115 59.5 c 128,-1,15
 55 129 55 129 55 267 c 256,16,17
 55 405 55 405 115.5 475.5 c 128,-1,18
 176 546 176 546 276 546 c 0,19,20
 318 546 318 546 349 535.5 c 128,-1,21
 380 525 380 525 403 507 c 128,-1,22
 426 489 426 489 442 467 c 1,23,-1
 448 467 l 1,24,25
 447 480 447 480 444.5 505.5 c 128,-1,26
 442 531 442 531 442 546 c 2,27,-1
 442 760 l 1,28,-1
 530 760 l 1,29,-1
 530 0 l 1,30,-1
 459 0 l 1,31,-1
 446 72 l 1,32,-1
 442 72 l 1,33,34
 426 49 426 49 403 30.5 c 128,-1,35
 380 12 380 12 348.5 1 c 128,-1,36
 317 -10 317 -10 275 -10 c 0,13,14
289 63 m 0,37,38
 374 63 374 63 408.5 109.5 c 128,-1,39
 443 156 443 156 443 250 c 2,40,-1
 443 266 l 2,41,42
 443 366 443 366 410 419.5 c 128,-1,43
 377 473 377 473 288 473 c 0,44,45
 217 473 217 473 181.5 416.5 c 128,-1,46
 146 360 146 360 146 265 c 0,47,48
 146 169 146 169 181.5 116 c 128,-1,49
 217 63 217 63 289 63 c 0,37,38
EndSplineSet
Substitution2: "'smcp' Lowercase to Small Capitals lookup 39 subtable" dcaron.sc
Substitution2: "'aalt' Access All Alternates lookup 0 subtable" dcaron.sc
EndChar

StartChar: dstroke
Encoding: 273 273 211
Width: 617
VWidth: 1000
GlyphClass: 2
Flags: W
AnchorPoint: "Top" 309 760 basechar 0
AnchorPoint: "Middle" 330 375 basechar 0
AnchorPoint: "Bottom" 309 0 basechar 0
LayerCount: 2
Fore
SplineSet
275 -10 m 0,0,1
 175 -10 175 -10 115 59.5 c 128,-1,2
 55 129 55 129 55 265 c 0,3,4
 55 405 55 405 115.5 474 c 128,-1,5
 176 543 176 543 275 543 c 0,6,7
 317 543 317 543 348.5 532.5 c 128,-1,8
 380 522 380 522 403 504 c 128,-1,9
 426 486 426 486 442 464 c 1,10,-1
 448 464 l 1,11,12
 446 477 446 477 444 502.5 c 128,-1,13
 442 528 442 528 442 544 c 2,14,-1
 442 605 l 1,15,-1
 229 605 l 1,16,-1
 229 671 l 1,17,-1
 442 671 l 1,18,-1
 442 760 l 1,19,-1
 530 760 l 1,20,-1
 530 671 l 1,21,-1
 606 671 l 1,22,-1
 606 605 l 1,23,-1
 530 605 l 1,24,-1
 530 0 l 1,25,-1
 458 0 l 1,26,-1
 445 72 l 1,27,-1
 441 72 l 1,28,29
 425 49 425 49 402 30.5 c 128,-1,30
 379 12 379 12 348 1 c 128,-1,31
 317 -10 317 -10 275 -10 c 0,0,1
290 63 m 0,32,33
 374 63 374 63 408.5 109 c 128,-1,34
 443 155 443 155 443 248 c 2,35,-1
 443 265 l 2,36,37
 443 366 443 366 410 418 c 128,-1,38
 377 470 377 470 288 470 c 0,39,40
 217 470 217 470 182 415 c 128,-1,41
 147 360 147 360 147 264 c 256,42,43
 147 168 147 168 182 115.5 c 128,-1,44
 217 63 217 63 290 63 c 0,32,33
EndSplineSet
Substitution2: "'smcp' Lowercase to Small Capitals lookup 39 subtable" dstroke.sc
Substitution2: "'aalt' Access All Alternates lookup 0 subtable" dstroke.sc
EndChar

StartChar: eogon
Encoding: 281 281 219
Width: 564
VWidth: 1000
GlyphClass: 2
Flags: W
AnchorPoint: "NECorner" 544 536 basechar 0
AnchorPoint: "Top" 285 536 basechar 0
AnchorPoint: "Middle" 284 268 basechar 0
AnchorPoint: "Bottom" 301 -220 basechar 0
LayerCount: 2
Fore
SplineSet
389 -116 m 0,0,1
 389 -138 389 -138 401 -149.5 c 128,-1,2
 413 -161 413 -161 434 -161 c 0,3,4
 451 -161 451 -161 462.5 -158.5 c 128,-1,5
 474 -156 474 -156 482 -155 c 1,6,-1
 482 -211 l 1,7,8
 468 -215 468 -215 454 -217.5 c 128,-1,9
 440 -220 440 -220 420 -220 c 0,10,11
 367 -220 367 -220 342 -195 c 128,-1,12
 317 -170 317 -170 317 -126 c 0,13,14
 317 -97 317 -97 331.5 -70 c 128,-1,15
 346 -43 346 -43 367.5 -21 c 128,-1,16
 389 1 389 1 409 15 c 1,17,-1
 489 25 l 1,18,19
 449 -7 449 -7 427 -31 c 128,-1,20
 405 -55 405 -55 397 -75 c 128,-1,21
 389 -95 389 -95 389 -116 c 0,0,1
292 546 m 0,22,23
 361 546 361 546 410.5 516 c 128,-1,24
 460 486 460 486 486.5 431.5 c 128,-1,25
 513 377 513 377 513 304 c 2,26,-1
 513 251 l 1,27,-1
 146 251 l 1,28,29
 148 160 148 160 192.5 112.5 c 128,-1,30
 237 65 237 65 317 65 c 0,31,32
 368 65 368 65 407.5 74.5 c 128,-1,33
 447 84 447 84 489 102 c 1,34,-1
 489 25 l 1,35,36
 448 7 448 7 408 -1.5 c 128,-1,37
 368 -10 368 -10 313 -10 c 0,38,39
 237 -10 237 -10 178.5 21 c 128,-1,40
 120 52 120 52 87.5 113.5 c 128,-1,41
 55 175 55 175 55 264 c 0,42,43
 55 352 55 352 84.5 415 c 128,-1,44
 114 478 114 478 167.5 512 c 128,-1,45
 221 546 221 546 292 546 c 0,22,23
291 474 m 0,46,47
 228 474 228 474 191.5 433.5 c 128,-1,48
 155 393 155 393 148 321 c 1,49,-1
 421 321 l 1,50,51
 421 367 421 367 407 401 c 128,-1,52
 393 435 393 435 364.5 454.5 c 128,-1,53
 336 474 336 474 291 474 c 0,46,47
EndSplineSet
Substitution2: "'smcp' Lowercase to Small Capitals lookup 39 subtable" eogon.sc
Substitution2: "'locl' Localized Forms in Latin lookup 8 subtable" eogon.loclNAV
Ligature2: "'ccmp' Glyph Composition/Decomposition lookup 5 subtable" e comb_ogon
AlternateSubs2: "'aalt' Access All Alternates lookup 1 subtable" eogon.loclNAV eogon.sc
EndChar

StartChar: gcedil
Encoding: 291 291 229
Width: 615
VWidth: 1000
GlyphClass: 2
Flags: W
AnchorPoint: "NECorner" 555 536 basechar 0
AnchorPoint: "Top" 297 766 basechar 0
AnchorPoint: "Middle" 292 153 basechar 0
AnchorPoint: "Bottom" 298 -240 basechar 0
LayerCount: 2
Fore
SplineSet
363 754 m 1,0,1
 355 737 355 737 346.5 710.5 c 128,-1,2
 338 684 338 684 331 656 c 128,-1,3
 324 628 324 628 321 606 c 1,4,-1
 234 606 l 1,5,-1
 234 615 l 1,6,7
 239 633 239 633 251 660 c 128,-1,8
 263 687 263 687 279.5 715.5 c 128,-1,9
 296 744 296 744 314 766 c 1,10,-1
 363 766 l 1,11,-1
 363 754 l 1,0,1
275 546 m 0,12,13
 328 546 328 546 370.5 526 c 128,-1,14
 413 506 413 506 443 465 c 1,15,-1
 448 465 l 1,16,-1
 460 536 l 1,17,-1
 530 536 l 1,18,-1
 530 -9 l 2,19,20
 530 -85 530 -85 504 -136.5 c 128,-1,21
 478 -188 478 -188 425 -214 c 128,-1,22
 372 -240 372 -240 290 -240 c 0,23,24
 232 -240 232 -240 183.5 -231.5 c 128,-1,25
 135 -223 135 -223 97 -206 c 1,26,-1
 97 -125 l 1,27,28
 135 -145 135 -145 186 -156 c 128,-1,29
 237 -167 237 -167 295 -167 c 0,30,31
 364 -167 364 -167 403.5 -126.5 c 128,-1,32
 443 -86 443 -86 443 -16 c 2,33,-1
 443 5 l 2,34,35
 443 17 443 17 444 39.5 c 128,-1,36
 445 62 445 62 446 71 c 1,37,-1
 442 71 l 1,38,39
 414 30 414 30 372.5 10 c 128,-1,40
 331 -10 331 -10 276 -10 c 0,41,42
 172 -10 172 -10 113.5 63 c 128,-1,43
 55 136 55 136 55 267 c 0,44,45
 55 395 55 395 113.5 470.5 c 128,-1,46
 172 546 172 546 275 546 c 0,12,13
287 472 m 0,47,48
 242 472 242 472 210.5 448 c 128,-1,49
 179 424 179 424 162.5 378 c 128,-1,50
 146 332 146 332 146 266 c 0,51,52
 146 167 146 167 182.5 114.5 c 128,-1,53
 219 62 219 62 289 62 c 0,54,55
 330 62 330 62 359 72.5 c 128,-1,56
 388 83 388 83 407 105.5 c 128,-1,57
 426 128 426 128 435 163 c 128,-1,58
 444 198 444 198 444 246 c 2,59,-1
 444 267 l 2,60,61
 444 340 444 340 427.5 385 c 128,-1,62
 411 430 411 430 376 451 c 128,-1,63
 341 472 341 472 287 472 c 0,47,48
EndSplineSet
Substitution2: "'smcp' Lowercase to Small Capitals lookup 39 subtable" gcedil.sc
Substitution2: "'aalt' Access All Alternates lookup 0 subtable" gcedil.sc
EndChar

StartChar: Hstroke
Encoding: 294 294 232
Width: 741
VWidth: 1000
GlyphClass: 2
Flags: W
AnchorPoint: "Top" 371 714 basechar 0
AnchorPoint: "Middle" 370 357 basechar 0
AnchorPoint: "Bottom" 371 0 basechar 0
LayerCount: 2
Fore
SplineSet
97 0 m 1,0,-1
 97 523 l 1,1,-1
 0 523 l 1,2,-1
 0 595 l 1,3,-1
 97 595 l 1,4,-1
 97 714 l 1,5,-1
 187 714 l 1,6,-1
 187 595 l 1,7,-1
 553 595 l 1,8,-1
 553 714 l 1,9,-1
 643 714 l 1,10,-1
 643 595 l 1,11,-1
 740 595 l 1,12,-1
 740 523 l 1,13,-1
 643 523 l 1,14,-1
 643 0 l 1,15,-1
 553 0 l 1,16,-1
 553 333 l 1,17,-1
 187 333 l 1,18,-1
 187 0 l 1,19,-1
 97 0 l 1,0,-1
187 412 m 1,20,-1
 553 412 l 1,21,-1
 553 523 l 1,22,-1
 187 523 l 1,23,-1
 187 412 l 1,20,-1
EndSplineSet
Substitution2: "'c2sc' Capitals to Small Capitals lookup 38 subtable" hstroke.sc
Substitution2: "'aalt' Access All Alternates lookup 0 subtable" hstroke.sc
EndChar

StartChar: hstroke
Encoding: 295 295 233
Width: 618
VWidth: 1000
GlyphClass: 2
Flags: W
AnchorPoint: "Top" 130 760 basechar 0
AnchorPoint: "Middle" 273 380 basechar 0
AnchorPoint: "Bottom" 309 0 basechar 0
LayerCount: 2
Fore
SplineSet
173 760 m 1,0,-1
 173 670 l 1,1,-1
 385 670 l 1,2,-1
 385 604 l 1,3,-1
 173 604 l 1,4,-1
 173 517 l 2,5,6
 173 498 173 498 171.5 478.5 c 128,-1,7
 170 459 170 459 168 443 c 1,8,-1
 174 443 l 1,9,10
 191 471 191 471 217 489 c 128,-1,11
 243 507 243 507 275 516.5 c 128,-1,12
 307 526 307 526 342 526 c 0,13,14
 407 526 407 526 450 505.5 c 128,-1,15
 493 485 493 485 515 441.5 c 128,-1,16
 537 398 537 398 537 329 c 2,17,-1
 537 0 l 1,18,-1
 450 0 l 1,19,-1
 450 323 l 2,20,21
 450 388 450 388 421 420 c 128,-1,22
 392 452 392 452 330 452 c 0,23,24
 270 452 270 452 236 429.5 c 128,-1,25
 202 407 202 407 187.5 364 c 128,-1,26
 173 321 173 321 173 258 c 2,27,-1
 173 0 l 1,28,-1
 85 0 l 1,29,-1
 85 604 l 1,30,-1
 9 604 l 1,31,-1
 9 670 l 1,32,-1
 85 670 l 1,33,-1
 85 760 l 1,34,-1
 173 760 l 1,0,-1
EndSplineSet
Substitution2: "'smcp' Lowercase to Small Capitals lookup 39 subtable" hstroke.sc
Substitution2: "'aalt' Access All Alternates lookup 0 subtable" hstroke.sc
EndChar

StartChar: kra
Encoding: 312 312 249
Width: 534
VWidth: 1000
GlyphClass: 2
Flags: W
AnchorPoint: "Top" 267 536 basechar 0
AnchorPoint: "Middle" 305 268 basechar 0
AnchorPoint: "Bottom" 267 0 basechar 0
LayerCount: 2
Fore
SplineSet
509 536 m 1,0,-1
 306 299 l 1,1,-1
 525 0 l 1,2,-1
 420 0 l 1,3,-1
 244 242 l 1,4,-1
 178 188 l 1,5,-1
 178 0 l 1,6,-1
 85 0 l 1,7,-1
 85 536 l 1,8,-1
 178 536 l 1,9,-1
 178 397 l 2,10,11
 178 357 178 357 176 319 c 128,-1,12
 174 281 174 281 172 261 c 1,13,-1
 174 261 l 1,14,15
 183 274 183 274 193.5 287.5 c 128,-1,16
 204 301 204 301 213 312 c 2,17,-1
 403 536 l 1,18,-1
 509 536 l 1,0,-1
EndSplineSet
EndChar

StartChar: Lcaron
Encoding: 317 317 254
Width: 524
VWidth: 1000
GlyphClass: 2
Flags: W
AnchorPoint: "NECorner" 364 714 basechar 0
AnchorPoint: "Top" 140 714 basechar 0
AnchorPoint: "Middle" 262 357 basechar 0
AnchorPoint: "Bottom" 300 0 basechar 0
LayerCount: 2
Fore
SplineSet
499 705 m 1,0,1
 495 687 495 687 483.5 660 c 128,-1,2
 472 633 472 633 457 604.5 c 128,-1,3
 442 576 442 576 427 554 c 1,4,-1
 379 554 l 1,5,-1
 379 566 l 1,6,7
 384 580 384 580 389 599 c 128,-1,8
 394 618 394 618 398.5 638.5 c 128,-1,9
 403 659 403 659 406.5 678.5 c 128,-1,10
 410 698 410 698 412 714 c 1,11,-1
 499 714 l 1,12,-1
 499 705 l 1,0,1
97 0 m 1,13,-1
 97 714 l 1,14,-1
 187 714 l 1,15,-1
 187 80 l 1,16,-1
 499 80 l 1,17,-1
 499 0 l 1,18,-1
 97 0 l 1,13,-1
EndSplineSet
Substitution2: "'c2sc' Capitals to Small Capitals lookup 38 subtable" lcaron.sc
Substitution2: "'aalt' Access All Alternates lookup 0 subtable" lcaron.sc
EndChar

StartChar: lcaron
Encoding: 318 318 255
Width: 258
VWidth: 1000
GlyphClass: 2
Flags: W
AnchorPoint: "NECorner" 202 760 basechar 0
AnchorPoint: "Top" 129 760 basechar 0
AnchorPoint: "Middle" 129 268 basechar 0
AnchorPoint: "Bottom" 129 0 basechar 0
LayerCount: 2
Fore
SplineSet
337 751 m 1,0,1
 333 733 333 733 321.5 706 c 128,-1,2
 310 679 310 679 295 650.5 c 128,-1,3
 280 622 280 622 265 600 c 1,4,-1
 217 600 l 1,5,-1
 217 612 l 1,6,7
 222 626 222 626 227 645 c 128,-1,8
 232 664 232 664 236.5 684.5 c 128,-1,9
 241 705 241 705 244.5 724.5 c 128,-1,10
 248 744 248 744 250 760 c 1,11,-1
 337 760 l 1,12,-1
 337 751 l 1,0,1
173 0 m 1,13,-1
 85 0 l 1,14,-1
 85 760 l 1,15,-1
 173 760 l 1,16,-1
 173 0 l 1,13,-1
EndSplineSet
Substitution2: "'smcp' Lowercase to Small Capitals lookup 39 subtable" lcaron.sc
Substitution2: "'aalt' Access All Alternates lookup 0 subtable" lcaron.sc
EndChar

StartChar: Lstroke
Encoding: 321 321 258
Width: 524
VWidth: 1000
GlyphClass: 2
Flags: W
AnchorPoint: "Top" 140 714 basechar 0
AnchorPoint: "Middle" 256 357 basechar 0
AnchorPoint: "Bottom" 300 0 basechar 0
LayerCount: 2
Fore
SplineSet
97 0 m 1,0,-1
 97 247 l 1,1,-1
 48 219 l 1,2,-1
 13 279 l 1,3,-1
 97 329 l 1,4,-1
 97 714 l 1,5,-1
 187 714 l 1,6,-1
 187 382 l 1,7,-1
 324 463 l 1,8,-1
 360 400 l 1,9,-1
 187 300 l 1,10,-1
 187 80 l 1,11,-1
 499 80 l 1,12,-1
 499 0 l 1,13,-1
 97 0 l 1,0,-1
EndSplineSet
Substitution2: "'c2sc' Capitals to Small Capitals lookup 38 subtable" lstroke.sc
Substitution2: "'aalt' Access All Alternates lookup 0 subtable" lstroke.sc
EndChar

StartChar: lstroke
Encoding: 322 322 259
Width: 258
VWidth: 1000
GlyphClass: 2
Flags: W
AnchorPoint: "Top" 129 760 basechar 0
AnchorPoint: "Middle" 129 380 basechar 0
AnchorPoint: "Bottom" 129 0 basechar 0
LayerCount: 2
Fore
SplineSet
78 0 m 1,0,-1
 78 285 l 1,1,-1
 27 253 l 1,2,-1
 -9 312 l 1,3,-1
 78 368 l 1,4,-1
 78 760 l 1,5,-1
 166 760 l 1,6,-1
 166 425 l 1,7,-1
 230 469 l 1,8,-1
 267 410 l 1,9,-1
 166 342 l 1,10,-1
 166 0 l 1,11,-1
 78 0 l 1,0,-1
EndSplineSet
Substitution2: "'smcp' Lowercase to Small Capitals lookup 39 subtable" lstroke.sc
Substitution2: "'aalt' Access All Alternates lookup 0 subtable" lstroke.sc
EndChar

StartChar: Eng
Encoding: 330 330 267
Width: 760
VWidth: 1000
GlyphClass: 2
Flags: W
AnchorPoint: "Top" 380 714 basechar 0
AnchorPoint: "Middle" 380 262 basechar 0
AnchorPoint: "Bottom" 380 -190 basechar 0
LayerCount: 2
Fore
SplineSet
475 -190 m 0,0,1
 450 -190 450 -190 431.5 -186.5 c 128,-1,2
 413 -183 413 -183 399 -177 c 1,3,-1
 399 -101 l 1,4,5
 415 -105 415 -105 434 -108 c 128,-1,6
 453 -111 453 -111 475 -111 c 0,7,8
 501 -111 501 -111 524.5 -101.5 c 128,-1,9
 548 -92 548 -92 563.5 -67.5 c 128,-1,10
 579 -43 579 -43 579 0 c 1,11,-1
 176 593 l 1,12,-1
 172 593 l 1,13,14
 174 574 174 574 175.5 539 c 128,-1,15
 177 504 177 504 178.5 464 c 128,-1,16
 180 424 180 424 180 387 c 2,17,-1
 180 0 l 1,18,-1
 97 0 l 1,19,-1
 97 714 l 1,20,-1
 201 714 l 1,21,-1
 582 142 l 1,22,-1
 586 142 l 1,23,24
 584 164 584 164 582.5 196.5 c 128,-1,25
 581 229 581 229 580 267 c 128,-1,26
 579 305 579 305 579 342 c 2,27,-1
 579 714 l 1,28,-1
 663 714 l 1,29,-1
 663 6 l 2,30,31
 663 -61 663 -61 640 -104.5 c 128,-1,32
 617 -148 617 -148 575 -169 c 128,-1,33
 533 -190 533 -190 475 -190 c 0,0,1
EndSplineSet
Substitution2: "'c2sc' Capitals to Small Capitals lookup 38 subtable" eng.sc
AlternateSubs2: "'aalt' Access All Alternates lookup 1 subtable" Eng.alt1 Eng.alt2 Eng.alt3 eng.sc
EndChar

StartChar: eng
Encoding: 331 331 268
Width: 618
VWidth: 1000
GlyphClass: 2
Flags: W
AnchorPoint: "NECorner" 562 536 basechar 0
AnchorPoint: "Top" 309 536 basechar 0
AnchorPoint: "Middle" 311 153 basechar 0
AnchorPoint: "Bottom" 309 -240 basechar 0
LayerCount: 2
Fore
SplineSet
394 -240 m 0,0,1
 370 -240 370 -240 353 -236.5 c 128,-1,2
 336 -233 336 -233 323 -228 c 1,3,-1
 323 -157 l 1,4,5
 337 -161 337 -161 351 -164 c 128,-1,6
 365 -167 365 -167 383 -167 c 0,7,8
 412 -167 412 -167 431 -149.5 c 128,-1,9
 450 -132 450 -132 450 -83 c 2,10,-1
 450 344 l 2,11,12
 450 409 450 409 421 440.5 c 128,-1,13
 392 472 392 472 331 472 c 0,14,15
 272 472 272 472 237 450 c 128,-1,16
 202 428 202 428 187.5 385 c 128,-1,17
 173 342 173 342 173 279 c 2,18,-1
 173 0 l 1,19,-1
 85 0 l 1,20,-1
 85 536 l 1,21,-1
 156 536 l 1,22,-1
 170 463 l 1,23,-1
 175 463 l 1,24,25
 193 491 193 491 218.5 509.5 c 128,-1,26
 244 528 244 528 276 537 c 128,-1,27
 308 546 308 546 342 546 c 0,28,29
 408 546 408 546 451.5 525.5 c 128,-1,30
 495 505 495 505 516.5 462 c 128,-1,31
 538 419 538 419 538 350 c 2,32,-1
 538 -80 l 2,33,34
 538 -130 538 -130 522.5 -166 c 128,-1,35
 507 -202 507 -202 475.5 -221 c 128,-1,36
 444 -240 444 -240 394 -240 c 0,0,1
EndSplineSet
Substitution2: "'smcp' Lowercase to Small Capitals lookup 39 subtable" eng.sc
Substitution2: "'aalt' Access All Alternates lookup 0 subtable" eng.sc
EndChar

StartChar: OElig
Encoding: 338 338 275
Width: 928
VWidth: 1000
GlyphClass: 2
Flags: W
AnchorPoint: "Top" 464 714 basechar 0
AnchorPoint: "Middle" 464 357 basechar 0
AnchorPoint: "Bottom" 464 0 basechar 0
LayerCount: 2
Fore
SplineSet
386 725 m 0,0,1
 412 725 412 725 436 722 c 128,-1,2
 460 719 460 719 482 714 c 1,3,-1
 868 714 l 1,4,-1
 868 635 l 1,5,-1
 581 635 l 1,6,-1
 581 412 l 1,7,-1
 849 412 l 1,8,-1
 849 334 l 1,9,-1
 581 334 l 1,10,-1
 581 79 l 1,11,-1
 868 79 l 1,12,-1
 868 0 l 1,13,-1
 488 0 l 1,14,15
 466 -4 466 -4 441.5 -7 c 128,-1,16
 417 -10 417 -10 391 -10 c 0,17,18
 280 -10 280 -10 206.5 36 c 128,-1,19
 133 82 133 82 97 165 c 128,-1,20
 61 248 61 248 61 359 c 256,21,22
 61 470 61 470 96.5 552 c 128,-1,23
 132 634 132 634 204.5 679.5 c 128,-1,24
 277 725 277 725 386 725 c 0,0,1
394 646 m 0,25,26
 333 646 333 646 287.5 626.5 c 128,-1,27
 242 607 242 607 213 569.5 c 128,-1,28
 184 532 184 532 169.5 479 c 128,-1,29
 155 426 155 426 155 358 c 0,30,31
 155 268 155 268 180.5 203 c 128,-1,32
 206 138 206 138 259 103 c 128,-1,33
 312 68 312 68 393 68 c 0,34,35
 421 68 421 68 446.5 72.5 c 128,-1,36
 472 77 472 77 492 85 c 1,37,-1
 492 630 l 1,38,39
 471 638 471 638 446.5 642 c 128,-1,40
 422 646 422 646 394 646 c 0,25,26
EndSplineSet
Substitution2: "'c2sc' Capitals to Small Capitals lookup 38 subtable" oelig.sc
Substitution2: "'aalt' Access All Alternates lookup 0 subtable" oelig.sc
EndChar

StartChar: oelig
Encoding: 339 339 276
Width: 946
VWidth: 1000
GlyphClass: 2
Flags: W
AnchorPoint: "Top" 473 536 basechar 0
AnchorPoint: "Middle" 474 267 basechar 0
AnchorPoint: "Bottom" 473 0 basechar 0
LayerCount: 2
Fore
SplineSet
677 545 m 0,0,1
 745 545 745 545 793.5 515 c 128,-1,2
 842 485 842 485 868 431 c 128,-1,3
 894 377 894 377 894 304 c 2,4,-1
 894 251 l 1,5,-1
 538 251 l 1,6,7
 540 155 540 155 581.5 110 c 128,-1,8
 623 65 623 65 700 65 c 0,9,10
 753 65 753 65 791.5 74.5 c 128,-1,11
 830 84 830 84 870 102 c 1,12,-1
 870 25 l 1,13,14
 830 7 830 7 791 -1.5 c 128,-1,15
 752 -10 752 -10 699 -10 c 0,16,17
 631 -10 631 -10 579 18 c 128,-1,18
 527 46 527 46 495 101 c 1,19,20
 464 46 464 46 413 18 c 128,-1,21
 362 -10 362 -10 296 -10 c 0,22,23
 226 -10 226 -10 171.5 22.5 c 128,-1,24
 117 55 117 55 85.5 117.5 c 128,-1,25
 54 180 54 180 54 269 c 0,26,27
 54 357 54 357 83.5 418.5 c 128,-1,28
 113 480 113 480 168 512.5 c 128,-1,29
 223 545 223 545 299 545 c 0,30,31
 362 545 362 545 412 517 c 128,-1,32
 462 489 462 489 492 435 c 1,33,34
 512 471 512 471 539.5 495.5 c 128,-1,35
 567 520 567 520 601.5 532.5 c 128,-1,36
 636 545 636 545 677 545 c 0,0,1
295 472 m 0,37,38
 216 472 216 472 181 421 c 128,-1,39
 146 370 146 370 146 269 c 0,40,41
 146 202 146 202 161.5 156 c 128,-1,42
 177 110 177 110 210.5 86.5 c 128,-1,43
 244 63 244 63 297 63 c 0,44,45
 349 63 349 63 382 86 c 128,-1,46
 415 109 415 109 431 154 c 128,-1,47
 447 199 447 199 447 265 c 0,48,49
 447 335 447 335 431 380.5 c 128,-1,50
 415 426 415 426 381.5 449 c 128,-1,51
 348 472 348 472 295 472 c 0,37,38
676 473 m 0,52,53
 616 473 616 473 581 434 c 128,-1,54
 546 395 546 395 540 321 c 1,55,-1
 801 321 l 1,56,57
 801 367 801 367 788 401 c 128,-1,58
 775 435 775 435 747.5 454 c 128,-1,59
 720 473 720 473 676 473 c 0,52,53
EndSplineSet
Substitution2: "'smcp' Lowercase to Small Capitals lookup 39 subtable" oelig.sc
Substitution2: "'aalt' Access All Alternates lookup 0 subtable" oelig.sc
EndChar

StartChar: tcaron
Encoding: 357 357 294
Width: 361
VWidth: 1000
GlyphClass: 2
Flags: W
AnchorPoint: "NECorner" 225 840 basechar 0
AnchorPoint: "Top" 154 760 basechar 0
AnchorPoint: "Middle" 181 268 basechar 0
AnchorPoint: "Bottom" 214 0 basechar 0
LayerCount: 2
Fore
SplineSet
470 751 m 1,0,1
 466 733 466 733 454.5 706 c 128,-1,2
 443 679 443 679 428 650.5 c 128,-1,3
 413 622 413 622 398 600 c 1,4,-1
 350 600 l 1,5,-1
 350 612 l 1,6,7
 355 626 355 626 360 645 c 128,-1,8
 365 664 365 664 369.5 684.5 c 128,-1,9
 374 705 374 705 377.5 724.5 c 128,-1,10
 381 744 381 744 383 760 c 1,11,-1
 470 760 l 1,12,-1
 470 751 l 1,0,1
264 62 m 0,13,14
 284 62 284 62 305 65.5 c 128,-1,15
 326 69 326 69 339 73 c 1,16,-1
 339 6 l 1,17,18
 325 -1 325 -1 299 -5.5 c 128,-1,19
 273 -10 273 -10 249 -10 c 0,20,21
 207 -10 207 -10 171.5 4.5 c 128,-1,22
 136 19 136 19 114 55 c 128,-1,23
 92 91 92 91 92 156 c 2,24,-1
 92 468 l 1,25,-1
 16 468 l 1,26,-1
 16 510 l 1,27,-1
 93 545 l 1,28,-1
 128 659 l 1,29,-1
 180 659 l 1,30,-1
 180 536 l 1,31,-1
 335 536 l 1,32,-1
 335 468 l 1,33,-1
 180 468 l 1,34,-1
 180 158 l 2,35,36
 180 109 180 109 203.5 85.5 c 128,-1,37
 227 62 227 62 264 62 c 0,13,14
EndSplineSet
Substitution2: "'smcp' Lowercase to Small Capitals lookup 39 subtable" tcaron.sc
Substitution2: "'aalt' Access All Alternates lookup 0 subtable" tcaron.sc
EndChar

StartChar: Tstroke
Encoding: 358 358 295
Width: 556
VWidth: 1000
GlyphClass: 2
Flags: W
AnchorPoint: "Top" 278 714 basechar 0
AnchorPoint: "Middle" 277 357 basechar 0
AnchorPoint: "Bottom" 278 0 basechar 0
LayerCount: 2
Fore
SplineSet
232 0 m 1,0,-1
 232 325 l 1,1,-1
 83 325 l 1,2,-1
 83 399 l 1,3,-1
 232 399 l 1,4,-1
 232 634 l 1,5,-1
 10 634 l 1,6,-1
 10 714 l 1,7,-1
 545 714 l 1,8,-1
 545 634 l 1,9,-1
 322 634 l 1,10,-1
 322 399 l 1,11,-1
 470 399 l 1,12,-1
 470 325 l 1,13,-1
 322 325 l 1,14,-1
 322 0 l 1,15,-1
 232 0 l 1,0,-1
EndSplineSet
Substitution2: "'c2sc' Capitals to Small Capitals lookup 38 subtable" tstroke.sc
Substitution2: "'aalt' Access All Alternates lookup 0 subtable" tstroke.sc
EndChar

StartChar: tstroke
Encoding: 359 359 296
Width: 361
VWidth: 1000
GlyphClass: 2
Flags: W
AnchorPoint: "NECorner" 225 840 basechar 0
AnchorPoint: "Top" 154 659 basechar 0
AnchorPoint: "Middle" 181 268 basechar 0
AnchorPoint: "Bottom" 214 0 basechar 0
LayerCount: 2
Fore
SplineSet
24 280 m 1,0,-1
 24 346 l 1,1,-1
 326 346 l 1,2,-1
 326 280 l 1,3,-1
 24 280 l 1,0,-1
264 62 m 0,4,5
 284 62 284 62 305 65.5 c 128,-1,6
 326 69 326 69 339 73 c 1,7,-1
 339 6 l 1,8,9
 325 -1 325 -1 299 -5.5 c 128,-1,10
 273 -10 273 -10 249 -10 c 0,11,12
 207 -10 207 -10 171.5 4.5 c 128,-1,13
 136 19 136 19 114 55 c 128,-1,14
 92 91 92 91 92 156 c 2,15,-1
 92 468 l 1,16,-1
 16 468 l 1,17,-1
 16 510 l 1,18,-1
 93 545 l 1,19,-1
 128 659 l 1,20,-1
 180 659 l 1,21,-1
 180 536 l 1,22,-1
 335 536 l 1,23,-1
 335 468 l 1,24,-1
 180 468 l 1,25,-1
 180 158 l 2,26,27
 180 109 180 109 203.5 85.5 c 128,-1,28
 227 62 227 62 264 62 c 0,4,5
EndSplineSet
Substitution2: "'smcp' Lowercase to Small Capitals lookup 39 subtable" tstroke.sc
Substitution2: "'aalt' Access All Alternates lookup 0 subtable" tstroke.sc
EndChar

StartChar: Uogon
Encoding: 370 370 307
Width: 731
VWidth: 1000
GlyphClass: 2
Flags: W
AnchorPoint: "NECorner" 711 714 basechar 0
AnchorPoint: "Top" 366 714 basechar 0
AnchorPoint: "Middle" 365 352 basechar 0
AnchorPoint: "Bottom" 364 -220 basechar 0
LayerCount: 2
Fore
SplineSet
466 -107 m 0,0,1
 466 -136 466 -136 478 -148.5 c 128,-1,2
 490 -161 490 -161 511 -161 c 0,3,4
 528 -161 528 -161 539.5 -158.5 c 128,-1,5
 551 -156 551 -156 559 -155 c 1,6,-1
 559 -211 l 1,7,8
 545 -215 545 -215 531 -217.5 c 128,-1,9
 517 -220 517 -220 497 -220 c 0,10,11
 444 -220 444 -220 419 -194 c 128,-1,12
 394 -168 394 -168 394 -117 c 0,13,14
 394 -85 394 -85 410 -54.5 c 128,-1,15
 426 -24 426 -24 449 1 c 128,-1,16
 472 26 472 26 492 40 c 1,17,-1
 555 51 l 1,18,19
 525 17 525 17 505 -10 c 128,-1,20
 485 -37 485 -37 475.5 -60 c 128,-1,21
 466 -83 466 -83 466 -107 c 0,0,1
640 252 m 2,22,23
 640 178 640 178 610 118.5 c 128,-1,24
 580 59 580 59 518.5 24.5 c 128,-1,25
 457 -10 457 -10 362 -10 c 0,26,27
 229 -10 229 -10 159.5 62.5 c 128,-1,28
 90 135 90 135 90 254 c 2,29,-1
 90 714 l 1,30,-1
 180 714 l 1,31,-1
 180 251 l 2,32,33
 180 164 180 164 226.5 116 c 128,-1,34
 273 68 273 68 367 68 c 0,35,36
 432 68 432 68 472.5 91.5 c 128,-1,37
 513 115 513 115 532 156.5 c 128,-1,38
 551 198 551 198 551 252 c 2,39,-1
 551 714 l 1,40,-1
 640 714 l 1,41,-1
 640 252 l 2,22,23
EndSplineSet
Substitution2: "'c2sc' Capitals to Small Capitals lookup 38 subtable" uogon.sc
Substitution2: "'locl' Localized Forms in Latin lookup 8 subtable" Uogon.loclNAV
Ligature2: "'ccmp' Glyph Composition/Decomposition lookup 5 subtable" U comb_ogon
AlternateSubs2: "'aalt' Access All Alternates lookup 1 subtable" Uogon.loclNAV uogon.sc
EndChar

StartChar: slong
Encoding: 383 383 320
Width: 326
VWidth: 1000
GlyphClass: 2
Flags: W
AnchorPoint: "Top" 213 765 basechar 0
AnchorPoint: "Middle" 223 382 basechar 0
AnchorPoint: "Bottom" 163 0 basechar 0
LayerCount: 2
Fore
SplineSet
261 692 m 0,0,1
 220 692 220 692 196.5 666 c 128,-1,2
 173 640 173 640 173 577 c 2,3,-1
 173 0 l 1,4,-1
 85 0 l 1,5,-1
 85 577 l 2,6,7
 85 646 85 646 107 687 c 128,-1,8
 129 728 129 728 169 746.5 c 128,-1,9
 209 765 209 765 262 765 c 0,10,11
 293 765 293 765 318 759.5 c 128,-1,12
 343 754 343 754 362 746 c 1,13,-1
 339 677 l 1,14,15
 323 682 323 682 302 687 c 128,-1,16
 281 692 281 692 261 692 c 0,0,1
EndSplineSet
EndChar

StartChar: fhook
Encoding: 402 402 321
Width: 414
VWidth: 1000
GlyphClass: 2
Flags: W
AnchorPoint: "NECorner" 450 765 basechar 0
AnchorPoint: "Top" 322 765 basechar 0
AnchorPoint: "Bottom" 120 0 basechar 0
LayerCount: 2
Fore
SplineSet
130 -242 m 0,0,1
 66 -242 66 -242 26.5 -207 c 128,-1,2
 -13 -172 -13 -172 -13 -113 c 0,3,4
 -13 -103 -13 -103 -12 -92 c 128,-1,5
 -11 -81 -11 -81 -8 -70 c 1,6,-1
 67 -86 l 1,7,8
 66 -90 66 -90 65.5 -95.5 c 128,-1,9
 65 -101 65 -101 65 -107 c 0,10,11
 65 -138 65 -138 81.5 -153.5 c 128,-1,12
 98 -169 98 -169 120 -169 c 0,13,14
 148 -169 148 -169 163.5 -150 c 128,-1,15
 179 -131 179 -131 179 -82 c 2,16,-1
 179 468 l 1,17,-1
 85 468 l 1,18,-1
 85 509 l 1,19,-1
 179 539 l 1,20,-1
 179 570 l 2,21,22
 179 639 179 639 199.5 682 c 128,-1,23
 220 725 220 725 259 745 c 128,-1,24
 298 765 298 765 353 765 c 0,25,26
 385 765 385 765 411.5 759.5 c 128,-1,27
 438 754 438 754 457 747 c 1,28,-1
 434 678 l 1,29,30
 418 683 418 683 397 688 c 128,-1,31
 376 693 376 693 354 693 c 0,32,33
 310 693 310 693 288.5 663.5 c 128,-1,34
 267 634 267 634 267 571 c 2,35,-1
 267 536 l 1,36,-1
 402 536 l 1,37,-1
 402 468 l 1,38,-1
 267 468 l 1,39,-1
 267 -79 l 2,40,41
 267 -130 267 -130 252 -166.5 c 128,-1,42
 237 -203 237 -203 207 -222.5 c 128,-1,43
 177 -242 177 -242 130 -242 c 0,0,1
EndSplineSet
Substitution2: "'ss03' Style Set 3 lookup 44 subtable" fhook.ss03
Substitution2: "'aalt' Access All Alternates lookup 0 subtable" fhook.ss03
EndChar

StartChar: Aringaboveacute
Encoding: 506 506 322
Width: 640
VWidth: 1000
GlyphClass: 2
Flags: W
AnchorPoint: "Top" 320 958 basechar 0
AnchorPoint: "Middle" 320 479 basechar 0
AnchorPoint: "Bottom" 320 0 basechar 0
LayerCount: 2
Fore
SplineSet
258 608 m 1,0,1
 235 621 235 621 222 644 c 128,-1,2
 209 667 209 667 209 698 c 0,3,4
 209 748 209 748 239.5 776 c 128,-1,5
 270 804 270 804 318 804 c 0,6,7
 365 804 365 804 397.5 776.5 c 128,-1,8
 430 749 430 749 430 699 c 0,9,10
 430 668 430 668 417 645 c 128,-1,11
 404 622 404 622 382 609 c 1,12,-1
 640 0 l 1,13,-1
 547 0 l 1,14,-1
 465 192 l 1,15,-1
 170 192 l 1,16,-1
 92 0 l 1,17,-1
 0 0 l 1,18,-1
 258 608 l 1,0,1
201 272 m 1,19,-1
 439 272 l 1,20,-1
 355 479 l 2,21,22
 350 491 350 491 343.5 508 c 128,-1,23
 337 525 337 525 331 543.5 c 128,-1,24
 325 562 325 562 319 580 c 1,25,26
 311 553 311 553 301 523.5 c 128,-1,27
 291 494 291 494 284 477 c 2,28,-1
 201 272 l 1,19,-1
318 642 m 0,29,30
 343 642 343 642 358.5 656.5 c 128,-1,31
 374 671 374 671 374 698 c 256,32,33
 374 725 374 725 358.5 739.5 c 128,-1,34
 343 754 343 754 318 754 c 0,35,36
 294 754 294 754 278 739.5 c 128,-1,37
 262 725 262 725 262 698 c 0,38,39
 262 672 262 672 276.5 657 c 128,-1,40
 291 642 291 642 318 642 c 0,29,30
271 838 m 1,41,42
 285 854 285 854 300.5 875 c 128,-1,43
 316 896 316 896 331 918 c 128,-1,44
 346 940 346 940 356 958 c 1,45,-1
 462 958 l 1,46,-1
 462 950 l 1,47,48
 454 939 454 939 439 923 c 128,-1,49
 424 907 424 907 405 889.5 c 128,-1,50
 386 872 386 872 366.5 856 c 128,-1,51
 347 840 347 840 330 829 c 1,52,-1
 271 829 l 1,53,-1
 271 838 l 1,41,42
EndSplineSet
Substitution2: "'c2sc' Capitals to Small Capitals lookup 38 subtable" aringaboveacute.sc
Substitution2: "'aalt' Access All Alternates lookup 0 subtable" aringaboveacute.sc
EndChar

StartChar: aringaboveacute
Encoding: 507 507 323
Width: 561
VWidth: 1000
GlyphClass: 2
Flags: W
AnchorPoint: "Top" 281 958 basechar 0
AnchorPoint: "Middle" 263 474 basechar 0
AnchorPoint: "Bottom" 281 0 basechar 0
LayerCount: 2
Fore
SplineSet
288 545 m 0,0,1
 386 545 386 545 433 502 c 128,-1,2
 480 459 480 459 480 365 c 2,3,-1
 480 0 l 1,4,-1
 416 0 l 1,5,-1
 399 76 l 1,6,-1
 395 76 l 1,7,8
 372 47 372 47 347.5 27.5 c 128,-1,9
 323 8 323 8 291.5 -1 c 128,-1,10
 260 -10 260 -10 215 -10 c 0,11,12
 167 -10 167 -10 128.5 7 c 128,-1,13
 90 24 90 24 68 59.5 c 128,-1,14
 46 95 46 95 46 149 c 0,15,16
 46 229 46 229 109 272.5 c 128,-1,17
 172 316 172 316 303 320 c 2,18,-1
 394 323 l 1,19,-1
 394 355 l 2,20,21
 394 422 394 422 365 448 c 128,-1,22
 336 474 336 474 283 474 c 0,23,24
 241 474 241 474 203 461.5 c 128,-1,25
 165 449 165 449 132 433 c 1,26,-1
 105 499 l 1,27,28
 140 518 140 518 188 531.5 c 128,-1,29
 236 545 236 545 288 545 c 0,0,1
314 259 m 2,30,31
 214 255 214 255 175.5 227 c 128,-1,32
 137 199 137 199 137 148 c 0,33,34
 137 103 137 103 164.5 82 c 128,-1,35
 192 61 192 61 235 61 c 0,36,37
 303 61 303 61 348 98.5 c 128,-1,38
 393 136 393 136 393 214 c 2,39,-1
 393 262 l 1,40,-1
 314 259 l 2,30,31
285 768 m 256,41,42
 261 768 261 768 245 753 c 128,-1,43
 229 738 229 738 229 712 c 256,44,45
 229 686 229 686 243.5 671 c 128,-1,46
 258 656 258 656 285 656 c 0,47,48
 310 656 310 656 325.5 671 c 128,-1,49
 341 686 341 686 341 712 c 256,50,51
 341 738 341 738 325 753 c 128,-1,52
 309 768 309 768 285 768 c 256,41,42
285 817 m 0,53,54
 317 817 317 817 342 804.5 c 128,-1,55
 367 792 367 792 381.5 769 c 128,-1,56
 396 746 396 746 396 713 c 0,57,58
 396 662 396 662 364.5 634 c 128,-1,59
 333 606 333 606 285 606 c 0,60,61
 236 606 236 606 206 634 c 128,-1,62
 176 662 176 662 176 712 c 256,63,64
 176 762 176 762 206 789.5 c 128,-1,65
 236 817 236 817 285 817 c 0,53,54
446 952 m 1,66,67
 436 941 436 941 408 922.5 c 128,-1,68
 380 904 380 904 348 886 c 128,-1,69
 316 868 316 868 293 856 c 1,70,-1
 230 856 l 1,71,-1
 230 864 l 1,72,73
 244 877 244 877 259.5 893 c 128,-1,74
 275 909 275 909 290 926.5 c 128,-1,75
 305 944 305 944 315 958 c 1,76,-1
 446 958 l 1,77,-1
 446 952 l 1,66,67
EndSplineSet
Substitution2: "'smcp' Lowercase to Small Capitals lookup 39 subtable" aringaboveacute.sc
Substitution2: "'aalt' Access All Alternates lookup 0 subtable" aringaboveacute.sc
EndChar

StartChar: modciraccent
Encoding: 710 710 330
Width: 418
VWidth: 1000
GlyphClass: 1
Flags: W
LayerCount: 2
Fore
SplineSet
253 766 m 1,0,1
 265 744 265 744 287.5 716.5 c 128,-1,2
 310 689 310 689 334.5 662.5 c 128,-1,3
 359 636 359 636 378 617 c 1,4,-1
 378 606 l 1,5,-1
 316 606 l 1,6,7
 290 622 290 622 262 645.5 c 128,-1,8
 234 669 234 669 207 696 c 1,9,10
 180 669 180 669 153 646 c 128,-1,11
 126 623 126 623 100 606 c 1,12,-1
 40 606 l 1,13,-1
 40 617 l 1,14,15
 59 637 59 637 82.5 663 c 128,-1,16
 106 689 106 689 128 716.5 c 128,-1,17
 150 744 150 744 163 766 c 1,18,-1
 253 766 l 1,0,1
EndSplineSet
EndChar

StartChar: caron
Encoding: 711 711 331
Width: 418
VWidth: 1000
GlyphClass: 1
Flags: W
LayerCount: 2
Fore
SplineSet
163 606 m 1,0,1
 150 629 150 629 128 655.5 c 128,-1,2
 106 682 106 682 82 708 c 128,-1,3
 58 734 58 734 40 753 c 1,4,-1
 40 766 l 1,5,-1
 100 766 l 1,6,7
 126 749 126 749 154 725 c 128,-1,8
 182 701 182 701 207 674 c 1,9,10
 234 701 234 701 262 725 c 128,-1,11
 290 749 290 749 316 766 c 1,12,-1
 378 766 l 1,13,-1
 378 753 l 1,14,15
 359 734 359 734 334.5 708 c 128,-1,16
 310 682 310 682 287.5 655.5 c 128,-1,17
 265 629 265 629 253 606 c 1,18,-1
 163 606 l 1,0,1
EndSplineSet
EndChar

StartChar: modmacr
Encoding: 713 713 332
Width: 377
VWidth: 1000
GlyphClass: 1
Flags: W
LayerCount: 2
Fore
SplineSet
337 677 m 1,0,-1
 337 606 l 1,1,-1
 40 606 l 1,2,-1
 40 677 l 1,3,-1
 337 677 l 1,0,-1
EndSplineSet
EndChar

StartChar: breve
Encoding: 728 728 333
Width: 391
VWidth: 1000
GlyphClass: 1
Flags: W
LayerCount: 2
Fore
SplineSet
351 740 m 1,0,1
 348 700 348 700 328.5 670 c 128,-1,2
 309 640 309 640 275 623 c 128,-1,3
 241 606 241 606 193 606 c 0,4,5
 119 606 119 606 81.5 642.5 c 128,-1,6
 44 679 44 679 40 740 c 1,7,-1
 94 740 l 1,8,9
 97 713 97 713 109.5 699.5 c 128,-1,10
 122 686 122 686 143.5 681.5 c 128,-1,11
 165 677 165 677 195 677 c 0,12,13
 221 677 221 677 242.5 682 c 128,-1,14
 264 687 264 687 278.5 700.5 c 128,-1,15
 293 714 293 714 296 740 c 1,16,-1
 351 740 l 1,0,1
EndSplineSet
EndChar

StartChar: dot
Encoding: 729 729 334
Width: 183
VWidth: 1000
GlyphClass: 1
Flags: W
LayerCount: 2
Fore
SplineSet
92 737 m 0,0,1
 112 737 112 737 127.5 723.5 c 128,-1,2
 143 710 143 710 143 681 c 0,3,4
 143 653 143 653 127.5 639 c 128,-1,5
 112 625 112 625 92 625 c 0,6,7
 70 625 70 625 55 639 c 128,-1,8
 40 653 40 653 40 681 c 0,9,10
 40 710 40 710 55 723.5 c 128,-1,11
 70 737 70 737 92 737 c 0,0,1
EndSplineSet
EndChar

StartChar: ringabove
Encoding: 730 730 335
Width: 300
VWidth: 1000
GlyphClass: 1
Flags: W
LayerCount: 2
Fore
SplineSet
149 606 m 0,0,1
 100 606 100 606 70 634 c 128,-1,2
 40 662 40 662 40 712 c 256,3,4
 40 762 40 762 70 789.5 c 128,-1,5
 100 817 100 817 149 817 c 0,6,7
 196 817 196 817 228 789.5 c 128,-1,8
 260 762 260 762 260 713 c 0,9,10
 260 662 260 662 228.5 634 c 128,-1,11
 197 606 197 606 149 606 c 0,0,1
149 656 m 0,12,13
 174 656 174 656 189.5 671 c 128,-1,14
 205 686 205 686 205 712 c 256,15,16
 205 738 205 738 189 753 c 128,-1,17
 173 768 173 768 149 768 c 256,18,19
 125 768 125 768 109 753 c 128,-1,20
 93 738 93 738 93 712 c 256,21,22
 93 686 93 686 107.5 671 c 128,-1,23
 122 656 122 656 149 656 c 0,12,13
EndSplineSet
EndChar

StartChar: ogon
Encoding: 731 731 336
Width: 245
VWidth: 1000
GlyphClass: 1
Flags: W
LayerCount: 2
Fore
SplineSet
112 -116 m 0,0,1
 112 -138 112 -138 124 -149.5 c 128,-1,2
 136 -161 136 -161 157 -161 c 0,3,4
 174 -161 174 -161 185.5 -158.5 c 128,-1,5
 197 -156 197 -156 205 -155 c 1,6,-1
 205 -211 l 1,7,8
 191 -215 191 -215 177 -217.5 c 128,-1,9
 163 -220 163 -220 143 -220 c 0,10,11
 90 -220 90 -220 65 -195 c 128,-1,12
 40 -170 40 -170 40 -126 c 0,13,14
 40 -97 40 -97 54.5 -70 c 128,-1,15
 69 -43 69 -43 90.5 -21 c 128,-1,16
 112 1 112 1 132 15 c 1,17,-1
 180 0 l 1,18,19
 146 -32 146 -32 129 -58.5 c 128,-1,20
 112 -85 112 -85 112 -116 c 0,0,1
EndSplineSet
EndChar

StartChar: smalltilde
Encoding: 732 732 337
Width: 447
VWidth: 1000
GlyphClass: 1
Flags: W
LayerCount: 2
Fore
SplineSet
40 606 m 1,0,1
 43 636 43 636 51.5 659.5 c 128,-1,2
 60 683 60 683 74 699.5 c 128,-1,3
 88 716 88 716 107 725 c 128,-1,4
 126 734 126 734 150 734 c 0,5,6
 172 734 172 734 192.5 725.5 c 128,-1,7
 213 717 213 717 232 705.5 c 128,-1,8
 251 694 251 694 268.5 685.5 c 128,-1,9
 286 677 286 677 302 677 c 0,10,11
 325 677 325 677 337.5 691.5 c 128,-1,12
 350 706 350 706 357 735 c 1,13,-1
 407 735 l 1,14,15
 401 677 401 677 373 642 c 128,-1,16
 345 607 345 607 298 607 c 0,17,18
 277 607 277 607 257 615.5 c 128,-1,19
 237 624 237 624 217.5 635.5 c 128,-1,20
 198 647 198 647 180.5 655.5 c 128,-1,21
 163 664 163 664 146 664 c 0,22,23
 122 664 122 664 110 649.5 c 128,-1,24
 98 635 98 635 91 606 c 1,25,-1
 40 606 l 1,0,1
EndSplineSet
EndChar

StartChar: doubleacuteaccent
Encoding: 733 733 338
Width: 439
VWidth: 1000
GlyphClass: 1
Flags: W
LayerCount: 2
Fore
SplineSet
399 756 m 1,0,1
 391 743 391 743 376 723 c 128,-1,2
 361 703 361 703 341.5 681 c 128,-1,3
 322 659 322 659 302.5 639.5 c 128,-1,4
 283 620 283 620 266 606 c 1,5,-1
 216 606 l 1,6,-1
 216 618 l 1,7,8
 230 637 230 637 246 663 c 128,-1,9
 262 689 262 689 277.5 716.5 c 128,-1,10
 293 744 293 744 303 766 c 1,11,-1
 399 766 l 1,12,-1
 399 756 l 1,0,1
223 756 m 1,13,14
 215 743 215 743 200 723 c 128,-1,15
 185 703 185 703 165.5 681 c 128,-1,16
 146 659 146 659 126.5 639.5 c 128,-1,17
 107 620 107 620 90 606 c 1,18,-1
 40 606 l 1,19,-1
 40 618 l 1,20,21
 54 637 54 637 70 663 c 128,-1,22
 86 689 86 689 101 716.5 c 128,-1,23
 116 744 116 744 127 766 c 1,24,-1
 223 766 l 1,25,-1
 223 756 l 1,13,14
EndSplineSet
EndChar

StartChar: tonosgr
Encoding: 900 900 339
Width: 234
VWidth: 1000
GlyphClass: 1
Flags: W
LayerCount: 2
Fore
SplineSet
40 606 m 1,0,-1
 40 618 l 1,1,-1
 88 776 l 1,2,-1
 194 776 l 1,3,-1
 194 766 l 1,4,-1
 99 606 l 1,5,-1
 40 606 l 1,0,-1
EndSplineSet
Substitution2: "'case' Case-Sensitive Forms lookup 40 subtable" tonosgr.case
Substitution2: "'smcp' Lowercase to Small Capitals lookup 39 subtable" tonosgr.sc
Substitution2: "'c2sc' Capitals to Small Capitals lookup 38 subtable" tonosgr.sc
AlternateSubs2: "'aalt' Access All Alternates lookup 1 subtable" tonosgr.sc tonosgr.case
EndChar

StartChar: dialytikatonosgr
Encoding: 901 901 340
Width: 648
VWidth: 1000
GlyphClass: 1
Flags: W
LayerCount: 2
Fore
SplineSet
262 606 m 1,0,-1
 262 618 l 1,1,-1
 300 776 l 1,2,-1
 406 776 l 1,3,-1
 406 766 l 1,4,-1
 321 606 l 1,5,-1
 262 606 l 1,0,-1
196 631 m 256,6,7
 177 631 177 631 163 643.5 c 128,-1,8
 149 656 149 656 149 681 c 0,9,10
 149 707 149 707 163 718.5 c 128,-1,11
 177 730 177 730 196 730 c 256,12,13
 215 730 215 730 229 718.5 c 128,-1,14
 243 707 243 707 243 681 c 0,15,16
 243 656 243 656 229 643.5 c 128,-1,17
 215 631 215 631 196 631 c 256,6,7
451 631 m 256,18,19
 432 631 432 631 418.5 643.5 c 128,-1,20
 405 656 405 656 405 681 c 0,21,22
 405 707 405 707 418.5 718.5 c 128,-1,23
 432 730 432 730 451 730 c 256,24,25
 470 730 470 730 484 718.5 c 128,-1,26
 498 707 498 707 498 681 c 0,27,28
 498 656 498 656 484 643.5 c 128,-1,29
 470 631 470 631 451 631 c 256,18,19
EndSplineSet
Substitution2: "'smcp' Lowercase to Small Capitals lookup 39 subtable" dialytikatonosgr.sc
Substitution2: "'c2sc' Capitals to Small Capitals lookup 38 subtable" dialytikatonosgr.sc
Substitution2: "'aalt' Access All Alternates lookup 0 subtable" dialytikatonosgr.sc
EndChar

StartChar: Gammagr
Encoding: 915 915 352
Width: 499
VWidth: 1000
GlyphClass: 2
Flags: W
AnchorPoint: "Middle" 286 357 basechar 0
LayerCount: 2
Fore
SplineSet
97 0 m 1,0,-1
 97 714 l 1,1,-1
 476 714 l 1,2,-1
 476 635 l 1,3,-1
 187 635 l 1,4,-1
 187 0 l 1,5,-1
 97 0 l 1,0,-1
EndSplineSet
Substitution2: "'c2sc' Capitals to Small Capitals lookup 38 subtable" gammagr.sc
Substitution2: "'aalt' Access All Alternates lookup 0 subtable" gammagr.sc
EndChar

StartChar: Deltagr
Encoding: 916 916 353
Width: 639
VWidth: 1000
GlyphClass: 2
Flags: W
AnchorPoint: "Middle" 319 358 basechar 0
LayerCount: 2
Fore
SplineSet
10 0 m 1,0,-1
 10 50 l 1,1,-1
 279 717 l 1,2,-1
 360 717 l 1,3,-1
 628 50 l 1,4,-1
 628 0 l 1,5,-1
 10 0 l 1,0,-1
113 81 m 1,6,-1
 524 81 l 1,7,-1
 357 517 l 2,8,9
 354 525 354 525 346 546 c 128,-1,10
 338 567 338 567 330.5 589.5 c 128,-1,11
 323 612 323 612 319 624 c 1,12,13
 314 604 314 604 307.5 583.5 c 128,-1,14
 301 563 301 563 294.5 546 c 128,-1,15
 288 529 288 529 284 517 c 2,16,-1
 113 81 l 1,6,-1
EndSplineSet
Substitution2: "'c2sc' Capitals to Small Capitals lookup 38 subtable" deltagr.sc
Substitution2: "'aalt' Access All Alternates lookup 0 subtable" deltagr.sc
EndChar

StartChar: Thetagr
Encoding: 920 920 357
Width: 781
VWidth: 1000
GlyphClass: 2
Flags: W
AnchorPoint: "NECorner" 761 714 basechar 0
AnchorPoint: "Top" 391 714 basechar 0
AnchorPoint: "Middle" 391 357 basechar 0
AnchorPoint: "Bottom" 392 0 basechar 0
LayerCount: 2
Fore
SplineSet
240 324 m 1,0,-1
 240 402 l 1,1,-1
 542 402 l 1,2,-1
 542 324 l 1,3,-1
 240 324 l 1,0,-1
720 358 m 0,4,5
 720 275 720 275 699 207.5 c 128,-1,6
 678 140 678 140 636.5 91 c 128,-1,7
 595 42 595 42 533.5 16 c 128,-1,8
 472 -10 472 -10 391 -10 c 0,9,10
 307 -10 307 -10 245 16.5 c 128,-1,11
 183 43 183 43 142 91.5 c 128,-1,12
 101 140 101 140 81 208 c 128,-1,13
 61 276 61 276 61 359 c 0,14,15
 61 469 61 469 97 551 c 128,-1,16
 133 633 133 633 206.5 679 c 128,-1,17
 280 725 280 725 392 725 c 0,18,19
 499 725 499 725 572 679.5 c 128,-1,20
 645 634 645 634 682.5 551.5 c 128,-1,21
 720 469 720 469 720 358 c 0,4,5
156 358 m 256,22,23
 156 268 156 268 181 203 c 128,-1,24
 206 138 206 138 258.5 103 c 128,-1,25
 311 68 311 68 391 68 c 0,26,27
 472 68 472 68 523.5 103 c 128,-1,28
 575 138 575 138 600 203 c 128,-1,29
 625 268 625 268 625 358 c 0,30,31
 625 493 625 493 569 569.5 c 128,-1,32
 513 646 513 646 392 646 c 0,33,34
 311 646 311 646 258.5 611.5 c 128,-1,35
 206 577 206 577 181 512.5 c 128,-1,36
 156 448 156 448 156 358 c 256,22,23
EndSplineSet
Substitution2: "'c2sc' Capitals to Small Capitals lookup 38 subtable" thetagr.sc
Substitution2: "'aalt' Access All Alternates lookup 0 subtable" thetagr.sc
EndChar

StartChar: Lamdagr
Encoding: 923 923 360
Width: 609
VWidth: 1000
GlyphClass: 2
Flags: W
AnchorPoint: "Middle" 304 358 basechar 0
LayerCount: 2
Fore
SplineSet
0 0 m 1,0,-1
 264 717 l 1,1,-1
 345 717 l 1,2,-1
 608 0 l 1,3,-1
 515 0 l 1,4,-1
 337 517 l 2,5,6
 334 525 334 525 327 546 c 128,-1,7
 320 567 320 567 313.5 589.5 c 128,-1,8
 307 612 307 612 303 624 c 1,9,10
 298 604 298 604 292.5 583.5 c 128,-1,11
 287 563 287 563 281.5 546 c 128,-1,12
 276 529 276 529 272 517 c 2,13,-1
 91 0 l 1,14,-1
 0 0 l 1,0,-1
EndSplineSet
Substitution2: "'c2sc' Capitals to Small Capitals lookup 38 subtable" lamdagr.sc
Substitution2: "'aalt' Access All Alternates lookup 0 subtable" lamdagr.sc
EndChar

StartChar: Xigr
Encoding: 926 926 363
Width: 624
VWidth: 1000
GlyphClass: 2
Flags: W
AnchorPoint: "Middle" 312 357 basechar 0
LayerCount: 2
Fore
SplineSet
60 0 m 1,0,-1
 60 81 l 1,1,-1
 564 81 l 1,2,-1
 564 0 l 1,3,-1
 60 0 l 1,0,-1
120 333 m 1,4,-1
 120 414 l 1,5,-1
 504 414 l 1,6,-1
 504 333 l 1,7,-1
 120 333 l 1,4,-1
80 633 m 1,8,-1
 80 714 l 1,9,-1
 544 714 l 1,10,-1
 544 633 l 1,11,-1
 80 633 l 1,8,-1
EndSplineSet
Substitution2: "'c2sc' Capitals to Small Capitals lookup 38 subtable" xigr.sc
Substitution2: "'aalt' Access All Alternates lookup 0 subtable" xigr.sc
EndChar

StartChar: Pigr
Encoding: 928 928 365
Width: 731
VWidth: 1000
GlyphClass: 2
Flags: W
AnchorPoint: "Middle" 365 357 basechar 0
LayerCount: 2
Fore
SplineSet
97 0 m 1,0,-1
 97 714 l 1,1,-1
 633 714 l 1,2,-1
 633 0 l 1,3,-1
 544 0 l 1,4,-1
 544 635 l 1,5,-1
 187 635 l 1,6,-1
 187 0 l 1,7,-1
 97 0 l 1,0,-1
EndSplineSet
Substitution2: "'c2sc' Capitals to Small Capitals lookup 38 subtable" pigr.sc
Substitution2: "'aalt' Access All Alternates lookup 0 subtable" pigr.sc
EndChar

StartChar: Sigmagr
Encoding: 931 931 367
Width: 572
VWidth: 1000
GlyphClass: 2
Flags: W
AnchorPoint: "Middle" 285 357 basechar 0
LayerCount: 2
Fore
SplineSet
38 0 m 1,0,-1
 38 74 l 1,1,-1
 274 369 l 1,2,-1
 48 639 l 1,3,-1
 48 714 l 1,4,-1
 521 714 l 1,5,-1
 521 634 l 1,6,-1
 264 634 l 2,7,8
 242 634 242 634 210.5 634 c 128,-1,9
 179 634 179 634 163 635 c 1,10,-1
 368 392 l 1,11,-1
 368 365 l 1,12,-1
 141 80 l 1,13,14
 179 80 179 80 214.5 80.5 c 128,-1,15
 250 81 250 81 290 81 c 2,16,-1
 533 81 l 1,17,-1
 533 0 l 1,18,-1
 38 0 l 1,0,-1
EndSplineSet
Substitution2: "'c2sc' Capitals to Small Capitals lookup 38 subtable" sigmagr.sc
Substitution2: "'aalt' Access All Alternates lookup 0 subtable" sigmagr.sc
EndChar

StartChar: Phigr
Encoding: 934 934 370
Width: 843
VWidth: 1000
GlyphClass: 2
Flags: W
AnchorPoint: "Middle" 421 357 basechar 0
LayerCount: 2
Fore
SplineSet
377 0 m 1,0,-1
 377 90 l 1,1,2
 278 92 278 92 214.5 118 c 128,-1,3
 151 144 151 144 115.5 185.5 c 128,-1,4
 80 227 80 227 65.5 275.5 c 128,-1,5
 51 324 51 324 51 370 c 0,6,7
 51 423 51 423 67 472 c 128,-1,8
 83 521 83 521 120 559.5 c 128,-1,9
 157 598 157 598 220 621.5 c 128,-1,10
 283 645 283 645 377 646 c 1,11,-1
 377 714 l 1,12,-1
 466 714 l 1,13,-1
 466 646 l 1,14,15
 561 645 561 645 624 622 c 128,-1,16
 687 599 687 599 723.5 561 c 128,-1,17
 760 523 760 523 776 473.5 c 128,-1,18
 792 424 792 424 792 370 c 0,19,20
 792 322 792 322 777 273 c 128,-1,21
 762 224 762 224 725.5 183.5 c 128,-1,22
 689 143 689 143 625.5 117.5 c 128,-1,23
 562 92 562 92 466 90 c 1,24,-1
 466 0 l 1,25,-1
 377 0 l 1,0,-1
377 164 m 1,26,-1
 377 570 l 1,27,28
 287 568 287 568 235.5 541.5 c 128,-1,29
 184 515 184 515 163 471 c 128,-1,30
 142 427 142 427 142 371 c 0,31,32
 142 312 142 312 165.5 266 c 128,-1,33
 189 220 189 220 240.5 193.5 c 128,-1,34
 292 167 292 167 377 164 c 1,26,-1
466 164 m 1,35,36
 553 167 553 167 604.5 194.5 c 128,-1,37
 656 222 656 222 678.5 268 c 128,-1,38
 701 314 701 314 701 371 c 256,39,40
 701 428 701 428 680 472 c 128,-1,41
 659 516 659 516 608 542 c 128,-1,42
 557 568 557 568 466 570 c 1,43,-1
 466 164 l 1,35,36
EndSplineSet
Substitution2: "'c2sc' Capitals to Small Capitals lookup 38 subtable" phigr.sc
Substitution2: "'aalt' Access All Alternates lookup 0 subtable" phigr.sc
EndChar

StartChar: Psigr
Encoding: 936 936 372
Width: 821
VWidth: 1000
GlyphClass: 2
Flags: W
AnchorPoint: "Middle" 410 357 basechar 0
LayerCount: 2
Fore
SplineSet
366 0 m 1,0,-1
 366 187 l 1,1,2
 298 190 298 190 246 210 c 128,-1,3
 194 230 194 230 159.5 267 c 128,-1,4
 125 304 125 304 107.5 359.5 c 128,-1,5
 90 415 90 415 90 489 c 2,6,-1
 90 714 l 1,7,-1
 182 714 l 1,8,-1
 182 488 l 2,9,10
 182 402 182 402 205 353 c 128,-1,11
 228 304 228 304 269.5 284 c 128,-1,12
 311 264 311 264 366 264 c 1,13,-1
 366 714 l 1,14,-1
 454 714 l 1,15,-1
 454 264 l 1,16,17
 509 264 509 264 550.5 284 c 128,-1,18
 592 304 592 304 615 353 c 128,-1,19
 638 402 638 402 638 488 c 2,20,-1
 638 714 l 1,21,-1
 730 714 l 1,22,-1
 730 489 l 2,23,24
 730 390 730 390 699 324.5 c 128,-1,25
 668 259 668 259 606.5 225.5 c 128,-1,26
 545 192 545 192 454 187 c 1,27,-1
 454 0 l 1,28,-1
 366 0 l 1,0,-1
EndSplineSet
Substitution2: "'c2sc' Capitals to Small Capitals lookup 38 subtable" psigr.sc
Substitution2: "'aalt' Access All Alternates lookup 0 subtable" psigr.sc
EndChar

StartChar: Omegagr
Encoding: 937 937 373
Width: 717
VWidth: 1000
GlyphClass: 2
Flags: W
AnchorPoint: "Top" 358 714 basechar 0
AnchorPoint: "Middle" 358 362 basechar 0
AnchorPoint: "Bottom" 358 0 basechar 0
LayerCount: 2
Fore
SplineSet
25 0 m 1,0,-1
 25 79 l 1,1,-1
 183 79 l 1,2,3
 146 107 146 107 111 149.5 c 128,-1,4
 76 192 76 192 53.5 251 c 128,-1,5
 31 310 31 310 31 384 c 0,6,7
 31 482 31 482 69 559 c 128,-1,8
 107 636 107 636 180 680.5 c 128,-1,9
 253 725 253 725 358 725 c 0,10,11
 464 725 464 725 537 681 c 128,-1,12
 610 637 610 637 648 560 c 128,-1,13
 686 483 686 483 686 385 c 0,14,15
 686 310 686 310 664 251 c 128,-1,16
 642 192 642 192 607.5 149.5 c 128,-1,17
 573 107 573 107 535 79 c 1,18,-1
 692 79 l 1,19,-1
 692 0 l 1,20,-1
 424 0 l 1,21,-1
 424 72 l 1,22,23
 486 116 486 116 523 162 c 128,-1,24
 560 208 560 208 576 261.5 c 128,-1,25
 592 315 592 315 592 381 c 0,26,27
 592 457 592 457 567 517 c 128,-1,28
 542 577 542 577 490.5 611.5 c 128,-1,29
 439 646 439 646 358 646 c 0,30,31
 278 646 278 646 226.5 611.5 c 128,-1,32
 175 577 175 577 150.5 517 c 128,-1,33
 126 457 126 457 126 381 c 0,34,35
 126 315 126 315 142 261.5 c 128,-1,36
 158 208 158 208 194.5 162.5 c 128,-1,37
 231 117 231 117 293 72 c 1,38,-1
 293 0 l 1,39,-1
 25 0 l 1,0,-1
EndSplineSet
Substitution2: "'c2sc' Capitals to Small Capitals lookup 38 subtable" omegagr.sc
Substitution2: "'aalt' Access All Alternates lookup 0 subtable" omegagr.sc
EndChar

StartChar: alphagr
Encoding: 945 945 381
Width: 623
VWidth: 1000
GlyphClass: 2
Flags: W
AnchorPoint: "Top" 291 536 basechar 0
AnchorPoint: "Middle" 328 268 basechar 0
AnchorPoint: "Bottom" 291 0 basechar 0
LayerCount: 2
Fore
SplineSet
273 -10 m 0,0,1
 209 -10 209 -10 160 21 c 128,-1,2
 111 52 111 52 83 113.5 c 128,-1,3
 55 175 55 175 55 266 c 0,4,5
 55 402 55 402 114.5 474 c 128,-1,6
 174 546 174 546 277 546 c 0,7,8
 315 546 315 546 346 535.5 c 128,-1,9
 377 525 377 525 401.5 506.5 c 128,-1,10
 426 488 426 488 443 463 c 1,11,-1
 447 463 l 1,12,-1
 460 536 l 1,13,-1
 530 536 l 1,14,-1
 530 118 l 2,15,16
 530 87 530 87 542 74.5 c 128,-1,17
 554 62 554 62 571 62 c 0,18,19
 579 62 579 62 588 64 c 128,-1,20
 597 66 597 66 601 67 c 1,21,-1
 601 3 l 1,22,23
 596 0 596 0 587 -3 c 128,-1,24
 578 -6 578 -6 567 -8 c 128,-1,25
 556 -10 556 -10 545 -10 c 0,26,27
 508 -10 508 -10 483.5 8 c 128,-1,28
 459 26 459 26 448 72 c 1,29,-1
 441 72 l 1,30,31
 425 48 425 48 401 29.5 c 128,-1,32
 377 11 377 11 345 0.5 c 128,-1,33
 313 -10 313 -10 273 -10 c 0,0,1
291 63 m 0,34,35
 346 63 346 63 379.5 84 c 128,-1,36
 413 105 413 105 428 149 c 128,-1,37
 443 193 443 193 443 261 c 2,38,-1
 443 267 l 2,39,40
 443 367 443 367 409.5 420 c 128,-1,41
 376 473 376 473 290 473 c 0,42,43
 217 473 217 473 181.5 419.5 c 128,-1,44
 146 366 146 366 146 265 c 0,45,46
 146 165 146 165 183 114 c 128,-1,47
 220 63 220 63 291 63 c 0,34,35
EndSplineSet
Substitution2: "'smcp' Lowercase to Small Capitals lookup 39 subtable" alphagr.sc
Substitution2: "'aalt' Access All Alternates lookup 0 subtable" alphagr.sc
EndChar

StartChar: betagr
Encoding: 946 946 382
Width: 613
VWidth: 1000
GlyphClass: 2
Flags: W
AnchorPoint: "Middle" 321 262 basechar 0
LayerCount: 2
Fore
SplineSet
85 -240 m 1,0,-1
 85 529 l 2,1,2
 85 615 85 615 115.5 666.5 c 128,-1,3
 146 718 146 718 198 741.5 c 128,-1,4
 250 765 250 765 314 765 c 0,5,6
 382 765 382 765 429.5 743 c 128,-1,7
 477 721 477 721 501.5 678.5 c 128,-1,8
 526 636 526 636 526 574 c 0,9,10
 526 526 526 526 506.5 491.5 c 128,-1,11
 487 457 487 457 455 435.5 c 128,-1,12
 423 414 423 414 384 406 c 1,13,-1
 384 402 l 1,14,15
 435 395 435 395 474 371 c 128,-1,16
 513 347 513 347 535.5 305.5 c 128,-1,17
 558 264 558 264 558 203 c 0,18,19
 558 135 558 135 527.5 87 c 128,-1,20
 497 39 497 39 444.5 14.5 c 128,-1,21
 392 -10 392 -10 326 -10 c 0,22,23
 272 -10 272 -10 238.5 -1 c 128,-1,24
 205 8 205 8 173 24 c 1,25,-1
 173 -240 l 1,26,-1
 85 -240 l 1,0,-1
318 62 m 0,27,28
 388 62 388 62 429 100.5 c 128,-1,29
 470 139 470 139 470 209 c 0,30,31
 470 262 470 262 449.5 296.5 c 128,-1,32
 429 331 429 331 395.5 348.5 c 128,-1,33
 362 366 362 366 324 366 c 2,34,-1
 241 366 l 1,35,-1
 241 434 l 1,36,-1
 314 434 l 2,37,38
 352 434 352 434 379.5 451 c 128,-1,39
 407 468 407 468 421.5 499 c 128,-1,40
 436 530 436 530 436 570 c 0,41,42
 436 632 436 632 399.5 662 c 128,-1,43
 363 692 363 692 312 692 c 0,44,45
 277 692 277 692 245 678.5 c 128,-1,46
 213 665 213 665 193 629 c 128,-1,47
 173 593 173 593 173 525 c 2,48,-1
 173 103 l 1,49,50
 208 85 208 85 240 73.5 c 128,-1,51
 272 62 272 62 318 62 c 0,27,28
EndSplineSet
Substitution2: "'smcp' Lowercase to Small Capitals lookup 39 subtable" betagr.sc
Substitution2: "'locl' Localized Forms in Greek lookup 22 subtable" beta
Substitution2: "'locl' Localized Forms in Greek lookup 21 subtable" beta
Substitution2: "'locl' Localized Forms in Latin lookup 17 subtable" beta
Substitution2: "'locl' Localized Forms in Latin lookup 16 subtable" beta
AlternateSubs2: "'aalt' Access All Alternates lookup 1 subtable" beta betagr.sc
EndChar

StartChar: gammagr
Encoding: 947 947 383
Width: 516
VWidth: 1000
GlyphClass: 2
Flags: W
AnchorPoint: "Middle" 243 163 basechar 0
LayerCount: 2
Fore
SplineSet
193 -210 m 1,0,-1
 193 -7 l 1,1,-1
 0 536 l 1,2,-1
 91 536 l 1,3,-1
 188 247 l 2,4,5
 196 223 196 223 208 190 c 128,-1,6
 220 157 220 157 230.5 125.5 c 128,-1,7
 241 94 241 94 246 74 c 1,8,-1
 250 74 l 1,9,10
 307 137 307 137 339.5 206.5 c 128,-1,11
 372 276 372 276 385.5 357.5 c 128,-1,12
 399 439 399 439 399 536 c 1,13,-1
 486 536 l 1,14,15
 486 433 486 433 468 342.5 c 128,-1,16
 450 252 450 252 405.5 167.5 c 128,-1,17
 361 83 361 83 281 -4 c 1,18,-1
 281 -210 l 1,19,-1
 193 -210 l 1,0,-1
EndSplineSet
Substitution2: "'smcp' Lowercase to Small Capitals lookup 39 subtable" gammagr.sc
Substitution2: "'aalt' Access All Alternates lookup 0 subtable" gammagr.sc
EndChar

StartChar: deltagr
Encoding: 948 948 384
Width: 588
VWidth: 1000
GlyphClass: 2
Flags: W
AnchorPoint: "Middle" 289 377 basechar 0
LayerCount: 2
Fore
SplineSet
291 -10 m 0,0,1
 220 -10 220 -10 164 19 c 128,-1,2
 108 48 108 48 76.5 101 c 128,-1,3
 45 154 45 154 45 225 c 0,4,5
 45 289 45 289 66.5 336.5 c 128,-1,6
 88 384 88 384 128.5 417.5 c 128,-1,7
 169 451 169 451 226 473 c 1,8,9
 203 488 203 488 181 506 c 128,-1,10
 159 524 159 524 145 550.5 c 128,-1,11
 131 577 131 577 131 615 c 0,12,13
 131 651 131 651 151 685.5 c 128,-1,14
 171 720 171 720 214 742.5 c 128,-1,15
 257 765 257 765 325 765 c 0,16,17
 375 765 375 765 412 754 c 128,-1,18
 449 743 449 743 474.5 728.5 c 128,-1,19
 500 714 500 714 512 703 c 1,20,-1
 474 634 l 1,21,22
 443 658 443 658 405.5 675.5 c 128,-1,23
 368 693 368 693 324 693 c 0,24,25
 282 693 282 693 258.5 681 c 128,-1,26
 235 669 235 669 226 651.5 c 128,-1,27
 217 634 217 634 217 618 c 0,28,29
 217 601 217 601 225 584 c 128,-1,30
 233 567 233 567 257.5 547.5 c 128,-1,31
 282 528 282 528 331 502 c 0,32,33
 420 455 420 455 463 409.5 c 128,-1,34
 506 364 506 364 520 320.5 c 128,-1,35
 534 277 534 277 534 235 c 0,36,37
 534 150 534 150 500 96 c 128,-1,38
 466 42 466 42 410.5 16 c 128,-1,39
 355 -10 355 -10 291 -10 c 0,0,1
293 62 m 0,40,41
 343 62 343 62 377.5 84 c 128,-1,42
 412 106 412 106 430 145 c 128,-1,43
 448 184 448 184 448 233 c 256,44,45
 448 282 448 282 430 320 c 128,-1,46
 412 358 412 358 378.5 387 c 128,-1,47
 345 416 345 416 300 437 c 1,48,49
 262 424 262 424 231.5 406 c 128,-1,50
 201 388 201 388 179.5 363.5 c 128,-1,51
 158 339 158 339 146.5 306.5 c 128,-1,52
 135 274 135 274 135 233 c 0,53,54
 135 182 135 182 154.5 143.5 c 128,-1,55
 174 105 174 105 209.5 83.5 c 128,-1,56
 245 62 245 62 293 62 c 0,40,41
EndSplineSet
Substitution2: "'smcp' Lowercase to Small Capitals lookup 39 subtable" deltagr.sc
Substitution2: "'aalt' Access All Alternates lookup 0 subtable" deltagr.sc
EndChar

StartChar: epsilongr
Encoding: 949 949 385
Width: 470
VWidth: 1000
GlyphClass: 2
Flags: W
AnchorPoint: "Top" 261 536 basechar 0
AnchorPoint: "Middle" 241 268 basechar 0
AnchorPoint: "Bottom" 267 0 basechar 0
LayerCount: 2
Fore
SplineSet
268 -10 m 0,0,1
 152 -10 152 -10 98.5 34.5 c 128,-1,2
 45 79 45 79 45 146 c 0,3,4
 45 206 45 206 78.5 235 c 128,-1,5
 112 264 112 264 158 277 c 1,6,-1
 158 282 l 1,7,8
 115 296 115 296 89 325.5 c 128,-1,9
 63 355 63 355 63 403 c 0,10,11
 63 449 63 449 86.5 480.5 c 128,-1,12
 110 512 110 512 154.5 529 c 128,-1,13
 199 546 199 546 261 546 c 0,14,15
 317 546 317 546 362.5 534.5 c 128,-1,16
 408 523 408 523 437 507 c 1,17,-1
 409 434 l 1,18,19
 377 452 377 452 340.5 462.5 c 128,-1,20
 304 473 304 473 261 473 c 0,21,22
 201 473 201 473 175.5 452.5 c 128,-1,23
 150 432 150 432 150 397 c 0,24,25
 150 351 150 351 186.5 332.5 c 128,-1,26
 223 314 223 314 271 314 c 2,27,-1
 340 314 l 1,28,-1
 340 246 l 1,29,-1
 271 246 l 2,30,31
 227 246 227 246 197 235 c 128,-1,32
 167 224 167 224 151.5 203 c 128,-1,33
 136 182 136 182 136 151 c 0,34,35
 136 108 136 108 170.5 86.5 c 128,-1,36
 205 65 205 65 268 65 c 0,37,38
 320 65 320 65 358.5 73 c 128,-1,39
 397 81 397 81 428 97 c 1,40,-1
 428 19 l 1,41,42
 397 3 397 3 356 -3.5 c 128,-1,43
 315 -10 315 -10 268 -10 c 0,0,1
EndSplineSet
Substitution2: "'smcp' Lowercase to Small Capitals lookup 39 subtable" epsilongr.sc
Substitution2: "'aalt' Access All Alternates lookup 0 subtable" epsilongr.sc
EndChar

